SplineFontDB: 3.2
FontName: Paribartan1s
FullName: Paribartan1s
FamilyName: Paribartan
Weight: Regular
Copyright: Copyright 2024 The Paribartan Project Authors (github.com/mitradranirban/paribartan)
Version: 0.001
ItalicAngle: 0
UnderlinePosition: 0
UnderlineWidth: 0
Ascent: 800
Descent: 200
InvalidEm: 1
UFOAscent: 800
UFODescent: -250
LayerCount: 2
Layer: 0 0 "Back" 1
Layer: 1 0 "Fore" 0
StyleMap: 0x0000
FSType: 0
OS2Version: 0
OS2_WeightWidthSlopeOnly: 0
OS2_UseTypoMetrics: 0
CreationTime: 1733728903
ModificationTime: 1734457004
PfmFamily: 17
TTFWeight: 400
TTFWidth: 5
LineGap: 0
VLineGap: 0
OS2TypoAscent: 1200
OS2TypoAOffset: 0
OS2TypoDescent: -400
OS2TypoDOffset: 0
OS2TypoLinegap: 0
OS2WinAscent: 1160
OS2WinAOffset: 0
OS2WinDescent: 348
OS2WinDOffset: 0
HheadAscent: 1200
HheadAOffset: 0
HheadDescent: -400
HheadDOffset: 0
OS2CapHeight: 750
OS2XHeight: 500
OS2Vendor: 'anir'
MarkAttachClasses: 1
DEI: 91125
LangName: 1033 "" "" "" "" "" "" "" "" "Dr Anirban Mitra" "Dr Anirban Mitra" "Variable Color Bengali Font" "https://fonts.atipra.in" "https://github.com/mitradranirban" "This Font Software is licensed under the SIL Open Font License, Version 1.1. This license is available with a FAQ at: https://openfontlicense.org+ACIA" " https://openfontlicense.org"
PickledDataWithLists: "(dp0
Vxyz.fontra.lineMetricsHorizontalLayout.zones
p1
(dp2
Vascender
p3
I16
sVbaseline
p4
I-16
sVcapHeight
p5
I16
sVdescender
p6
I-16
sVxHeight
p7
I16
ss."
Encoding: UnicodeBmp
Compacted: 1
UnicodeInterp: none
NameList: AGL For New Fonts
DisplaySize: -128
AntiAlias: 1
FitToEm: 1
WidthSeparation: 150
WinInfo: 360 10 4
BeginPrivate: 0
EndPrivate
Grid
-1000 -402 m 0
 2000 -402 l 1024
-1000 510.5 m 0
 2000 510.5 l 1024
  Named: "XHGHT"
-982 752 m 0
 2018 752 l 1024
  Named: "CAPS"
-1000 1202 m 0
 2000 1202 l 1024
EndSplineSet
BeginChars: 65538 453

StartChar: exclam
Encoding: 33 33 0
Width: 252
VWidth: 0
Flags: HW
HStem: 8 142<0 152>
VStem: 0 152<8 150 268 782>
LayerCount: 2
Fore
SplineSet
0 8 m 1
 0 150 l 1
 152 150 l 1
 152 8 l 1
 0 8 l 1
0 268 m 1
 0 782 l 1
 152 782 l 1
 152 268 l 1
 0 268 l 1
EndSplineSet
EndChar

StartChar: quotedbl
Encoding: 34 34 1
Width: 452
VWidth: 0
Flags: HW
HStem: 542 257<0 152 200 352>
VStem: 0 152<542 799> 200 152<542 799>
LayerCount: 2
Fore
SplineSet
0 542 m 1
 0 799 l 1
 152 799 l 1
 152 542 l 1
 0 542 l 1
200 542 m 1
 200 799 l 1
 352 799 l 1
 352 542 l 1
 200 542 l 1
EndSplineSet
EndChar

StartChar: numbersign
Encoding: 35 35 2
Width: 644
VWidth: 0
Flags: HW
HStem: 226 152<5 14.8453 193.718 314.845 493.718 549> 476 152<5 59.044 237.917 359.044 537.917 549>
LayerCount: 2
Fore
SplineSet
359.043945312 476 m 1
 211.043945312 476 l 1
 193.717773438 378 l 1
 341.717773438 378 l 1
 359.043945312 476 l 1
99 702 m 1
 251 702 l 1
 237.916992188 628 l 1
 385.916992188 628 l 1
 399 702 l 1
 551 702 l 1
 537.916992188 628 l 1
 549 628 l 1
 549 476 l 1
 511.043945312 476 l 1
 493.717773438 378 l 1
 549 378 l 1
 549 226 l 1
 466.845703125 226 l 1
 455 159 l 1
 303 159 l 1
 314.845703125 226 l 1
 166.845703125 226 l 1
 155 159 l 1
 3 159 l 1
 14.845703125 226 l 1
 5 226 l 1
 5 378 l 1
 41.7177734375 378 l 1
 59.0439453125 476 l 1
 5 476 l 1
 5 628 l 1
 85.9169921875 628 l 1
 99 702 l 1
EndSplineSet
EndChar

StartChar: dollar
Encoding: 36 36 3
Width: 512
VWidth: 0
Flags: HW
VStem: 203 210.5<165.062 311.804> 203 79<-172 9.65447 452.672 595.787 784.489 1040>
LayerCount: 2
Fore
SplineSet
203 595.787109375 m 1
 196.98046875 589.745117188 191.647460938 582.815429688 187 575 c 0
 170.333007812 547.666992188 168.833007812 517.666992188 182.5 485 c 0
 187.901367188 472.088867188 194.734375 461.313476562 203 452.671875 c 1
 203 595.787109375 l 1
10 67 m 2
 85 192 l 1
 90.3330078125 188 97.6669921875 183 107 177 c 0
 132.333007812 162.333007812 159.333007812 158.333007812 188 165 c 0
 193.245117188 166.219726562 198.245117188 167.741210938 203 169.563476562 c 1
 203 319.608398438 l 1
 196.412109375 321.99609375 189.412109375 323.79296875 182 325 c 0
 149.333007812 343 121 363 97 385 c 0
 73 407 54 431.666992188 40 459 c 0
 26 486.333007812 20 516.333007812 22 549 c 0
 24 581.666992188 35.3330078125 615 56 649 c 0
 90.1865234375 705.163085938 139.186523438 744.8359375 203 768.017578125 c 1
 203 1040 l 1
 282 1040 l 1
 282 784.489257812 l 1
 329.180664062 785.873046875 371.180664062 770.04296875 408 737 c 0
 410 735 413.5 732.5 418.5 729.5 c 0
 423.5 726.5 427 724 429 722 c 2
 354 597 l 1
 346 603.666992188 338.666992188 608.666992188 332 612 c 0
 315.936523438 620.876953125 299.26953125 625.533203125 282 625.966796875 c 1
 282 410.544921875 l 1
 301.361328125 398.936523438 318.361328125 387.254882812 333 375.5 c 0
 355 357.833007812 374.166992188 337.333007812 390.5 314 c 0
 406.833007812 290.666992188 414.5 264.333007812 413.5 235 c 0
 412.5 205.666992188 402 174 382 140 c 0
 358.666992188 100.666992188 325.5 68.1669921875 282.5 42.5 c 0
 282.333007812 42.400390625 282.166992188 42.30078125 282 42.2021484375 c 2
 282 -172 l 1
 203 -172 l 1
 203 9.654296875 l 1
 185.934570312 5.681640625 168.767578125 3.6298828125 151.5 3.5 c 0
 107.166992188 3.1669921875 67 19.3330078125 31 52 c 0
 29 54 25.5 56.5 20.5 59.5 c 0
 15.5 62.5 12 65 10 67 c 2
EndSplineSet
EndChar

StartChar: percent
Encoding: 37 37 4
Width: 691
VWidth: 0
Flags: HW
HStem: 92 75<448.188 471.812> 274 75<448.188 471.812> 493 75<143.188 166.812> 675 75<143.188 166.812>
VStem: 25 76<578.334 664.111> 209 76<578.933 663.698> 330 76<177.334 263.111> 514 76<177.933 262.698>
LayerCount: 2
Fore
SplineSet
485 828 m 1
 591 767 l 1
 106 -73 l 1
 0 -12 l 1
 485 828 l 1
460 274 m 0
 456 274 452 273 448 272 c 1
 448 273 l 1
 423 268 406 246 406 220 c 0
 406 194 423 173 448 168 c 1
 448 169 l 1
 452 168 456 167 460 167 c 0
 464 167 468 168 472 169 c 1
 472 168 l 1
 497 173 514 194 514 220 c 0
 514 246 497 268 472 273 c 1
 472 272 l 1
 468 273 464 274 460 274 c 0
459 92 m 0
 458 92 458 92 457 92 c 0
 455 92 452 92 450 92 c 0
 383 97 330 152 330 220 c 0
 330 288 383 344 450 349 c 0
 452 349 455 349 457 349 c 0
 458 349 458 349 459 349 c 0
 460 349 460 349 461 349 c 0
 533 349 590 292 590 220 c 0
 590 149 533 92 461 92 c 0
 460 92 460 92 459 92 c 0
155 675 m 4
 151 675 147 674 143 673 c 5
 143 674 l 5
 118 669 101 647 101 621 c 4
 101 595 118 574 143 569 c 5
 143 570 l 5
 147 569 151 568 155 568 c 4
 159 568 163 569 167 570 c 5
 167 569 l 5
 192 574 209 595 209 621 c 4
 209 647 192 669 167 674 c 5
 167 673 l 5
 163 674 159 675 155 675 c 4
154 493 m 4
 153 493 153 493 152 493 c 4
 150 493 147 493 145 493 c 4
 78 498 25 553 25 621 c 4
 25 689 78 745 145 750 c 4
 147 750 150 750 152 750 c 4
 153 750 153 750 154 750 c 4
 155 750 155 750 156 750 c 4
 228 750 285 693 285 621 c 4
 285 550 228 493 156 493 c 4
 155 493 155 493 154 493 c 4
EndSplineSet
EndChar

StartChar: ampersand
Encoding: 38 38 5
Width: 649
VWidth: 0
Flags: HW
HStem: 13 151<200.364 271.357> 508 20G<247.268 269.279>
VStem: 6.8926 151<206.066 281.468>
LayerCount: 2
Fore
SplineSet
271.578125 167.893554688 m 1
 158.534179688 282.051757812 l 1
 158.110351562 278.1015625 157.892578125 274.081054688 157.892578125 270 c 0
 157.892578125 211 204.892578125 164 264.892578125 164 c 0
 265.63671875 164 267.953125 165.373046875 271.578125 167.893554688 c 1
338.892578125 820 m 1
 335.892578125 701 l 1
 310.892578125 699 192.892578125 634 173.892578125 615 c 0
 150.892578125 592 140.892578125 561 142.892578125 531 c 1
 165.551757812 508.340820312 l 1
 196.095703125 521.012695312 229.643554688 528 264.892578125 528 c 0
 273.666015625 528 282.338867188 527.560546875 290.892578125 526.704101562 c 1
 290.892578125 383 l 1
 402.024414062 271.868164062 l 1
 459.897460938 319.09375 514.953125 364.163085938 518.892578125 365.131835938 c 1
 518.892578125 212.295898438 l 2
 517.041015625 212.110351562 504.50390625 202.668945312 485.904296875 187.98828125 c 1
 549.892578125 124 l 1
 431.892578125 6 l 1
 355.688476562 82.955078125 l 1
 308.41015625 44.77734375 268.403320312 13 264.892578125 13 c 0
 121.892578125 13 6.892578125 128 6.892578125 270 c 0
 6.892578125 317.479492188 19.5703125 361.873046875 41.7412109375 399.995117188 c 1
 25.892578125 416 l 1
 -29.18359375 515.021484375 12.6962890625 618.463867188 66.892578125 722 c 0
 93.875 773.546875 306.1484375 839.728515625 338.892578125 820 c 1
EndSplineSet
EndChar

StartChar: quotesingle
Encoding: 39 39 6
Width: 252
VWidth: 0
Flags: HW
HStem: 542 257<0 152>
VStem: 0 152<542 799>
LayerCount: 2
Fore
SplineSet
0 542 m 1
 0 799 l 1
 152 799 l 1
 152 542 l 1
 0 542 l 1
EndSplineSet
EndChar

StartChar: parenleft
Encoding: 40 40 7
Width: 555
VWidth: 0
Flags: HW
HStem: -4 25<323.819 410.389> 754 29<314.924 405.227>
VStem: 0 104<262.783 514.708>
LayerCount: 2
Fore
SplineSet
382 754 m 1
 254 754 104 589 104 388 c 0
 104 186 254 21 382 21 c 1
 455 3 l 1
 431 -2 407 -4 382 -4 c 0
 171 -4 0 172 0 390 c 0
 0 607 171 783 382 783 c 0
 407 783 431 781 455 776 c 1
 382 754 l 1
EndSplineSet
EndChar

StartChar: parenright
Encoding: 41 41 8
Width: 555
VWidth: 0
Flags: HW
HStem: -4 25<44.6111 131.181> 754 29<49.7727 140.076>
VStem: 351 104<262.783 514.708>
LayerCount: 2
Fore
SplineSet
73 754 m 1
 0 776 l 1
 24 781 48 783 73 783 c 0
 284 783 455 607 455 390 c 0
 455 172 284 -4 73 -4 c 0
 48 -4 24 -2 0 3 c 1
 73 21 l 1
 201 21 351 186 351 388 c 0
 351 589 201 754 73 754 c 1
EndSplineSet
EndChar

StartChar: asterisk
Encoding: 42 42 9
Width: 644
VWidth: 0
Flags: HW
HStem: 354 152<0 89 455 544>
VStem: 196 152<159 247 613 702>
LayerCount: 2
Fore
SplineSet
544 506 m 1
 544 354 l 1
 455 354 l 1
 518 291 l 1
 411 184 l 1
 348 247 l 1
 348 159 l 1
 196 159 l 1
 196 247 l 1
 133 184 l 1
 26 291 l 1
 89 354 l 1
 0 354 l 1
 0 506 l 1
 89 506 l 1
 26 569 l 1
 133 676 l 1
 196 613 l 1
 196 702 l 1
 348 702 l 1
 348 613 l 1
 411 676 l 1
 518 569 l 1
 455 506 l 1
 544 506 l 1
EndSplineSet
EndChar

StartChar: plus
Encoding: 43 43 10
Width: 644
VWidth: 0
Flags: HW
HStem: 354 152<0 544>
VStem: 196 152<159 702>
LayerCount: 2
Fore
SplineSet
196 702 m 1
 348 702 l 1
 348 506 l 1
 544 506 l 1
 544 354 l 1
 348 354 l 1
 348 159 l 1
 196 159 l 1
 196 354 l 1
 0 354 l 1
 0 506 l 1
 196 506 l 1
 196 702 l 1
EndSplineSet
EndChar

StartChar: comma
Encoding: 44 44 11
Width: 252
VWidth: 0
Flags: HW
HStem: -124 274<42.7671 95.182>
VStem: 0 152<8 150>
LayerCount: 2
Fore
SplineSet
0 8 m 1
 0 150 l 1
 152 150 l 1
 152 8 l 1
 92 -124 l 1
 34 -120 l 1
 42.767578125 8 l 1
 0 8 l 1
EndSplineSet
EndChar

StartChar: hyphen
Encoding: 45 45 12
Width: 644
VWidth: 0
Flags: HW
HStem: 354 152<0 544>
LayerCount: 2
Fore
SplineSet
544 506 m 1
 544 354 l 1
 0 354 l 1
 0 506 l 1
 544 506 l 1
EndSplineSet
EndChar

StartChar: period
Encoding: 46 46 13
Width: 252
VWidth: 0
Flags: HW
HStem: 8 142<0 152>
VStem: 0 152<8 150>
LayerCount: 2
Fore
SplineSet
0 8 m 1
 0 150 l 1
 152 150 l 1
 152 8 l 1
 0 8 l 1
EndSplineSet
EndChar

StartChar: slash
Encoding: 47 47 14
Width: 691
VWidth: 0
Flags: HW
LayerCount: 2
Fore
SplineSet
485 828 m 1
 591 767 l 1
 106 -73 l 1
 0 -12 l 1
 485 828 l 1
EndSplineSet
EndChar

StartChar: zero
Encoding: 48 48 15
Width: 864
VWidth: 0
Flags: HW
HStem: -4 157<306.32 458.56> 622 161<306.32 458.56>
VStem: 76.5 122<281.459 495.999> 565.5 122<278.943 498.503>
LayerCount: 2
Fore
SplineSet
565.5 388 m 0
 565.5 517 484.5 622 382.5 622 c 0
 280.5 622 198.5 517 198.5 388 c 0
 198.5 258 280.5 153 382.5 153 c 0
 484.5 153 565.5 258 565.5 388 c 0
687.5 390 m 0
 687.5 172 551.5 -4 382.5 -4 c 0
 213.5 -4 76.5 172 76.5 390 c 0
 76.5 607 213.5 783 382.5 783 c 0
 551.5 783 687.5 607 687.5 390 c 0
EndSplineSet
EndChar

StartChar: one
Encoding: 49 49 16
Width: 436
VWidth: 0
Flags: HW
HStem: 8 21G<184 336> 764 20G<184 336>
VStem: 184 152<8 784>
LayerCount: 2
Fore
SplineSet
108 497 m 1
 0 604 l 1
 182 786 l 1
 184.018554688 784 l 1
 336 784 l 1
 336 8 l 1
 184 8 l 1
 184 573 l 1
 108 497 l 1
EndSplineSet
EndChar

StartChar: two
Encoding: 50 50 17
Width: 555
VWidth: 0
Flags: HW
HStem: 10 226<8.0748 194.22> 596 128.801<8.0915 184.536>
VStem: 309 153<334.465 487.36>
LayerCount: 2
Fore
SplineSet
80 596 m 0
 54.4453125 596 29.9033203125 592.599609375 7 586.325195312 c 1
 7 719.06640625 l 1
 30.62890625 722.829101562 55.0341796875 724.80078125 80 724.80078125 c 0
 291 724.80078125 462 584 462 410.400390625 c 0
 462 280.616210938 367.301757812 177.858398438 231.891601562 133.775390625 c 1
 507 136.400390625 l 1
 507 14.80078125 l 1
 4 10 l 1
 7 245.682617188 l 1
 29.9033203125 239.401367188 54.4453125 236 80 236 c 0
 207 236 309 304.80078125 309 408.80078125 c 0
 309 512 207 596 80 596 c 0
EndSplineSet
EndChar

StartChar: three
Encoding: 51 51 18
Width: 435
VWidth: 0
Flags: HW
HStem: 3.87988 122.31<0 127.642> 298.149 122.641<51.207 148.605> 592.75 122.311<6 130.704>
VStem: 184 151<169.615 264.202 454.41 549.831>
LayerCount: 2
Fore
SplineSet
0 4.9296875 m 1
 0 128.7265625 l 1
 8.326171875 127.068359375 17.0361328125 126.189453125 26 126.189453125 c 0
 114.59765625 126.189453125 184 164.260742188 184 212.049804688 c 0
 184 257.192382812 143.44921875 293.25 89.595703125 298.15234375 c 0
 85.4228515625 297.991210938 81.2236328125 297.91015625 77 297.91015625 c 0
 72.8291015625 297.91015625 68.681640625 297.990234375 64.55859375 298.149414062 c 0
 59.943359375 297.72265625 55.41796875 297.061523438 51 296.1796875 c 1
 51 298.959960938 l 1
 51 419.979492188 l 1
 51 422.756835938 l 1
 55.41796875 421.876953125 59.943359375 421.216796875 64.5576171875 420.790039062 c 0
 68.681640625 420.94921875 72.8291015625 421.030273438 77 421.030273438 c 0
 81.224609375 421.030273438 85.423828125 420.948242188 89.59765625 420.787109375 c 0
 143.450195312 425.686523438 184 461.690429688 184 506.080078125 c 0
 184 554.6796875 117.233398438 592.75 32 592.75 c 0
 23.0361328125 592.75 14.326171875 591.87109375 6 590.209960938 c 1
 6 714.009765625 l 1
 14.5537109375 714.704101562 23.2265625 715.060546875 32 715.060546875 c 0
 199.94140625 715.060546875 335 621.91015625 335 506.080078125 c 0
 335 448.852539062 306.532226562 397.0390625 260.310546875 359.418945312 c 1
 306.532226562 321.696289062 335 269.680664062 335 212.049804688 c 0
 335 97.0302734375 197.267578125 3.8798828125 26 3.8798828125 c 0
 17.2265625 3.8798828125 8.5537109375 4.2353515625 0 4.9296875 c 1
EndSplineSet
EndChar

StartChar: four
Encoding: 52 52 19
Width: 752
VWidth: 0
Flags: HW
HStem: 201.015 150<237.765 335.765> 764 20G<318.718 472.766>
VStem: 335.765 137.001<351.015 531.015> 343.764 129.002<10 202.015>
LayerCount: 2
Fore
SplineSet
335.764648438 351.014648438 m 1
 335.764648438 531.014648438 l 1
 237.764648438 354.014648438 l 1
 335.764648438 351.014648438 l 1
343.763671875 10 m 1
 343.763671875 202.014648438 l 1
 342.764648438 201.014648438 l 1
 7.7646484375 201.014648438 l 1
 329.764648438 784 l 1
 472.765625 784 l 1
 472.765625 10 l 1
 343.763671875 10 l 1
EndSplineSet
EndChar

StartChar: five
Encoding: 53 53 20
Width: 384
VWidth: 0
Flags: HW
HStem: 13 151<0 90.529> 632 152<152 317>
VStem: 0 152<481.593 632> 133 151<206.066 335.061>
LayerCount: 2
Fore
SplineSet
0 14 m 1
 0 167 l 1
 8 165 17 164 26 164 c 0
 86 164 133 211 133 270 c 0
 133 330 86 377 26 377 c 0
 17 377 8 376 0 374 c 1
 0 407 l 1
 0 527 l 1
 0 783 l 1
 1 783 l 1
 1 784 l 1
 318 784 l 1
 317 632 l 1
 152 632 l 1
 152 495 l 1
 231 451 284 367 284 270 c 0
 284 128 169 13 26 13 c 0
 17 13 9 13 0 14 c 1
EndSplineSet
EndChar

StartChar: six
Encoding: 54 54 21
Width: 729
VWidth: 0
Flags: HW
HStem: 622 161<287.002 499.858>
VStem: 0 224<261.187 334.857> 442 167<205.982 333.016>
LayerCount: 2
Fore
SplineSet
332.955078125 376.982421875 m 0
 324.642578125 377.12890625 316.393554688 375.848632812 309 374 c 1
 309 374.828125 l 1
 259.8984375 364.9453125 224 322.4375 224 270 c 0
 224 234.543945312 240.973632812 203.420898438 267.541992188 184.228515625 c 0
 277.942382812 178.08203125 288.862304688 172.750976562 300.22265625 168.317382812 c 0
 303.096679688 167.485351562 306.024414062 166.767578125 309 166.169921875 c 1
 309 167 l 1
 316.393554688 165.151367188 324.642578125 164.157226562 332.955078125 164.017578125 c 0
 341.23046875 164.163085938 349.280273438 165.234375 357 167.131835938 c 1
 357 166.169921875 l 1
 406.1015625 176.0390625 442 218.436523438 442 270 c 0
 442 322.4375 406.1015625 364.9453125 357 374.828125 c 1
 357 373.864257812 l 1
 349.280273438 375.765625 341.23046875 376.836914062 332.955078125 376.982421875 c 0
382 622 m 0
 267.669921875 622 173.6015625 536.90625 155.969726562 425.8125 c 1
 199.354492188 473.500976562 260.4609375 504.749023438 329.12890625 509.397460938 c 0
 334.006835938 509.727539062 338.66015625 509.930664062 343.451171875 509.9765625 c 0
 344.631835938 509.98828125 345.815429688 510 347 510 c 0
 347.301757812 510 347.603515625 509.999023438 347.905273438 509.998046875 c 0
 348.92578125 510 349.956054688 510 351 510 c 0
 474.041992188 510 576.35546875 424.859375 602.516601562 310 c 0
 606.759765625 291.370117188 609 271.958007812 609 252 c 0
 609 224.854492188 604.797851562 198.6953125 597 174.138671875 c 0
 577.598632812 113.034179688 535.939453125 61.8447265625 481.387695312 30.041015625 c 0
 449.198242188 7.6923828125 415.973632812 -4 382 -4 c 0
 379.5859375 -4 377.176757812 -3.9765625 374.772460938 -3.9306640625 c 0
 366.946289062 -4.638671875 359.017578125 -5 351 -5 c 0
 349.956054688 -5 348.92578125 -4.998046875 347.90625 -4.998046875 c 0
 347.604492188 -4.998046875 347.301757812 -5 347 -5 c 0
 345.815429688 -5 344.631835938 -4.9921875 343.451171875 -4.9765625 c 0
 338.662109375 -4.9130859375 334.004882812 -4.794921875 329.133789062 -4.3974609375 c 0
 275.603515625 -0.0244140625 226.633789062 19.9453125 187.079101562 50.984375 c 1
 75.05859375 119.575195312 0 245.5703125 0 390 c 0
 0 607 171 783 382 783 c 0
 406.965820312 783 477.37109375 780.536132812 501 775.83203125 c 1
 501 609.90625 l 1
 478.096679688 617.749023438 407.5546875 622 382 622 c 0
EndSplineSet
EndChar

StartChar: seven
Encoding: 55 55 22
Width: 610
VWidth: 0
Flags: HW
HStem: 620 152<0 339>
LayerCount: 2
Fore
SplineSet
163 10 m 1
 1 10 l 1
 339 620 l 1
 0 620 l 1
 0 772 l 1
 510 772 l 1
 510 620 l 1
 163 10 l 1
EndSplineSet
EndChar

StartChar: eight
Encoding: 56 56 23
Width: 616
VWidth: 0
Flags: HW
HStem: 376.983 92.0348<236.347 283.638>
VStem: 0 151<207.14 334.826 510.772 638.449> 369 151<205.844 334.826 510.772 639.753>
LayerCount: 2
Fore
SplineSet
259.037109375 13.201171875 m 0
 258.771484375 13.201171875 258.505859375 13.2001953125 258.240234375 13.2001953125 c 0
 257.197265625 13.2001953125 256.15625 13.2060546875 255.116210938 13.220703125 c 0
 250.90234375 13.2607421875 246.8046875 13.380859375 242.518554688 13.7294921875 c 0
 124.077148438 21.744140625 31.2001953125 119.6484375 31.2001953125 239.359375 c 0
 31.2001953125 289.814453125 47.4677734375 336.307617188 75.0703125 373.905273438 c 1
 47.4677734375 411.375976562 31.2001953125 457.659179688 31.2001953125 507.759765625 c 0
 31.2001953125 628.3125 124.075195312 726.250976562 242.513671875 734.26953125 c 0
 246.801757812 734.619140625 250.901367188 734.73828125 255.116210938 734.779296875 c 0
 256.15625 734.793945312 257.197265625 734.799804688 258.240234375 734.799804688 c 0
 258.505859375 734.799804688 258.771484375 734.798828125 259.036132812 734.797851562 c 0
 259.934570312 734.799804688 260.840820312 734.799804688 261.759765625 734.799804688 c 0
 387.599609375 734.799804688 488.799804688 633.599609375 488.799804688 507.759765625 c 0
 488.799804688 457.659179688 472.532226562 411.375976562 444.9296875 373.905273438 c 1
 472.532226562 336.307617188 488.799804688 289.814453125 488.799804688 239.359375 c 0
 488.799804688 114.400390625 387.599609375 13.2001953125 261.759765625 13.2001953125 c 0
 260.840820312 13.2001953125 259.934570312 13.201171875 259.037109375 13.201171875 c 0
259.959960938 601.904296875 m 0
 252.64453125 601.78125 245.38671875 600.907226562 238.879882812 599.279296875 c 1
 238.879882812 600.008789062 l 1
 195.669921875 591.3125 164.080078125 553.904296875 164.080078125 507.759765625 c 0
 164.080078125 462.384765625 195.669921875 425.075195312 238.879882812 416.389648438 c 1
 238.879882812 417.120117188 l 1
 245.38671875 415.493164062 252.64453125 414.618164062 259.959960938 414.49609375 c 0
 267.2421875 414.624023438 274.327148438 415.565429688 281.120117188 417.236328125 c 1
 281.120117188 416.389648438 l 1
 324.330078125 425.075195312 355.919921875 462.384765625 355.919921875 507.759765625 c 0
 355.919921875 553.904296875 324.330078125 591.3125 281.120117188 600.008789062 c 1
 281.120117188 599.16015625 l 1
 274.327148438 600.833984375 267.2421875 601.776367188 259.959960938 601.904296875 c 0
259.959960938 333.504882812 m 0
 252.64453125 333.381835938 245.38671875 332.505859375 238.879882812 330.879882812 c 1
 238.879882812 331.609375 l 1
 195.669921875 322.912109375 164.080078125 285.504882812 164.080078125 239.359375 c 0
 164.080078125 193.984375 195.669921875 156.673828125 238.879882812 147.990234375 c 1
 238.879882812 148.720703125 l 1
 245.38671875 147.09375 252.64453125 146.21875 259.959960938 146.094726562 c 0
 267.243164062 146.223632812 274.327148438 147.166015625 281.120117188 148.8359375 c 1
 281.120117188 147.990234375 l 1
 324.330078125 156.673828125 355.919921875 193.984375 355.919921875 239.359375 c 0
 355.919921875 285.504882812 324.330078125 322.912109375 281.120117188 331.609375 c 1
 281.120117188 330.760742188 l 1
 274.327148438 332.434570312 267.243164062 333.375976562 259.959960938 333.504882812 c 0
EndSplineSet
EndChar

StartChar: nine
Encoding: 57 57 24
Width: 729
VWidth: 0
Flags: HW
HStem: -5 161<109.125 322.237> 763 20G<253.991 258.522 261.849 262.592>
VStem: 0 167<444.984 572.018> 385 224<279.5 518.141>
LayerCount: 2
Fore
SplineSet
276.044921875 401.017578125 m 0
 284.357421875 400.87109375 292.606445312 402.151367188 300 404 c 1
 300 403.171875 l 1
 349.1015625 413.0546875 385 455.5625 385 508 c 0
 385 543.456054688 368.026367188 574.579101562 341.458007812 593.771484375 c 0
 331.057617188 599.91796875 320.137695312 605.249023438 308.77734375 609.682617188 c 0
 305.903320312 610.514648438 302.975585938 611.232421875 300 611.830078125 c 1
 300 611 l 1
 292.606445312 612.848632812 284.357421875 613.842773438 276.044921875 613.982421875 c 0
 267.76953125 613.836914062 259.719726562 612.765625 252 610.868164062 c 1
 252 611.830078125 l 1
 202.8984375 601.9609375 167 559.563476562 167 508 c 0
 167 455.5625 202.8984375 413.0546875 252 403.171875 c 1
 252 404.135742188 l 1
 259.719726562 402.234375 267.76953125 401.163085938 276.044921875 401.017578125 c 0
227 156 m 0
 341.330078125 156 435.3984375 241.09375 453.030273438 352.1875 c 1
 409.645507812 304.499023438 348.5390625 273.250976562 279.87109375 268.602539062 c 0
 274.993164062 268.272460938 270.33984375 268.069335938 265.548828125 268.0234375 c 0
 264.368164062 268.01171875 263.184570312 268 262 268 c 0
 261.698242188 268 261.396484375 268.000976562 261.094726562 268.001953125 c 0
 260.07421875 268 259.043945312 268 258 268 c 0
 134.958007812 268 32.64453125 353.140625 6.4833984375 468 c 0
 2.240234375 486.629882812 0 506.041992188 0 526 c 0
 0 553.145507812 4.2021484375 579.3046875 12 603.861328125 c 0
 31.4013671875 664.965820312 73.060546875 716.155273438 127.612304688 747.958984375 c 0
 159.801757812 770.307617188 193.026367188 782 227 782 c 0
 229.4140625 782 231.823242188 781.9765625 234.227539062 781.930664062 c 0
 242.053710938 782.638671875 249.982421875 783 258 783 c 0
 259.043945312 783 260.07421875 782.998046875 261.09375 782.998046875 c 0
 261.395507812 782.998046875 261.698242188 783 262 783 c 0
 263.184570312 783 264.368164062 782.9921875 265.548828125 782.9765625 c 0
 270.337890625 782.913085938 274.995117188 782.794921875 279.866210938 782.397460938 c 0
 333.396484375 778.024414062 382.366210938 758.0546875 421.920898438 727.015625 c 1
 533.94140625 658.424804688 609 532.4296875 609 388 c 0
 609 171 438 -5 227 -5 c 0
 202.034179688 -5 131.62890625 -2.5361328125 108 2.16796875 c 1
 108 168.09375 l 1
 130.903320312 160.250976562 201.4453125 156 227 156 c 0
EndSplineSet
EndChar

StartChar: colon
Encoding: 58 58 25
Width: 252
VWidth: 0
Flags: HW
HStem: 8 142<0 152> 408 142<0 152>
VStem: 0 152<8 150 408 550>
LayerCount: 2
Fore
SplineSet
0 8 m 1
 0 150 l 1
 152 150 l 1
 152 8 l 1
 0 8 l 1
0 408 m 1
 0 550 l 1
 152 550 l 1
 152 408 l 1
 0 408 l 1
EndSplineSet
EndChar

StartChar: semicolon
Encoding: 59 59 26
Width: 252
VWidth: 0
Flags: HW
HStem: 408 142<0 152>
VStem: 0 152<8 150 408 550>
LayerCount: 2
Fore
SplineSet
0 408 m 1
 0 550 l 1
 152 550 l 1
 152 408 l 1
 0 408 l 1
0 8 m 1
 0 150 l 1
 152 150 l 1
 152 8 l 1
 92 -124 l 1
 34 -120 l 1
 42.767578125 8 l 1
 0 8 l 1
EndSplineSet
EndChar

StartChar: less
Encoding: 60 60 27
Width: 644
VWidth: 0
Flags: HW
LayerCount: 2
Fore
SplineSet
544 556 m 1
 544 404 l 1
 329.895507812 347.71875 l 1
 544 306 l 1
 544 154 l 1
 0 260 l 1
 0 261 l 1
 0 412 l 1
 0 413 l 1
 544 556 l 1
EndSplineSet
EndChar

StartChar: equal
Encoding: 61 61 28
Width: 644
VWidth: 0
Flags: HW
HStem: 154 152<0 544> 404 152<0 544>
LayerCount: 2
Fore
SplineSet
544 556 m 1
 544 404 l 1
 0 404 l 1
 0 556 l 1
 544 556 l 1
544 306 m 1
 544 154 l 1
 0 154 l 1
 0 306 l 1
 544 306 l 1
EndSplineSet
EndChar

StartChar: greater
Encoding: 62 62 29
Width: 644
VWidth: 0
Flags: HW
LayerCount: 2
Fore
SplineSet
0 556 m 1
 544 413 l 1
 544 412 l 1
 544 261 l 1
 544 260 l 1
 0 154 l 1
 0 306 l 1
 214 348 l 1
 0 404 l 1
 0 556 l 1
EndSplineSet
EndChar

StartChar: question
Encoding: 63 63 30
Width: 384
VWidth: 0
Flags: HW
HStem: 8 142<0 152> 240 238<0 94.438> 688 151<0 90.529>
VStem: 0 152<8 150 240 369.991> 133 151<518.983 645.934>
LayerCount: 2
Fore
SplineSet
0 838 m 1
 9 839 17 839 26 839 c 0
 169 839 284 724 284 582 c 0
 284 484.831054688 230.901367188 400.58984375 152 356.573242188 c 1
 152 240 l 1
 0 240 l 1
 0 325 l 1
 0 450 l 1
 0 478 l 1
 8 476 17 475 26 475 c 0
 86 475 133 522 133 582 c 0
 133 641 86 688 26 688 c 0
 17 688 8 687 0 685 c 1
 0 838 l 1
0 8 m 1
 0 150 l 1
 152 150 l 1
 152 8 l 1
 0 8 l 1
EndSplineSet
EndChar

StartChar: at
Encoding: 64 64 31
Width: 864
VWidth: 0
Flags: HW
HStem: 249 75<381.227 423> 431 71<381.227 435>
VStem: 293 76<335.505 419.715> 435 83.0107<325.318 431> 435 76<328.62 431>
LayerCount: 2
Fore
SplineSet
511 246 m 1025xe8
474 176 m 1025xe0
437 238 m 1
 423 249 l 1
 351 249 293 306 293 378 c 0
 293 449 351 502 423 502 c 0
 427 502 431 502 435 502 c 2
 511 502 l 1
 518.010742188 328.353515625 l 2
 522.831054688 297.021484375 603.69921875 229.975585938 612 336 c 0
 611.986328125 337.467773438 607.7578125 350.56640625 608 352 c 0
 620 423 599 497 545 551 c 0
 455 641 309 638 218 547 c 0
 126 455 124 309 214 219 c 0
 284 149 388 135 474 176 c 0
 498 187 587 64 587 64 c 1
 435 -36 233 -22 103 108 c 0
 -46 257 -43 503 111 657 c 0
 264 810 510 814 659 665 c 0
 773 551 800 372 737 230 c 1
 629.654296875 167.57421875 534.088867188 209.5390625 437 238 c 1
435 430 m 1
 431 431 427 431 423 431 c 0
 393 431 369 408 369 378 c 0
 369 348 393 324 423 324 c 0
 427 324 431 325 435 326 c 1
 435 430 l 1
EndSplineSet
EndChar

StartChar: A
Encoding: 65 65 32
Width: 752
VWidth: 0
Flags: HW
HStem: 237 140<247.449 356.827>
LayerCount: 2
Fore
SplineSet
356.827148438 377 m 1
 307.200195312 545.223632812 l 1
 247.448242188 377 l 1
 356.827148438 377 l 1
500 10 m 1
 411 238.13671875 l 1
 411 237 l 1
 211.038085938 237 l 1
 152 10 l 1
 0 10 l 1
 216 779 l 1
 368 779 l 1
 652 10 l 1
 500 10 l 1
EndSplineSet
EndChar

StartChar: B
Encoding: 66 66 33
Width: 512
VWidth: 0
Flags: HW
HStem: 14 129<152.375 240.409> 356 105<152.375 240.409> 674 116<152.375 240.409>
VStem: 0 152<143.026 355.974 461.026 673.974 789.664 790> 283 151<186.465 313.767 502.806 620.788>
LayerCount: 2
Fore
SplineSet
152 464 m 1
 160 462 168 461 176 461 c 0
 236 461 283 508 283 567 c 0
 283 627 236 674 176 674 c 0
 168 674 160 673 152 671 c 1
 152 464 l 1
152 146 m 1
 160 144 168 143 176 143 c 0
 236 143 283 190 283 249 c 0
 283 309 236 356 176 356 c 0
 168 356 160 355 152 353 c 1
 152 146 l 1
152 790 m 1
 152 789.6640625 l 1
 157.96484375 790 163.740234375 790 170 790 c 0
 313 790 428 675 428 532 c 0
 428 481.500976562 370 439 345 406 c 1
 374 371 434 324.768554688 434 270 c 0
 434 128 319 13 176 13 c 0
 168 13 160 13 152 14 c 2
 0 14 l 1
 0 790 l 1
 152 790 l 1
EndSplineSet
EndChar

StartChar: C
Encoding: 67 67 34
Width: 555
VWidth: 0
Flags: HW
HStem: -4 157<287.027 453.909> 622 161<287.027 453.909>
VStem: 0 153<291.299 486.2>
LayerCount: 2
Fore
SplineSet
382 622 m 0
 255 622 153 517 153 388 c 0
 153 258 255 153 382 153 c 0
 407.5546875 153 432.096679688 157.250976562 455 165.102539062 c 1
 455 3.169921875 l 1
 431.37109375 -1.5361328125 406.965820312 -4 382 -4 c 0
 171 -4 0 172 0 390 c 0
 0 607 171 783 382 783 c 0
 406.965820312 783 431.37109375 780.536132812 455 775.83203125 c 1
 455 609.90625 l 1
 432.096679688 617.749023438 407.5546875 622 382 622 c 0
EndSplineSet
EndChar

StartChar: D
Encoding: 68 68 35
Width: 630
VWidth: 0
Flags: HW
HStem: -3.9789 157.014<152 237.489> 621.965 161.035<152 243.477>
VStem: 0 152<-4 -3.9789 153.035 621.965> 377 153<292.064 485.736>
LayerCount: 2
Fore
SplineSet
152 153.03515625 m 1
 277.134765625 155.211914062 377 259.368164062 377 388 c 0
 377 515.642578125 277.134765625 619.788085938 152 621.96484375 c 1
 152 153.03515625 l 1
0 778 m 1
 49.62109375 770.911132812 98.3828125 783 148 783 c 0
 359 783 530 607 530 390 c 0
 530 173.37890625 361.157226562 -1.771484375 152 -3.978515625 c 2
 0 -4 l 1
 0 778 l 1
EndSplineSet
EndChar

StartChar: E
Encoding: 69 69 36
Width: 668
VWidth: 0
Flags: HW
HStem: 7 152<152 567> 343 152<152 459> 636 152<152 567>
VStem: 0 568<7 159 636 788> 0 152<159 343 495 636>
LayerCount: 2
Fore
SplineSet
459 495 m 1
 460 343 l 1
 152 343 l 1
 152 159 l 1
 567 159 l 1
 568 7 l 1
 1 7 l 1
 0.9931640625 8 l 1
 0 8 l 1
 0 784 l 1
 0.0263671875 784 l 1
 0 788 l 1
 567 788 l 1
 568 636 l 1
 152 636 l 1
 152 495 l 1
 459 495 l 1
EndSplineSet
EndChar

StartChar: F
Encoding: 70 70 37
Width: 668
VWidth: 0
Flags: HW
HStem: 8 21G<0 152> 343 152<152 459> 636 152<152 567>
VStem: 0 152<8 343 495 636>
LayerCount: 2
Fore
SplineSet
459 495 m 1
 460 343 l 1
 152 343 l 1
 152 8 l 1
 0 8 l 1
 0 784 l 1
 0.0263671875 784 l 1
 0 788 l 1
 567 788 l 1
 568 636 l 1
 152 636 l 1
 152 495 l 1
 459 495 l 1
EndSplineSet
EndChar

StartChar: G
Encoding: 71 71 38
Width: 651
VWidth: 0
Flags: HW
HStem: -4 157<287.532 399> 622 161<287.027 453.909>
VStem: 0 153<291.299 486.2> 399 152<-4 -3.6178 153 323>
LayerCount: 2
Fore
SplineSet
382 622 m 0
 255 622 153 517 153 388 c 0
 153 258 255 153 382 153 c 0
 387.719726562 153 393.388671875 153.212890625 399 153.631835938 c 1
 399 323 l 1
 551 323 l 1
 551 -4 l 1
 399 -4 l 1
 399 -3.6181640625 l 1
 393.364257812 -3.8720703125 387.696289062 -4 382 -4 c 0
 171 -4 0 172 0 390 c 0
 0 607 171 783 382 783 c 0
 406.965820312 783 431.37109375 780.536132812 455 775.83203125 c 1
 455 609.90625 l 1
 432.096679688 617.749023438 407.5546875 622 382 622 c 0
EndSplineSet
EndChar

StartChar: H
Encoding: 72 72 39
Width: 652
VWidth: 0
Flags: HW
HStem: 8 21G<0 152 400 552> 343 152<152 400> 764 20G<0 152 400 552>
VStem: 0 152<8 343 495 784> 400 152<8 343 495 784>
LayerCount: 2
Fore
SplineSet
400 784 m 1
 552 784 l 1
 552 8 l 1
 400 8 l 1
 400 343 l 1
 152 343 l 1
 152 8 l 1
 0 8 l 1
 0 784 l 1
 152 784 l 1
 152 495 l 1
 400 495 l 1
 400 784 l 1
EndSplineSet
EndChar

StartChar: I
Encoding: 73 73 40
Width: 252
VWidth: 0
Flags: HW
HStem: 8 21G<0 152> 764 20G<0 152>
VStem: 0 152<8 784>
LayerCount: 2
Fore
SplineSet
0 784 m 1
 152 784 l 1
 152 8 l 1
 0 8 l 1
 0 784 l 1
EndSplineSet
EndChar

StartChar: J
Encoding: 74 74 41
Width: 419
VWidth: 0
Flags: HW
HStem: 7 151<5.4451 135.159> 751 20G<152 319>
VStem: 152 164<178.881 771>
LayerCount: 2
Fore
SplineSet
0 16 m 1
 0 184 l 1
 19 168 44 158 71 158 c 0
 104 158 132 172 152 195 c 1
 152 771 l 1
 319 771 l 1
 316 194 l 1
 285 85 189 7 71 7 c 0
 46 7 23 10 0 16 c 1
EndSplineSet
EndChar

StartChar: K
Encoding: 75 75 42
Width: 703
VWidth: 0
Flags: HW
HStem: 8 20G<0 152 461 636.026> 764 20G<0 152>
VStem: 0 152<8 228.505 442.895 784>
LayerCount: 2
Fore
SplineSet
0 784 m 1
 152 784 l 1
 152 442.89453125 l 1
 397 780 l 1
 583 778 l 1
 322 397 l 1
 653 7 l 1
 461 8 l 1
 209.208007812 311.887695312 l 1
 152 228.504882812 l 1
 152 8 l 1
 0 8 l 1
 0 784 l 1
EndSplineSet
EndChar

StartChar: L
Encoding: 76 76 43
Width: 718
VWidth: 0
Flags: HW
HStem: 7 152<152 617> 764 20G<0 152>
VStem: 0 152<159 784>
LayerCount: 2
Fore
SplineSet
0 784 m 1
 152 784 l 1
 152 159 l 1
 617 159 l 1
 618 7 l 1
 1 7 l 1
 0.9931640625 8 l 1
 0 8 l 1
 0 784 l 1
EndSplineSet
EndChar

StartChar: M
Encoding: 77 77 44
Width: 1052
VWidth: 0
Flags: HW
HStem: 8 21G<0 152 800 952>
VStem: 0 152<8 486.16> 800 152<8 486.16>
LayerCount: 2
Fore
SplineSet
0 778 m 1
 152 778 l 1
 476 155.919921875 l 1
 800 778 l 1
 952 778 l 1
 952 8 l 1
 800 8 l 1
 800 486.16015625 l 1
 552 10 l 1
 400 10 l 1
 152 486.16015625 l 1
 152 8 l 1
 0 8 l 1
 0 778 l 1
EndSplineSet
EndChar

StartChar: N
Encoding: 78 78 45
Width: 852
VWidth: 0
Flags: HW
HStem: 8 21G<0 152 582.937 752> 764 20G<0 169.116 600 752>
VStem: 0 152<8 533.101> 600 152<260.522 784>
LayerCount: 2
Fore
SplineSet
0 784 m 1
 152 784 l 1
 600 260.521484375 l 1
 600 784 l 1
 752 784 l 1
 752 8 l 1
 600 8 l 1
 152 533.1015625 l 1
 152 8 l 1
 0 8 l 1
 0 784 l 1
EndSplineSet
EndChar

StartChar: O
Encoding: 79 79 46
Width: 864
VWidth: 0
Flags: HW
HStem: -4 157<287.027 476.973> 622 161<287.027 476.973>
VStem: 0 153<288.712 488.774> 611 153<288.712 488.774>
LayerCount: 2
Fore
SplineSet
611 388 m 0
 611 517 509 622 382 622 c 0
 255 622 153 517 153 388 c 0
 153 258 255 153 382 153 c 0
 509 153 611 258 611 388 c 0
764 390 m 0
 764 172 593 -4 382 -4 c 0
 171 -4 0 172 0 390 c 0
 0 607 171 783 382 783 c 0
 593 783 764 607 764 390 c 0
EndSplineSet
EndChar

StartChar: P
Encoding: 80 80 47
Width: 534
VWidth: 0
Flags: HW
HStem: 275 151<152 240.529> 639 150<152.375 240.409>
VStem: 0 152<13 276 426.026 638.974> 283 151<468.471 596.934>
LayerCount: 2
Fore
SplineSet
152 636 m 1
 152 429 l 1
 160 427 168 426 176 426 c 0
 236 426 283 473 283 533 c 0
 283 592 236 639 176 639 c 0
 168 639 160 638 152 636 c 1
152 13 m 1
 0 13 l 1
 0 789 l 1
 152 789 l 2
 160 790 168 790 176 790 c 0
 319 790 434 675 434 533 c 0
 434 390 319 275 176 275 c 0
 168 275 160 275 152 276 c 1
 152 13 l 1
EndSplineSet
EndChar

StartChar: Q
Encoding: 81 81 48
Width: 864
VWidth: 0
Flags: HW
HStem: -4 157<287.027 463.045> 622 161<287.027 476.973>
VStem: 0 153<291.299 486.2> 611 153<290.102 486.2>
LayerCount: 2
Fore
SplineSet
764 390 m 0
 764 272.352539062 714.198242188 166.9375 635.18359375 94.81640625 c 1
 772 -42 l 1
 634 -181 l 1
 450.666015625 2.333984375 l 1
 428.390625 -1.8271484375 405.442382812 -4 382 -4 c 0
 171 -4 0 172 0 390 c 0
 0 607 171 783 382 783 c 0
 593 783 764 607 764 390 c 0
611 388 m 0
 611 517 509 622 382 622 c 0
 255 622 153 517 153 388 c 0
 153 258 255 153 382 153 c 0
 509 153 611 258 611 388 c 0
EndSplineSet
EndChar

StartChar: R
Encoding: 82 82 49
Width: 512
VWidth: 0
Flags: HW
HStem: 7 21G<309.703 462> 639 150<152.375 240.409>
VStem: 0 152<13 276 426.026 638.974> 283 151<470.25 596.934>
LayerCount: 2
Fore
SplineSet
152 13 m 1
 0 13 l 1
 0 789 l 1
 152 789 l 2
 160 790 168 790 176 790 c 0
 319 790 434 675 434 533 c 0
 434 420.658203125 363.024414062 325.596679688 263.254882812 290 c 1
 462 7 l 1
 322 7 l 1
 156.913085938 275.502929688 l 2
 155.275390625 275.6328125 153.637695312 275.794921875 152 276 c 1
 152 13 l 1
152 636 m 1
 152 429 l 1
 160 427 168 426 176 426 c 0
 236 426 283 473 283 533 c 0
 283 592 236 639 176 639 c 0
 168 639 160 638 152 636 c 1
EndSplineSet
EndChar

StartChar: S
Encoding: 83 83 50
Width: 512
VWidth: 0
Flags: HW
LayerCount: 2
Fore
SplineSet
5 67 m 1
 80 192 l 1
 86 187 92 182 102 177 c 0
 153 147 217 164 247 212 c 0
 279 268 229 316 177 325 c 1
 51 393 -33 508 51 649 c 0
 121 765 278 804 403 737 c 0
 409 731 417 728 424 722 c 1
 349 597 l 1
 343 602 337 607 327 612 c 0
 276 640 212 624 182 575 c 0
 149 520 182 439 246 428 c 1
 363 365 462 280 377 140 c 0
 308 23 151 -16 26 52 c 0
 20 58 12 61 5 67 c 1
EndSplineSet
EndChar

StartChar: T
Encoding: 84 84 51
Width: 676
VWidth: 0
Flags: HW
HStem: 8 21G<215 367> 624 152<3 215 367 579>
VStem: 215 152<8 624>
LayerCount: 2
Fore
SplineSet
3 624 m 1
 3 776 l 1
 579 776 l 1
 579 624 l 1
 367 624 l 1
 367 8 l 1
 215 8 l 1
 215 624 l 1
 3 624 l 1
EndSplineSet
EndChar

StartChar: U
Encoding: 85 85 52
Width: 669
VWidth: 0
Flags: HW
HStem: 751 20G<0 167 402 569>
VStem: 3 164<182.77 771> 402 164<182.95 771>
LayerCount: 2
Fore
SplineSet
566 194 m 1
 497.931640625 -45.4130859375 72.236328125 -49.4453125 3 194 c 1
 0 771 l 1
 167 771 l 1
 167 195 l 1
 205.237304688 151.02734375 364.430664062 149.916992188 402 195 c 1
 402 771 l 1
 569 771 l 1
 566 194 l 1
EndSplineSet
EndChar

StartChar: V
Encoding: 86 86 53
Width: 652
VWidth: 0
Flags: HW
LayerCount: 2
Fore
SplineSet
0 779 m 1
 152 779 l 1
 276 302.219726562 l 1
 400 779 l 1
 552 779 l 1
 352 10 l 1
 200 10 l 1
 0 779 l 1
EndSplineSet
EndChar

StartChar: W
Encoding: 87 87 54
Width: 1000
VWidth: 0
Flags: HW
LayerCount: 2
Fore
SplineSet
0 779 m 1
 152 779 l 1
 276 302.219726562 l 1
 400 779 l 1
 401 779 l 1
 552 779 l 1
 553 779 l 1
 677 302 l 1
 801 779 l 1
 953 779 l 1
 753 10 l 1
 601 10 l 1
 476.5 488.702148438 l 1
 352 10 l 1
 200 10 l 1
 0 779 l 1
EndSplineSet
EndChar

StartChar: X
Encoding: 88 88 55
Width: 724
VWidth: 0
Flags: HW
HStem: 9 20G<12.6104 179 437.368 624>
LayerCount: 2
Fore
SplineSet
0 780 m 1
 186 778 l 1
 315.55078125 550.842773438 l 1
 448 779 l 1
 623 778 l 1
 402.728515625 397.982421875 l 1
 624 10 l 1
 449 8 l 1
 312.609375 242.506835938 l 1
 179 12 l 1
 1 9 l 1
 224.5 394 l 1
 0 780 l 1
EndSplineSet
EndChar

StartChar: Y
Encoding: 89 89 56
Width: 512
VWidth: 0
Flags: HW
VStem: 143 152<11 460>
LayerCount: 2
Fore
SplineSet
143 461 m 1
 143.365234375 461 l 1
 -56 775 l 1
 96 775 l 1
 220 604 l 1
 344 775 l 1
 496 775 l 1
 296 460 l 1
 295 460 l 1
 295 11 l 1
 143 11 l 1
 143 461 l 1
EndSplineSet
EndChar

StartChar: Z
Encoding: 90 90 57
Width: 783
VWidth: 0
Flags: HW
HStem: 20 152<251 683> 620 152<0 430>
LayerCount: 2
Fore
SplineSet
0 20 m 1
 0 172 l 1
 430 620 l 1
 0 620 l 1
 0 772 l 1
 683 772 l 1
 683 620 l 1
 251 172 l 1
 683 172 l 1
 683 20 l 1
 0 20 l 1
EndSplineSet
EndChar

StartChar: bracketleft
Encoding: 91 91 58
Width: 362
VWidth: 0
Flags: HW
HStem: -70 85<94 261> 699 85<94 261>
VStem: 0 262<-70 15 699 784> 0 94<15 699>
LayerCount: 2
Fore
SplineSet
1 -70 m 1
 0 -70 l 1
 0 -69 l 1
 0 783 l 1
 0 784 l 1
 1 784 l 1
 262 784 l 1
 261 699 l 1
 94 699 l 1
 94 15 l 1
 261 15 l 1
 262 -70 l 1
 1 -70 l 1
EndSplineSet
EndChar

StartChar: backslash
Encoding: 92 92 59
Width: 691
VWidth: 0
Flags: HW
LayerCount: 2
Fore
SplineSet
106 828 m 1
 591 -12 l 1
 485 -73 l 1
 0 767 l 1
 106 828 l 1
EndSplineSet
EndChar

StartChar: bracketright
Encoding: 93 93 60
Width: 362
VWidth: 0
Flags: HW
HStem: -71 85<1 168> 699 85<1 168>
VStem: 0 262<-71 14 699 784> 168 94<14 699>
LayerCount: 2
Fore
SplineSet
261 -71 m 1
 0 -71 l 1
 1 14 l 1
 168 14 l 1
 168 699 l 1
 1 699 l 1
 0 784 l 1
 261 784 l 1
 262 784 l 1
 262 783 l 1
 262 -70 l 1
 262 -71 l 1
 261 -71 l 1
EndSplineSet
EndChar

StartChar: asciicircum
Encoding: 94 94 61
Width: 644
VWidth: 0
Flags: HW
LayerCount: 2
Fore
SplineSet
71 293 m 1
 214 627 l 1
 215 627 l 1
 366 627 l 1
 367 627 l 1
 473 293 l 1
 321 293 l 1
 279 507 l 1
 223 293 l 1
 71 293 l 1
EndSplineSet
EndChar

StartChar: underscore
Encoding: 95 95 62
Width: 544
VWidth: 0
Flags: HW
HStem: 54 152<-50 494>
LayerCount: 2
Fore
SplineSet
494 206 m 1
 494 54 l 1
 -50 54 l 1
 -50 206 l 1
 494 206 l 1
EndSplineSet
EndChar

StartChar: grave
Encoding: 96 96 63
Width: 252
VWidth: 0
Flags: HW
HStem: 526 289
VStem: -69 290
LayerCount: 2
Fore
SplineSet
113 526 m 1
 -69 708 l 1
 39 815 l 1
 221 633 l 1
 113 526 l 1
EndSplineSet
EndChar

StartChar: a
Encoding: 97 97 64
Width: 512
VWidth: 0
Flags: HW
HStem: 18 151<193.471 282> 382 143<193.351 281.625>
VStem: 0 151<211.471 339.671> 282 152<11 19 169.012 381.988>
LayerCount: 2
Fore
SplineSet
282 379 m 1
 274 381 266 382 258 382 c 0
 198 382 151 335 151 276 c 0
 151 216 198 169 258 169 c 0
 266 169 274 170 282 172 c 1
 282 379 l 1
282 11 m 1
 282 19 l 1
 274 18 266 18 258 18 c 0
 115 18 0 133 0 276 c 0
 0 418 115 525 258 525 c 0
 266 525 274 525 282 524 c 2
 434 524 l 1
 434 11 l 1
 282 11 l 1
EndSplineSet
EndChar

StartChar: b
Encoding: 98 98 65
Width: 512
VWidth: 0
Flags: HW
HStem: 14 150<152.375 240.649> 377 151<152 240.529>
VStem: 0 152<164.012 376.988 527 790> 283 151<206.066 334.529>
LayerCount: 2
Fore
SplineSet
152 167 m 1
 160 165 168 164 176 164 c 0
 236 164 283 211 283 270 c 0
 283 330 236 377 176 377 c 0
 168 377 160 376 152 374 c 1
 152 167 l 1
152 790 m 1
 152 527 l 1
 160 528 168 528 176 528 c 0
 319 528 434 413 434 270 c 0
 434 128 319 13 176 13 c 0
 168 13 160 13 152 14 c 2
 0 14 l 1
 0 790 l 1
 152 790 l 1
EndSplineSet
EndChar

StartChar: c
Encoding: 99 99 66
Width: 384
VWidth: 0
Flags: HW
HStem: 13 151<193.471 284> 377 151<193.471 284>
VStem: 0 151<206.066 334.529>
LayerCount: 2
Fore
SplineSet
284 14.2958984375 m 1
 275.446289062 13.4384765625 266.7734375 13 258 13 c 0
 115 13 0 128 0 270 c 0
 0 413 115 528 258 528 c 0
 266.7734375 528 275.446289062 527.560546875 284 526.704101562 c 1
 284 373.864257812 l 1
 275.673828125 375.915039062 266.963867188 377 258 377 c 0
 198 377 151 330 151 270 c 0
 151 211 198 164 258 164 c 0
 266.963867188 164 275.673828125 165.084960938 284 167.131835938 c 1
 284 14.2958984375 l 1
EndSplineSet
EndChar

StartChar: d
Encoding: 100 100 67
Width: 512
VWidth: 0
Flags: HW
HStem: 13 151<192.454 282> 377 151<193.471 282>
VStem: 0 151<206.066 334.529> 282 152<14 14.1035 164.011 376.989 526.896 790>
LayerCount: 2
Fore
SplineSet
282 166.66015625 m 1
 282 374.336914062 l 1
 274.282226562 376.081054688 266.249023438 377 258 377 c 0
 198 377 151 330 151 270 c 0
 151 211 198 164 258 164 c 0
 266.249023438 164 274.282226562 164.918945312 282 166.66015625 c 1
282 790 m 1
 434 790 l 1
 434 14 l 1
 282 14 l 1
 282 14.103515625 l 1
 274.095703125 13.373046875 266.08984375 13 258 13 c 0
 115 13 0 128 0 270 c 0
 0 413 115 528 258 528 c 0
 266.08984375 528 274.095703125 527.626953125 282 526.896484375 c 1
 282 790 l 1
EndSplineSet
EndChar

StartChar: e
Encoding: 101 101 68
Width: 617
VWidth: 0
Flags: HW
HStem: 13 151<193.073 506.239> 215.32 128.941<180.301 337.264> 377 151<192.682 322.767>
VStem: 0 517<218.188 340.811>
LayerCount: 2
Fore
SplineSet
160.680664062 306.67578125 m 1
 356.883789062 304.1015625 l 1
 332.395507812 330.966796875 297.046875 385.099609375 257.8046875 385.099609375 c 0
 219.188476562 385.099609375 184.879882812 332.025390625 160.680664062 306.67578125 c 1
516 270 m 0
 516 251.328125 517 233 517 218 c 1
 165.985351562 215.3203125 l 1
 184.489257812 184.45703125 218.416015625 164 258 164 c 0
 272.516601562 164 494 167 507 172 c 1
 507 16 l 1
 494 14 271.946289062 13 258 13 c 0
 115 13 0 128 0 270 c 0
 0 413 115 528 258 528 c 0
 400 528 516 413 516 270 c 0
EndSplineSet
EndChar

StartChar: f
Encoding: 102 102 69
Width: 512
VWidth: 0
Flags: HW
HStem: 7 21G<95 262> 369 152<0 96.882 262 359> 620 151<278.841 408.555>
VStem: 95 167<7 369 521 599.119>
LayerCount: 2
Fore
SplineSet
414 762 m 1
 414 594 l 1
 395 610 370 620 343 620 c 0
 310 620 282 606 262 583 c 1
 262 521 l 1
 359 521 l 1
 359 369 l 1
 262 369 l 1
 262 7 l 1
 95 7 l 1
 96.8818359375 369 l 1
 0 369 l 1
 0 521 l 1
 97.6728515625 521 l 1
 98 584 l 1
 129 693 225 771 343 771 c 0
 368 771 391 768 414 762 c 1
EndSplineSet
EndChar

StartChar: g
Encoding: 103 103 70
Width: 620
VWidth: 0
Flags: HW
HStem: -195 151<79.297 349.488> 508 20G<257.408 258.151 261.478 333.333>
VStem: 0 151<207.15 333.449> 369 151<-23.1189 35.9655 205.937 334.857>
LayerCount: 2
Fore
SplineSet
258.90625 13.001953125 m 0
 258.603515625 13.001953125 258.301757812 13 258 13 c 0
 256.815429688 13 255.631835938 13.0078125 254.451171875 13.0234375 c 0
 253.723632812 13.0302734375 252.28515625 13.03515625 250.349609375 13.041015625 c 0
 239.5390625 13.0732421875 213.241210938 13.1513671875 209 14 c 0
 75 23 0 133.96484375 0 270 c 0
 0 406.991210938 105.5390625 518.286132812 240.12890625 527.397460938 c 0
 245.001953125 527.794921875 249.66015625 527.930664062 254.451171875 527.9765625 c 0
 255.631835938 527.9921875 256.815429688 528 258 528 c 0
 258.301757812 528 258.603515625 527.999023438 258.905273438 527.998046875 c 0
 259.92578125 528 260.956054688 528 262 528 c 0
 404.666015625 528 519.463867188 413.536132812 519.998046875 271 c 2
 519.999023438 270.868164062 l 2
 520 270.579101562 520 270.290039062 520 270 c 0
 520 267.823242188 519.97265625 265.65234375 519.918945312 263.48828125 c 2
 517 -8 l 1
 486 -117 393 -195 275 -195 c 0
 250 -195 93 -192 70 -186 c 1
 70 -18 l 1
 89 -34 248 -44 275 -44 c 0
 308 -44 349 -30 369 -7 c 1
 369 35.9658203125 l 1
 336.44140625 21.21484375 300.220703125 13 262 13 c 0
 260.956054688 13 259.92578125 13.001953125 258.90625 13.001953125 c 0
259.955078125 376.982421875 m 0
 251.641601562 376.842773438 243.393554688 375.848632812 236 374 c 1
 236 374.828125 l 1
 186.8984375 364.9453125 151 322.4375 151 270 c 0
 151 218.436523438 186.8984375 176.0390625 236 166.169921875 c 1
 236 167 l 1
 243.393554688 165.151367188 251.641601562 164.157226562 259.955078125 164.017578125 c 0
 268.23046875 164.163085938 276.280273438 165.234375 284 167.131835938 c 1
 284 166.169921875 l 1
 333.1015625 176.0390625 369 218.436523438 369 270 c 0
 369 322.4375 333.1015625 364.9453125 284 374.828125 c 1
 284 373.864257812 l 1
 276.280273438 375.765625 268.23046875 376.836914062 259.955078125 376.982421875 c 0
EndSplineSet
EndChar

StartChar: h
Encoding: 104 104 71
Width: 597
VWidth: 0
Flags: HW
HStem: 383 151<183.435 313.159>
VStem: 0 169<16 365.866 522 778> 330 167<16 362.119>
LayerCount: 2
Fore
SplineSet
0 778 m 1
 169 778 l 1
 169 522 l 1
 195 530 221 534 249 534 c 0
 367 534 463 456 494 347 c 1
 497 16 l 1
 330 16 l 1
 330 346 l 1
 310 369 282 383 249 383 c 0
 217 383 189 370 169 348 c 1
 169 16 l 1
 0 16 l 1
 0 778 l 1
EndSplineSet
EndChar

StartChar: i
Encoding: 105 105 72
Width: 252
VWidth: 0
Flags: HW
HStem: 8 21G<0 152> 502 20G<0 152> 640 142<0 152>
VStem: 0 152<8 522 640 782>
LayerCount: 2
Fore
SplineSet
0 782 m 1
 152 782 l 1
 152 640 l 1
 0 640 l 1
 0 782 l 1
0 522 m 1
 152 522 l 1
 152 8 l 1
 0 8 l 1
 0 522 l 1
EndSplineSet
EndChar

StartChar: j
Encoding: 106 106 73
Width: 419
VWidth: 0
Flags: HW
HStem: -194 151<5.4451 135.159> 507 20G<152 319> 640 142<164 316>
VStem: 152 164<-22.1189 527> 164 152<640 782>
LayerCount: 2
Fore
SplineSet
164 782 m 1
 316 782 l 1
 316 640 l 1
 164 640 l 1
 164 782 l 1
0 -185 m 1
 0 -17 l 1
 19 -33 44 -43 71 -43 c 0
 104 -43 132 -29 152 -6 c 1
 152 527 l 1
 319 527 l 1
 316 -7 l 1
 285 -116 189 -194 71 -194 c 0
 46 -194 23 -191 0 -185 c 1
EndSplineSet
EndChar

StartChar: k
Encoding: 107 107 74
Width: 753
VWidth: 0
Flags: HW
HStem: 8 20G<11 152 413 580.185> 764 20G<11 152>
VStem: 11 141<8 164 327 784>
LayerCount: 2
Fore
SplineSet
11 762 m 1
 152 762 l 1
 152 327 l 1
 397 524 l 1
 590 522 l 1
 329 294 l 1
 599 7 l 1
 413 8 l 1
 209 236 l 1
 152 164 l 1
 152 8 l 1
 11 8 l 1
 11 762 l 1
EndSplineSet
EndChar

StartChar: l
Encoding: 108 108 75
Width: 419
VWidth: 0
Flags: HW
HStem: 7 151<183.008 313.885> 751 20G<0 167>
VStem: 3 164<176.215 771>
LayerCount: 2
Fore
SplineSet
319 16 m 1
 296.333007812 10 272.666992188 7 248 7 c 0
 190 7 138.666992188 24.3330078125 94 59 c 0
 49.3330078125 93.6669921875 19 138.666992188 3 194 c 1
 0 771 l 1
 167 771 l 1
 167 195 l 1
 188.333007812 170.333007812 215.333007812 158 248 158 c 0
 274.666992188 158 298.333007812 166.666992188 319 184 c 1
 319 16 l 1
EndSplineSet
EndChar

StartChar: m
Encoding: 109 109 76
Width: 924
VWidth: 0
Flags: HW
HStem: 383 151<182.824 314.747 509.824 640.715>
VStem: 0 169<16 366.608 522 532> 330 166<16 365.109> 657 167<16 362.119>
LayerCount: 2
Fore
SplineSet
0 532 m 1
 169 532 l 1
 169 522 l 1
 195 530 221 534 249 534 c 0
 310.004882812 534 365.129882812 513.15234375 408.432617188 477.951171875 c 1
 496 522 l 1
 522 530 548 534 576 534 c 0
 694 534 790 456 821 347 c 1
 824 16 l 1
 657 16 l 1
 657 346 l 1
 637 369 609 383 576 383 c 0
 544 383 516 370 496 348 c 1
 496 126.333007812 l 1
 497 16 l 1
 496 16 l 1
 330 16 l 1
 327 16 l 1
 330 333.25 l 1
 330 346 l 1
 310 369 282 383 249 383 c 0
 217 383 189 370 169 348 c 1
 169 16 l 1
 0 16 l 1
 0 532 l 1
EndSplineSet
EndChar

StartChar: n
Encoding: 110 110 77
Width: 597
VWidth: 0
Flags: HW
HStem: 383 151<182.824 313.715>
VStem: 0 169<16 366.608 522 532> 330 167<16 362.119>
LayerCount: 2
Fore
SplineSet
0 532 m 1
 169 532 l 1
 169 522 l 1
 195 530 221 534 249 534 c 0
 367 534 463 456 494 347 c 1
 497 16 l 1
 330 16 l 1
 330 346 l 1
 310 369 282 383 249 383 c 0
 217 383 189 370 169 348 c 1
 169 16 l 1
 0 16 l 1
 0 532 l 1
EndSplineSet
EndChar

StartChar: o
Encoding: 111 111 78
Width: 616
VWidth: 0
Flags: HW
HStem: 13 21G<257.408 258.151 261.478 333.5> 508 20G<257.408 258.151 261.478 333.5>
VStem: 0 151<207.14 333.449> 369 151<205.844 334.753>
LayerCount: 2
Fore
SplineSet
259.955078125 376.982421875 m 0
 251.641601562 376.842773438 243.393554688 375.848632812 236 374 c 1
 236 374.828125 l 1
 186.8984375 364.9453125 151 322.4375 151 270 c 0
 151 218.436523438 186.8984375 176.0390625 236 166.169921875 c 1
 236 167 l 1
 243.393554688 165.151367188 251.641601562 164.157226562 259.955078125 164.017578125 c 0
 268.23046875 164.163085938 276.280273438 165.234375 284 167.131835938 c 1
 284 166.169921875 l 1
 333.1015625 176.0390625 369 218.436523438 369 270 c 0
 369 322.4375 333.1015625 364.9453125 284 374.828125 c 1
 284 373.864257812 l 1
 276.280273438 375.765625 268.23046875 376.836914062 259.955078125 376.982421875 c 0
258.90625 13.001953125 m 0
 258.603515625 13.001953125 258.301757812 13 258 13 c 0
 256.815429688 13 255.631835938 13.0078125 254.451171875 13.0234375 c 0
 249.662109375 13.0693359375 245.004882812 13.205078125 240.133789062 13.6025390625 c 0
 105.541992188 22.708984375 0 133.96484375 0 270 c 0
 0 406.991210938 105.5390625 518.286132812 240.12890625 527.397460938 c 0
 245.001953125 527.794921875 249.66015625 527.930664062 254.451171875 527.9765625 c 0
 255.631835938 527.9921875 256.815429688 528 258 528 c 0
 258.301757812 528 258.603515625 527.999023438 258.905273438 527.998046875 c 0
 259.92578125 528 260.956054688 528 262 528 c 0
 405 528 520 413 520 270 c 0
 520 128 405 13 262 13 c 0
 260.956054688 13 259.92578125 13.001953125 258.90625 13.001953125 c 0
EndSplineSet
EndChar

StartChar: p
Encoding: 112 112 79
Width: 512
VWidth: 0
Flags: HW
HStem: -192 21G<0 152> 5 151<152 240.529> 369 150<152.375 240.409>
VStem: 0 152<-192 6 156.026 368.974> 283 151<198.471 326.934>
LayerCount: 2
Fore
SplineSet
152 366 m 1
 152 159 l 1
 160 157 168 156 176 156 c 0
 236 156 283 203 283 263 c 0
 283 322 236 369 176 369 c 0
 168 369 160 368 152 366 c 1
152 -192 m 1
 0 -192 l 1
 0 519 l 1
 152 519 l 2
 160 520 168 520 176 520 c 0
 319 520 434 405 434 263 c 0
 434 120 319 5 176 5 c 0
 168 5 160 5 152 6 c 1
 152 -192 l 1
EndSplineSet
EndChar

StartChar: q
Encoding: 113 113 80
Width: 512
VWidth: 0
Flags: HW
HStem: -192 21G<282 434> 5 151<193.471 282> 369 151<193.591 281.625>
VStem: 0 151<198.471 326.934> 282 152<-192 6 156.026 368.974>
LayerCount: 2
Fore
SplineSet
282 366 m 1
 274 368 266 369 258 369 c 0
 198 369 151 322 151 263 c 0
 151 203 198 156 258 156 c 0
 266 156 274 157 282 159 c 1
 282 366 l 1
282 -192 m 1
 282 6 l 1
 274 5 266 5 258 5 c 0
 115 5 0 120 0 263 c 0
 0 405 115 520 258 520 c 0
 266 520 274 520 282 519 c 2
 434 519 l 1
 434 -192 l 1
 282 -192 l 1
EndSplineSet
EndChar

StartChar: r
Encoding: 114 114 81
Width: 587
VWidth: 0
Flags: HW
HStem: 383 151<182.824 314.013>
VStem: 0 169<16 366.608 522 532>
LayerCount: 2
Fore
SplineSet
0 532 m 1
 169 532 l 1
 169 522 l 1
 195 530 221 534 249 534 c 0
 359.2734375 534 450 453 487 355 c 1
 322 355 l 1
 322 354.31640625 l 1
 302.80859375 372.330078125 277.809570312 383 249 383 c 0
 217 383 189 370 169 348 c 1
 169 16 l 1
 0 16 l 1
 0 532 l 1
EndSplineSet
EndChar

StartChar: s
Encoding: 115 115 82
Width: 508
VWidth: 0
Flags: HW
LayerCount: 2
Fore
SplineSet
18.615234375 57 m 1
 85.615234375 169 l 1
 91.615234375 163 98.615234375 160 107.615234375 157 c 0
 160.615234375 133 204.615234375 141 230.615234375 172 c 0
 259.615234375 206 208.615234375 212 154.615234375 221 c 1
 26.615234375 272 -44.384765625 355 30.615234375 444 c 0
 93.615234375 520 246.615234375 537 373.615234375 483 c 0
 380.615234375 480 388.615234375 478 395.615234375 472 c 1
 328.615234375 342 l 1
 322.615234375 346 315.615234375 351 306.615234375 354 c 0
 253.615234375 376 231.615234375 369 205.615234375 338 c 0
 175.615234375 303 172.615234375 296 236.615234375 285 c 1
 355.615234375 235 458.615234375 174 382.615234375 85 c 0
 320.615234375 9 167.615234375 -11 40.615234375 44 c 0
 33.615234375 46 26.615234375 51 18.615234375 57 c 1
EndSplineSet
EndChar

StartChar: t
Encoding: 116 116 83
Width: 514
VWidth: 0
Flags: HW
HStem: 7 151<278.285 409.024> 374 152<0 96.274 262 359> 751 20G<95 262>
VStem: 96.274 165.726<178.881 374 526 771>
LayerCount: 2
Fore
SplineSet
414 16 m 1
 391 10 368 7 343 7 c 0
 225 7 129 85 98 194 c 1
 97.064453125 374 l 1
 0 374 l 1
 0 526 l 1
 96.2734375 526 l 1
 95 771 l 1
 262 771 l 1
 262 526 l 1
 359 526 l 1
 359 374 l 1
 262 374 l 1
 262 195 l 1
 282 172 310 158 343 158 c 0
 370 158 395 168 414 184 c 1
 414 16 l 1
EndSplineSet
EndChar

StartChar: u
Encoding: 117 117 84
Width: 598
VWidth: 0
Flags: HW
HStem: 16 151<184.841 314.565> 514 20G<1 168 329 498>
VStem: 4 164<187.881 534> 329 169<18 28 184.134 534>
LayerCount: 2
Fore
SplineSet
498 12 m 1
 329 12 l 1
 329 22 l 1
 303 14 277 10 249 10 c 0
 131 10 35 88 4 197 c 1
 1 528 l 1
 168 528 l 1
 168 198 l 1
 188 175 216 161 249 161 c 0
 281 161 309 174 329 196 c 1
 329 528 l 1
 498 528 l 1
 498 12 l 1
EndSplineSet
EndChar

StartChar: v
Encoding: 118 118 85
Width: 652
VWidth: 0
Flags: HW
HStem: 501 20G<0 158.757 393.243 552>
LayerCount: 2
Fore
SplineSet
0 521 m 1
 152 521 l 1
 276 154 l 1
 400 521 l 1
 552 521 l 1
 352 10 l 1
 200 10 l 1
 0 521 l 1
EndSplineSet
EndChar

StartChar: w
Encoding: 119 119 86
Width: 1044
VWidth: 0
Flags: HW
HStem: 501 20G<0 154.757 389.243 554.54 785.243 944>
LayerCount: 2
Fore
SplineSet
396 521 m 1
 548 521 l 1
 668 154 l 1
 792 521 l 1
 944 521 l 1
 744 10 l 1
 596 10 l 1
 472 326.8203125 l 1
 348 10 l 1
 200 10 l 1
 0 521 l 1
 148 521 l 1
 272 154 l 1
 396 521 l 1
EndSplineSet
EndChar

StartChar: x
Encoding: 120 120 87
Width: 724
VWidth: 0
Flags: HW
HStem: 9 20G<18.4269 179 431.563 624> 503 20G<17.4369 186 430.573 623>
LayerCount: 2
Fore
SplineSet
0 523 m 1
 186 521 l 1
 315.491210938 369.926757812 l 1
 448 522 l 1
 623 521 l 1
 402.584960938 268.317382812 l 1
 624 10 l 1
 449 8 l 1
 312.291015625 164.8046875 l 1
 179 12 l 1
 1 9 l 1
 224.5 265.5 l 1
 0 523 l 1
EndSplineSet
EndChar

StartChar: y
Encoding: 121 121 88
Width: 652
VWidth: 0
Flags: HW
HStem: 501 20G<0 177.757 400 577.185>
LayerCount: 2
Fore
SplineSet
0 521 m 1
 171 521 l 1
 295 154 l 1
 400 521 l 1
 585 524 l 1
 306 -190 l 1
 158 -194 l 1
 227.328125 10 l 1
 227 10 l 1
 0 521 l 1
EndSplineSet
EndChar

StartChar: z
Encoding: 122 122 89
Width: 512
VWidth: 0
Flags: HW
HStem: 20 152<251 453> 376 152<0 243>
LayerCount: 2
Fore
SplineSet
0 20 m 1
 0 172 l 1
 243 376 l 1
 0 376 l 1
 0 528 l 1
 453 528 l 1
 453 376 l 1
 251 172 l 1
 453 172 l 1
 453 20 l 1
 0 20 l 1
EndSplineSet
EndChar

StartChar: braceleft
Encoding: 123 123 90
Width: 419
VWidth: 0
Flags: HW
HStem: -82 121<328.218 400.506> 694 121<328.745 400.506>
VStem: 239 84<44.1962 238 495 684.933>
LayerCount: 2
Fore
SplineSet
401 -75 m 1
 390 -80 377 -82 364 -82 c 0
 304 -82 255 -19 239 68 c 1
 238 238 l 1
 129 368 l 1
 238 495 l 1
 239 665 l 1
 255 752 304 815 364 815 c 0
 377 815 390 813 401 808 c 1
 401 673 l 1
 391 686 378 694 364 694 c 0
 347 694 333 682 323 664 c 1
 324 480 l 1
 242 379 l 1
 323 238 l 1
 323 68 l 1
 333 50 347 39 364 39 c 0
 378 39 391 47 401 60 c 1
 401 -75 l 1
EndSplineSet
EndChar

StartChar: bar
Encoding: 124 124 91
Width: 252
VWidth: 0
Flags: HW
VStem: 15 122<-89 881>
LayerCount: 2
Fore
SplineSet
15 881 m 1
 137 881 l 1
 137 -89 l 1
 15 -89 l 1
 15 881 l 1
EndSplineSet
EndChar

StartChar: braceright
Encoding: 125 125 92
Width: 419
VWidth: 0
Flags: HW
HStem: -82 121<129.494 201.782> 694 121<129.494 201.255>
VStem: 207 84<44.1962 238 495 684.933>
LayerCount: 2
Fore
SplineSet
129 -75 m 1
 129 60 l 1
 139 47 152 39 166 39 c 0
 183 39 197 50 207 68 c 1
 207 238 l 1
 288 379 l 1
 206 480 l 1
 207 664 l 1
 197 682 183 694 166 694 c 0
 152 694 139 686 129 673 c 1
 129 808 l 1
 140 813 153 815 166 815 c 0
 226 815 275 752 291 665 c 1
 292 495 l 1
 401 368 l 1
 292 238 l 1
 291 68 l 1
 275 -19 226 -82 166 -82 c 0
 153 -82 140 -80 129 -75 c 1
EndSplineSet
EndChar

StartChar: asciitilde
Encoding: 126 126 93
Width: 644
VWidth: 0
Flags: HW
HStem: 354 152.581<205.052 427.98> 410 152<51.251 183.491>
LayerCount: 2
Fore
SplineSet
499 587 m 1
 499 435 l 2
 498.596679688 433.500976562 442.831054688 354 371 354 c 0
 323 354 319 354 271 354 c 0
 207 354 182 410 118 410 c 0
 67 410 0 354 0 354 c 1
 0 506 l 1
 0 506 64 562 114 562 c 0
 180 562 208 507 274 507 c 0
 318 507 319 507 363 506.581054688 c 0
 432 507 499 587 499 587 c 1
EndSplineSet
EndChar

StartChar: .notdef
Encoding: 0 0 94
Width: 1000
Flags: HW
HStem: 10 66<243 635> 215.75 71<371 447> 331.75 117.5<371 427.005> 555.75 75.5<371 426.239> 742 62<243 635>
VStem: 193 50<76 742> 371 76<215.75 286.75 331.75 404.448> 437.5 75.5<459.629 544.632> 635 48<76 742>
LayerCount: 2
Fore
SplineSet
208 804 m 2
 668 804 l 2
 676 804 683 797 683 789 c 2
 683 25 l 2
 683 17 676 10 668 10 c 2
 208 10 l 2
 200 10 193 17 193 25 c 2
 193 789 l 2
 193 797 200 804 208 804 c 2
258 742 m 2
 250 742 243 735 243 727 c 2
 243 91 l 2
 243 83 250 76 258 76 c 2
 620 76 l 2
 628 76 635 83 635 91 c 2
 635 727 l 2
 635 735 628 742 620 742 c 2
 258 742 l 2
371 630.75 m 1
 375.5 631.25 379.5 631.25 384 631.25 c 0
 455.5 631.25 513 573.75 513 502.75 c 0
 513 454.165039062 486.450195312 412.044921875 447 390.037109375 c 1
 447 331.75 l 1
 371 331.75 l 1
 371 374.25 l 1
 371 436.75 l 1
 371 450.75 l 1
 375 449.75 379.5 449.25 384 449.25 c 0
 414 449.25 437.5 472.75 437.5 502.75 c 0
 437.5 532.25 414 555.75 384 555.75 c 0
 379.5 555.75 375 555.25 371 554.25 c 1
 371 630.75 l 1
371 215.75 m 1
 371 286.75 l 1
 447 286.75 l 1
 447 215.75 l 1
 371 215.75 l 1
EndSplineSet
EndChar

StartChar: u09a4
Encoding: 2468 2468 95
Width: 726
VWidth: 75
Flags: HW
HStem: 14.7002 133.6<255.264 418.805> 523.479 120.821<345.987 417.023> 681 132<-50 676>
VStem: 42.4004 111.399<250.829 338.876> 520.2 133.399<250.829 424.049>
LayerCount: 2
Fore
SplineSet
339.780273438 523.478515625 m 1
 339.780273438 523.478515625 345.987304688 644.29296875 345.987304688 644.29296875 c 2
 346.657226562 644.297851562 347.328125 644.299804688 348 644.299804688 c 0
 516.799804688 644.299804688 653.599609375 503.5 653.599609375 329.900390625 c 0
 653.599609375 155.5 516.799804688 14.7001953125 348 14.7001953125 c 0
 179.200195312 14.7001953125 42.400390625 155.5 42.400390625 329.900390625 c 0
 42.400390625 330.77734375 153.86328125 340.658203125 153.870117188 341.533203125 c 1
 153.823242188 339.794921875 153.799804688 338.049804688 153.799804688 336.299804688 c 0
 153.799804688 232.299804688 235.400390625 148.299804688 337 148.299804688 c 0
 438.599609375 148.299804688 520.200195312 232.299804688 520.200195312 336.299804688 c 0
 520.200195312 438.556640625 440.084960938 521.962890625 339.780273438 523.478515625 c 1
676 813 m 5
 676 681 l 5
 -50 681 l 5
 -50 813 l 5
 676 813 l 5
EndSplineSet
EndChar

StartChar: uni09AC
Encoding: 2476 2476 96
Width: 723
VWidth: 0
Flags: HW
HStem: 681 132<-50 474 620 673> 681 106<474 620>
VStem: 474 146<11 83.5 235.5 483.5 635.5 787> 474 57.5<83.5 235.5 483.5 483.5>
LayerCount: 2
Fore
SplineSet
673 813 m 1
 673 681 l 1
 620 681 l 1
 620 11 l 1
 474 11 l 1
 474 12.798828125 l 1
 20.5 283.5 l 1
 20.5 435.5 l 1
 474 612.995117188 l 1
 474 681 l 1
 -50 681 l 1
 -50 813 l 1
 673 813 l 1
474 164.814453125 m 1
 474 464.072265625 l 1
 164.5 359.5 l 1
 474 164.814453125 l 1
EndSplineSet
EndChar

StartChar: exclamdown
Encoding: 161 161 99
Width: 252
VWidth: 0
Flags: HW
HStem: 8 21G<0 152> 502 20G<0 152> 640 142<0 152>
VStem: 0 152<8 522 640 782>
LayerCount: 2
Fore
SplineSet
152 782 m 1
 152 640 l 1
 0 640 l 1
 0 782 l 1
 152 782 l 1
152 522 m 1
 152 8 l 1
 0 8 l 1
 0 522 l 1
 152 522 l 1
EndSplineSet
EndChar

StartChar: sterling
Encoding: 163 163 103
Width: 772
VWidth: 0
Flags: HW
HStem: 7 169.5<-47.5 547.285> 369 152<0 96.882 262 359> 620 151<278.841 408.555>
VStem: 95 167<7 369 521 599.119> 565.5 151<192.508 322.889>
LayerCount: 2
Fore
SplineSet
414 762 m 1
 414 594 l 1
 395 610 370 620 343 620 c 0
 310 620 282 606 262 583 c 1
 262 521 l 1
 359 521 l 1
 359 369 l 1
 262 369 l 1
 262 176.5 l 1
 528.5 176.5 l 1
 553.166992188 197.833007812 565.5 224.833007812 565.5 257.5 c 0
 565.5 284.166992188 556.833007812 307.833007812 539.5 328.5 c 1
 707.5 328.5 l 1
 713.5 305.833007812 716.5 282.166992188 716.5 257.5 c 0
 716.5 199.5 699.166992188 148.166992188 664.5 103.5 c 0
 629.833007812 58.8330078125 584.833007812 28.5 529.5 12.5 c 1
 262 11.109375 l 1
 262 7 l 1
 95 7 l 1
 95.0166015625 10.2412109375 l 1
 -47.5 9.5 l 1
 -47.5 176.5 l 1
 95.880859375 176.5 l 1
 96.8818359375 369 l 1
 0 369 l 1
 0 521 l 1
 97.6728515625 521 l 1
 98 584 l 1
 129 693 225 771 343 771 c 0
 368 771 391 768 414 762 c 1
EndSplineSet
EndChar

StartChar: uni098F
Encoding: 2447 2447 104
Width: 697
VWidth: 0
Flags: HW
HStem: 620 151<260.445 390.159>
VStem: -47.5 151<192.508 322.889>
LayerCount: 2
Fore
SplineSet
-38.5 328.5 m 1
 129.5 328.5 l 1
 112.166992188 307.833007812 103.5 284.166992188 103.5 257.5 c 0
 103.5 224.833007812 115.833007812 197.833007812 140.5 176.5 c 1
 407 176.5 l 1
 407 583 l 1
 387 606 359 620 326 620 c 0
 299 620 274 610 255 594 c 1
 255 762 l 1
 278 768 301 771 326 771 c 0
 444 771 540 693 571 584 c 1
 574 7 l 5
 426.245117188 5.912109375 287.399414062 13.732421875 139.5 12.5 c 5
 84.1669921875 28.5 39.1669921875 58.8330078125 4.5 103.5 c 0
 -30.1669921875 148.166992188 -47.5 199.5 -47.5 257.5 c 0
 -47.5 282.166992188 -44.5 305.833007812 -38.5 328.5 c 1
EndSplineSet
EndChar

StartChar: uni0985
Encoding: 2437 2437 105
Width: 946
VWidth: 0
Flags: HW
HStem: 8 21G<701 741.187> 14.7002 125.6<264.372 431.628> 515.479 128.821<350.78 431.669> 681 132<-50 723 875 896> 681 105<723 875>
VStem: 42.4004 122.399<243.067 332.113> 531.2 122.399<283.807 416.338> 723 152<115 786>
LayerCount: 2
Fore
SplineSet
350.780273438 515.478515625 m 1
 350.780273438 515.478515625 345.987304688 644.29296875 345.987304688 644.29296875 c 1
 346.657226562 644.297851562 347.328125 644.299804688 348 644.299804688 c 0
 516.799804688 644.299804688 653.599609375 503.5 653.599609375 329.900390625 c 0
 653.599609375 317.25 652.879882812 304.776367188 651.48046875 292.51953125 c 1
 723 221 l 1
 723 681 l 1
 -50 681 l 1
 -50 813 l 1
 896 813 l 1
 896 681 l 1
 875 681 l 1
 875 10 l 1
 723.018554688 10 l 1
 721 8 l 1
 590.749023438 138.250976562 l 1
 534.901367188 63.0810546875 446.948242188 14.7001953125 348 14.7001953125 c 0
 179.200195312 14.7001953125 42.400390625 155.5 42.400390625 329.900390625 c 0
 42.400390625 330.77734375 164.86328125 332.658203125 164.870117188 333.533203125 c 1
 164.823242188 331.794921875 164.799804688 330.049804688 164.799804688 328.299804688 c 0
 164.799804688 224.299804688 246.400390625 140.299804688 348 140.299804688 c 0
 449.599609375 140.299804688 531.200195312 224.299804688 531.200195312 328.299804688 c 0
 531.200195312 430.556640625 451.084960938 513.962890625 350.780273438 515.478515625 c 1
EndSplineSet
EndChar

StartChar: uni09BE
Encoding: 2494 2494 106
Width: 436
VWidth: 0
Flags: HW
HStem: 8 21G<184 336> 681 132<223 384>
VStem: 184 200<681 813> 184 152<8 497 813 857> 223 113<681 813>
LayerCount: 2
Fore
SplineSet
184 857 m 1
 336 857 l 1
 336 813 l 1
 384 813 l 1
 384 681 l 1
 336 681 l 1
 336 8 l 1
 184 8 l 1
 184 498.981445312 l 1
 182 497 l 1
 -123 795 l 1
 78 792 l 1
 184 698 l 1
 184 857 l 1
EndSplineSet
EndChar

StartChar: uni0986
Encoding: 2438 2438 107
Width: 1261
VWidth: 0
Flags: HW
HStem: 8 21G<701 741.187> 14.7002 125.6<264.372 431.628> 515.479 128.821<350.78 431.669> 681 129<-50 704 723 896 1050 1211> 681 105<723 875>
VStem: 42.4004 122.399<243.067 332.113> 531.2 122.399<283.807 416.338> 723 173<681 786> 1011 200<681 813> 1011 152<8 497 813 860> 1050 113<681 813>
LayerCount: 2
Fore
SplineSet
1011 860 m 1
 1163 860 l 1
 1163 813 l 1
 1211 813 l 1
 1211 681 l 1
 1163 681 l 1
 1163 8 l 1
 1011 8 l 1
 1011 498.981445312 l 1
 1009 497 l 1
 875 634.514648438 l 1
 875 10 l 1
 723.018554688 10 l 1
 721 8 l 1
 590.749023438 138.250976562 l 1
 534.901367188 63.0810546875 446.948242188 14.7001953125 348 14.7001953125 c 0
 179.200195312 14.7001953125 42.400390625 155.5 42.400390625 329.900390625 c 0
 42.400390625 330.77734375 164.86328125 332.658203125 164.870117188 333.533203125 c 1
 164.823242188 331.794921875 164.799804688 330.049804688 164.799804688 328.299804688 c 0
 164.799804688 224.299804688 246.400390625 140.299804688 348 140.299804688 c 0
 449.599609375 140.299804688 531.200195312 224.299804688 531.200195312 328.299804688 c 0
 531.200195312 430.556640625 451.084960938 513.962890625 350.780273438 515.478515625 c 1
 350.780273438 515.478515625 345.987304688 644.29296875 345.987304688 644.29296875 c 1
 346.657226562 644.297851562 347.328125 644.299804688 348 644.299804688 c 0
 516.799804688 644.299804688 653.599609375 503.5 653.599609375 329.900390625 c 0
 653.599609375 317.25 652.879882812 304.776367188 651.48046875 292.51953125 c 1
 723 221 l 1
 723 681 l 1
 -50 681 l 1
 -50 810 l 1
 704 810 l 1
 896 810 l 1
 905 810 l 1
 1011 707 l 1
 1011 860 l 1
EndSplineSet
EndChar

StartChar: uni09B9
Encoding: 2489 2489 108
Width: 689
VWidth: 0
Flags: HW
HStem: 9 21G<357 543> 681 132<-50 639>
LayerCount: 2
Fore
SplineSet
639 813 m 1
 639 681 l 1
 -50 681 l 1
 -50 813 l 1
 639 813 l 1
186.141601562 482.20703125 m 1
 186.141601562 482.20703125 78.7998046875 588.45703125 78.0263671875 587.68359375 c 1
 180.65625 690.313476562 342.620117188 692.33203125 445.080078125 589.872070312 c 0
 546.706054688 488.24609375 544.452148438 326.5078125 442.18359375 223.525390625 c 0
 416.661132812 197.825195312 389.724609375 179.067382812 362.2578125 166.3515625 c 1
 543 9 l 1
 384 9 l 1
 175.735351562 163.26953125 l 1
 140.404296875 177.595703125 107.993164062 199.703125 80.9208984375 227.127929688 c 1
 183.453125 329.66015625 l 1
 183.686523438 329.422851562 183.921875 329.186523438 184.158203125 328.950195312 c 0
 226.666992188 286.440429688 290.711914062 287.127929688 336.141601562 331.051757812 c 0
 379.873046875 376.353515625 380.990234375 440.416015625 338.306640625 483.099609375 c 0
 295.163085938 526.244140625 231.517578125 525.487304688 186.141601562 482.20703125 c 1
EndSplineSet
EndChar

StartChar: uni0987
Encoding: 2439 2439 109
Width: 689
VWidth: 0
Flags: HW
HStem: 9 21G<357 543> 681 132<-50 257.581 493.755 639>
LayerCount: 2
Fore
SplineSet
639 813 m 1
 639 681 l 1
 -50 681 l 1
 -50 813 l 1
 283.489257812 813 l 1
 277.990234375 838.393554688 267.922851562 864.420898438 249.7890625 882.776367188 c 0
 218.380859375 913.592773438 217.673828125 914.299804688 186.560546875 945.412109375 c 0
 139.891601562 992.081054688 81.2021484375 972.989257812 34.5322265625 1019.65820312 c 0
 -0.822265625 1055.01367188 -6.4794921875 1139.8671875 -6.4794921875 1139.8671875 c 1
 81.9091796875 1228.25488281 l 1
 81.9091796875 1228.25488281 89.6875 1141.28125 125.749023438 1105.21875 c 0
 171.00390625 1059.96386719 228.280273438 1081.88378906 273.53515625 1036.62890625 c 0
 307.475585938 1002.68847656 310.3046875 999.859375 344.245117188 965.918945312 c 0
 394.2734375 915.890625 374.794921875 818.1796875 377.479492188 818.1328125 c 1
 372.346679688 813 l 1
 639 813 l 1
186.141601562 482.20703125 m 1
 186.141601562 482.20703125 78.7998046875 588.45703125 78.0263671875 587.68359375 c 1
 180.65625 690.313476562 342.620117188 692.33203125 445.080078125 589.872070312 c 0
 546.706054688 488.24609375 544.452148438 326.5078125 442.18359375 223.525390625 c 0
 416.661132812 197.825195312 389.724609375 179.067382812 362.2578125 166.3515625 c 1
 543 9 l 1
 384 9 l 1
 175.735351562 163.26953125 l 1
 140.404296875 177.595703125 107.993164062 199.703125 80.9208984375 227.127929688 c 1
 183.453125 329.66015625 l 1
 183.686523438 329.422851562 183.921875 329.186523438 184.158203125 328.950195312 c 0
 226.666992188 286.440429688 290.711914062 287.127929688 336.141601562 331.051757812 c 0
 379.873046875 376.353515625 380.990234375 440.416015625 338.306640625 483.099609375 c 0
 295.163085938 526.244140625 231.517578125 525.487304688 186.141601562 482.20703125 c 1
EndSplineSet
EndChar

StartChar: uni09A1
Encoding: 2465 2465 110
Width: 616
VWidth: 0
Flags: HW
HStem: 13.0016 151.016<193.473 323.671> 376 151.998<259 391> 681 132<-50 259 391 566> 681 80<259 391>
VStem: 259 132<527.998 761>
LayerCount: 2
Fore
SplineSet
566 813 m 1
 566 681 l 1
 391 681 l 1
 391 493.791992188 l 1
 469.610351562 449.66015625 522.310546875 366.931640625 520 270 c 0
 516.541015625 124.885742188 402.287109375 12.7998046875 258.90625 13.001953125 c 0
 89.0390625 13.240234375 5.1650390625 141.7890625 6.0009765625 271 c 1
 151.00390625 271 l 1
 151.000976562 270.666992188 151 270.333984375 151 270 c 0
 151 209.8828125 196.772460938 165.08203125 259.955078125 164.017578125 c 0
 322.911132812 165.126953125 369 209.63671875 369 270 c 0
 369 326.657226562 329.734375 369.046875 273.932617188 376 c 1
 259 376 l 1
 259 527.624023438 l 2
 258.96875 527.87109375 258.9375 527.998046875 258.905273438 527.998046875 c 1
 258.9375 527.998046875 258.96875 527.998046875 259 527.998046875 c 1
 259 681 l 1
 -50 681 l 1
 -50 813 l 1
 566 813 l 1
EndSplineSet
EndChar

StartChar: uni0989
Encoding: 2441 2441 111
Width: 612
VWidth: 0
Flags: HW
HStem: 13.002 151.016<188.473 318.671> 376 151.998<254 386> 681 132<-55 386 493.755 561>
LayerCount: 2
Fore
SplineSet
561 813 m 1
 561 681 l 1
 386 681 l 1
 386 493.791992188 l 1
 464.611328125 449.66015625 517.310546875 366.931640625 515 270 c 0
 511.541015625 124.885742188 397.287109375 12.7998046875 253.90625 13.001953125 c 0
 84.0390625 13.240234375 0.1650390625 141.7890625 1.0009765625 271 c 1
 146.00390625 271 l 1
 146.000976562 270.666992188 146 270.333984375 146 270 c 0
 146 209.8828125 191.772460938 165.08203125 254.955078125 164.017578125 c 0
 317.911132812 165.126953125 364 209.63671875 364 270 c 0
 364 326.657226562 324.735351562 369.046875 268.932617188 376 c 1
 254 376 l 1
 254 527.622070312 l 2
 253.96875 527.870117188 253.9375 527.998046875 253.905273438 527.998046875 c 1
 253.936523438 527.998046875 253.96875 527.998046875 254 527.998046875 c 1
 254 681 l 1
 -55 681 l 1
 -55 813 l 1
 244.169921875 813 l 1
 238.783203125 839.090820312 228.6640625 866.108398438 210 885 c 0
 178.591796875 915.81640625 177.884765625 916.5234375 146.771484375 947.635742188 c 0
 100.102539062 994.3046875 41.4130859375 975.212890625 -5.2568359375 1021.88183594 c 0
 -40.611328125 1057.23730469 -46.2685546875 1142.09082031 -46.2685546875 1142.09082031 c 1
 42.1201171875 1230.47851562 l 1
 42.1201171875 1230.47851562 49.8984375 1143.50488281 85.9599609375 1107.44238281 c 0
 131.21484375 1062.1875 188.491210938 1084.10742188 233.74609375 1038.85253906 c 0
 267.686523438 1004.91210938 270.515625 1002.08300781 304.456054688 968.142578125 c 0
 354.484375 918.114257812 335.005859375 820.403320312 337.690429688 820.356445312 c 1
 330.333984375 813 l 1
 561 813 l 1
EndSplineSet
EndChar

StartChar: uni09A2
Encoding: 2466 2466 112
Width: 642
VWidth: 0
Flags: HW
HStem: 681 132<-50 0 167 589> 681 90<0 167>
VStem: 3 164<182.77 771> 402 164<182.95 383>
LayerCount: 2
Fore
SplineSet
566 194 m 1
 497.931640625 -45.4130859375 72.236328125 -49.4453125 3 194 c 1
 0.4677734375 681 l 1
 -50 681 l 1
 -50 813 l 1
 589 813 l 1
 589 681 l 1
 167 681 l 1
 167 195 l 1
 205.237304688 151.02734375 364.430664062 149.916992188 402 195 c 1
 402 383 l 1
 569 383 l 1
 566 194 l 1
EndSplineSet
EndChar

StartChar: uni099F
Encoding: 2463 2463 113
Width: 642
VWidth: 0
Flags: HW
HStem: 681 132<-50 0 493.755 589> 681 90<0 167>
VStem: 3 164<182.77 771> 402 164<182.95 383>
LayerCount: 2
Fore
SplineSet
566 194 m 1
 497.931640625 -45.4130859375 72.236328125 -49.4453125 3 194 c 1
 0.4677734375 681 l 1
 -50 681 l 1
 -50 813 l 1
 201.8359375 813 l 1
 186.87109375 827.96484375 l 2
 141.616210938 873.219726562 163.536132812 930.49609375 118.28125 975.750976562 c 0
 82.21875 1011.8125 -4.7548828125 1019.59082031 -4.7548828125 1019.59082031 c 1
 83.6328125 1107.97949219 l 1
 83.6328125 1107.97949219 168.486328125 1102.32226562 203.841796875 1066.96777344 c 0
 250.510742188 1020.29785156 231.418945312 961.608398438 278.087890625 914.939453125 c 0
 309.200195312 883.826171875 309.907226562 883.119140625 340.723632812 851.7109375 c 0
 367.475585938 825.282226562 410.520507812 815.987304688 444.153320312 813 c 2
 589 813 l 1
 589 681 l 1
 167 681 l 1
 167 195 l 1
 205.237304688 151.02734375 364.430664062 149.916992188 402 195 c 1
 402 383 l 1
 569 383 l 1
 566 194 l 1
EndSplineSet
EndChar

StartChar: uni0995
Encoding: 2453 2453 114
Width: 1095
VWidth: 0
Flags: HW
HStem: 361.5 151<666.566 795.029> 681 132<-50 474 620 1038> 681 106<474 620>
VStem: 473.5 58<83.5 228.5 483.5 483.5> 474 146<11 83.5 228.5 254.5 635.5 787> 837.5 151<228.5 319.029>
LayerCount: 2
Fore
SplineSet
1048 813 m 1
 1048 681 l 1
 620 681 l 1
 620 487.599609375 l 1
 653.46875 503.573242188 690.936523438 512.5 730.5 512.5 c 0
 873.5 512.5 988.5 397.5 988.5 254.5 c 0
 988.5 245.7265625 988.060546875 237.053710938 987.204101562 228.5 c 1
 834.364257812 228.5 l 1
 836.415039062 236.826171875 837.5 245.536132812 837.5 254.5 c 0
 837.5 314.5 790.5 361.5 730.5 361.5 c 0
 671.5 361.5 624.5 314.5 624.5 254.5 c 0
 624.5 245.536132812 625.584960938 236.826171875 627.631835938 228.5 c 1
 620 228.5 l 1
 620 11 l 1
 477 11 l 1
 20.5 283.5 l 1
 20.5 435.5 l 1
 474 612.995117188 l 1
 474 681 l 1
 -50 681 l 1
 -50 813 l 1
 1048 813 l 1
474.961914062 165.461914062 m 1
 474.961914062 165.461914062 474.0078125 462 474 464.072265625 c 1
 164.5 359.5 l 1
 474.961914062 165.461914062 l 1
EndSplineSet
EndChar

StartChar: uni0993
Encoding: 2451 2451 115
Width: 616
VWidth: 0
Flags: HW
HStem: 13 151.017<197.114 326.368> 686 6<175.316 177.624>
VStem: 0 151<208.344 374.102> 369 151<205.94 334.826 510.937 643.001>
LayerCount: 2
Fore
SplineSet
237 692 m 0
 230.208007812 691.634765625 181.076171875 687.51953125 175 686 c 1
 177.624023438 686.109375 154.358398438 770.163085938 157 770 c 0
 168.190429688 769.309570312 229.141601562 810.811523438 281 818 c 0
 424.5234375 837.895507812 522.978515625 727.309570312 520 575 c 0
 518.88671875 518.077148438 501.513671875 465.473632812 470.147460938 422.892578125 c 1
 501.513671875 380.16796875 520 327.333984375 520 270 c 0
 520 128 405 13 262 13 c 0
 260.956054688 13 259.92578125 13.001953125 258.90625 13.001953125 c 0
 258.603515625 13.001953125 258.301757812 13 258 13 c 0
 256.815429688 13 255.631835938 13.0078125 254.451171875 13.0234375 c 0
 249.662109375 13.0693359375 245.004882812 13.205078125 240.133789062 13.6025390625 c 0
 105.541992188 22.708984375 0 133.96484375 0 270 c 0
 0 325.204101562 17.138671875 376.235351562 46.41015625 418.088867188 c 1
 58 422 l 1
 236.961914062 372.549804688 151 414.8828125 151 270 c 0
 151 209.87890625 196.760742188 165.08203125 259.955078125 164.017578125 c 0
 322.901367188 165.126953125 369 209.640625 369 270 c 0
 369 322.4375 333.1015625 364.9453125 284 374.828125 c 1
 284 373.864257812 l 1
 259.955078125 469.017578125 l 1
 268.23046875 469.163085938 276.280273438 470.234375 284 472.131835938 c 1
 284 471.169921875 l 1
 333.1015625 481.0390625 369 523.436523438 369 575 c 0
 369 653.3203125 315.104492188 696.1953125 237 692 c 0
EndSplineSet
EndChar

StartChar: uni09B0
Encoding: 2480 2480 116
Width: 723
VWidth: 0
Flags: HW
HStem: 8 142<111 263> 681 132<-50 474 620 673> 681 106<474 620>
VStem: 111 152<8 150> 474 146<11 83.5 235.5 483.5 635.5 787> 474 57.5<83.5 235.5 483.5 483.5>
LayerCount: 2
Fore
SplineSet
673 813 m 1
 673 681 l 1
 620 681 l 1
 620 11 l 1
 473 11 l 1
 473 12.798828125 l 1
 20.5 283.5 l 1
 20.5 435.5 l 1
 474 612.995117188 l 1
 474 681 l 1
 -50 681 l 1
 -50 813 l 1
 673 813 l 1
44 8 m 1
 44 150 l 1
 196 150 l 1
 196 8 l 1
 44 8 l 1
473 164.815429688 m 1
 473 464.072265625 l 1
 164.5 359.5 l 1
 473 164.815429688 l 1
EndSplineSet
EndChar

StartChar: mu
Encoding: 181 181 119
Width: 598
VWidth: 0
Flags: HW
HStem: 16 151<184.435 314.159> 514 20G<1 170 331 498>
VStem: 1 169<-179 28 184.134 534> 331 164<187.881 534>
LayerCount: 2
Fore
SplineSet
1 -179 m 1
 1 534 l 1
 170 534 l 1
 170 202 l 1
 190 180 218 167 250 167 c 0
 283 167 311 181 331 204 c 1
 331 534 l 1
 498 534 l 1
 495 203 l 1
 464 94 368 16 250 16 c 0
 222 16 196 20 170 28 c 1
 170 -179 l 1
 1 -179 l 1
EndSplineSet
EndChar

StartChar: guillemotleft
Encoding: 171 171 120
Width: 1282
VWidth: 0
Flags: HW
LayerCount: 2
Fore
SplineSet
544 673 m 1
 544 521 l 1
 137.895507812 347.71875 l 1
 544 168 l 1
 544 16 l 1
 0 260 l 1
 0 261 l 1
 0 412 l 1
 0 413 l 1
 544 673 l 1
1144 673 m 1
 1144 521 l 1
 737.895507812 347.71875 l 1
 1144 168 l 1
 1144 16 l 1
 600 260 l 1
 600 261 l 1
 600 412 l 1
 600 413 l 1
 1144 673 l 1
EndSplineSet
EndChar

StartChar: guillemotright
Encoding: 187 187 121
Width: 1282
VWidth: 0
Flags: HW
LayerCount: 2
Fore
SplineSet
600 673 m 1
 1144 413 l 1
 1144 412 l 1
 1144 261 l 1
 1144 260 l 1
 600 16 l 1
 600 168 l 1
 1006.10449219 347.71875 l 1
 600 521 l 1
 600 673 l 1
0 673 m 1
 544 413 l 1
 544 412 l 1
 544 261 l 1
 544 260 l 1
 0 16 l 1
 0 168 l 1
 406.104492188 347.71875 l 1
 0 521 l 1
 0 673 l 1
EndSplineSet
EndChar

StartChar: cent
Encoding: 162 162 122
Width: 384
VWidth: 0
Flags: HW
HStem: 13 151<237.13 284> 377 151<237.13 284>
VStem: 0 151<206.066 334.529> 188 47<-89 710>
LayerCount: 2
Fore
SplineSet
284 14.2958984375 m 1
 275.446289062 13.4384765625 266.7734375 13 258 13 c 0
 250.24609375 13 242.575195312 13.337890625 235 14 c 1
 235 -89 l 1
 188 -89 l 1
 188 22.517578125 l 1
 79.259765625 52.8349609375 0 152.11328125 0 270 c 0
 0 388.716796875 79.259765625 488.13671875 188 518.477539062 c 1
 188 710 l 1
 235 710 l 1
 235 527 l 1
 242.575195312 527.662109375 250.24609375 528 258 528 c 0
 266.7734375 528 275.446289062 527.560546875 284 526.704101562 c 1
 284 373.864257812 l 1
 275.673828125 375.915039062 266.963867188 377 258 377 c 0
 250.081054688 377 242.387695312 376.181640625 235 374.622070312 c 1
 235 166.375976562 l 1
 242.387695312 164.818359375 250.081054688 164 258 164 c 0
 266.963867188 164 275.673828125 165.084960938 284 167.131835938 c 1
 284 14.2958984375 l 1
188 351.549804688 m 1
 165.219726562 332.071289062 151 303.001953125 151 270 c 0
 151 237.547851562 165.219726562 208.7265625 188 189.359375 c 1
 188 351.549804688 l 1
EndSplineSet
EndChar

StartChar: yen
Encoding: 165 165 123
Width: 612
VWidth: 0
Flags: HW
HStem: 206 62<-14 530> 344 62<-14 530>
VStem: 179 152<11 460>
LayerCount: 2
Fore
SplineSet
179 461 m 1
 179.365234375 461 l 1
 -20 775 l 1
 132 775 l 1
 256 604 l 1
 380 775 l 1
 532 775 l 1
 332 460 l 1
 331 460 l 1
 331 406 l 1
 530 406 l 1
 530 344 l 1
 331 344 l 1
 331 268 l 1
 530 268 l 1
 530 206 l 1
 331 206 l 1
 331 11 l 1
 179 11 l 1
 179 206 l 1
 -14 206 l 1
 -14 268 l 1
 179 268 l 1
 179 344 l 1
 -14 344 l 1
 -14 406 l 1
 179 406 l 1
 179 461 l 1
EndSplineSet
EndChar

StartChar: questiondown
Encoding: 191 191 124
Width: 384
VWidth: 0
Flags: HW
HStem: 8 151<193.471 284> 697 142<132 284>
VStem: 0 151<201.066 328.017> 132 152<477.009 607 697 839>
LayerCount: 2
Fore
SplineSet
284 9 m 1
 275 8 267 8 258 8 c 0
 115 8 0 123 0 265 c 0
 0 362.168945312 53.0986328125 446.41015625 132 490.426757812 c 1
 132 607 l 1
 284 607 l 1
 284 522 l 1
 284 397 l 1
 284 369 l 1
 276 371 267 372 258 372 c 0
 198 372 151 325 151 265 c 0
 151 206 198 159 258 159 c 0
 267 159 276 160 284 162 c 1
 284 9 l 1
284 839 m 1
 284 697 l 1
 132 697 l 1
 132 839 l 1
 284 839 l 1
EndSplineSet
EndChar

StartChar: plusminus
Encoding: 177 177 125
Width: 644
VWidth: 0
Flags: HW
HStem: -20 152<0 544> 354 152<0 544>
VStem: 196 152<159 702>
LayerCount: 2
Fore
SplineSet
196 702 m 1
 348 702 l 1
 348 506 l 1
 544 506 l 1
 544 354 l 1
 348 354 l 1
 348 159 l 1
 196 159 l 1
 196 354 l 1
 0 354 l 1
 0 506 l 1
 196 506 l 1
 196 702 l 1
544 132 m 1
 544 -20 l 1
 0 -20 l 1
 0 132 l 1
 544 132 l 1
EndSplineSet
EndChar

StartChar: gravecomb
Encoding: 768 768 127
Width: 0
VWidth: 0
GlyphClass: 4
Flags: HW
HStem: 526 289
VStem: -195 290
LayerCount: 2
Fore
SplineSet
-13 526 m 1
 -195 708 l 1
 -87 815 l 1
 95 633 l 1
 -13 526 l 1
EndSplineSet
EndChar

StartChar: acutecomb
Encoding: 769 769 128
Width: 0
VWidth: 0
GlyphClass: 4
Flags: HW
HStem: 526 289
VStem: -195 290
LayerCount: 2
Fore
SplineSet
-87 526 m 1
 -195 633 l 1
 -13 815 l 1
 95 708 l 1
 -87 526 l 1
EndSplineSet
EndChar

StartChar: uni0302
Encoding: 770 770 129
Width: 0
VWidth: 0
GlyphClass: 4
Flags: HW
HStem: 776.5 167<-79 -74.5 -25.5 -2.5>
VStem: -150.5 201
LayerCount: 2
Fore
SplineSet
-150.5 776.5 m 1
 -79 943.5 l 1
 -78.5 943.5 l 1
 -3 943.5 l 1
 -2.5 943.5 l 1
 50.5 776.5 l 1
 -25.5 776.5 l 1
 -46.5 883.5 l 1
 -74.5 776.5 l 1
 -150.5 776.5 l 1
EndSplineSet
EndChar

StartChar: tildecomb
Encoding: 771 771 130
Width: 0
VWidth: 0
GlyphClass: 4
Flags: HW
HStem: 812.25 76.291<-90.2727 54.864> 840.25 76<-166.384 -64.504>
VStem: -174.75 249.5<764.486 812.25>
LayerCount: 2
Fore
SplineSet
74.75 928.75 m 1
 74.75 852.75 l 2
 74.548828125 852 46.666015625 812.25 10.75 812.25 c 0
 -13.25 812.25 -15.25 812.25 -39.25 812.25 c 0
 -71.25 812.25 -83.75 840.25 -115.75 840.25 c 0
 -141.25 840.25 -174.75 812.25 -174.75 812.25 c 1
 -174.75 888.25 l 1
 -174.75 888.25 -142.75 916.25 -117.75 916.25 c 0
 -84.75 916.25 -70.75 888.75 -37.75 888.75 c 0
 -15.75 888.75 -15.25 888.75 6.75 888.541015625 c 0
 41.25 888.75 74.75 928.75 74.75 928.75 c 1
EndSplineSet
EndChar

StartChar: uni0306
Encoding: 774 774 131
Width: 0
VWidth: 0
GlyphClass: 4
Flags: HW
HStem: 817.75 52<-140.392 38.2935>
VStem: -247.25 14.5<975.212 1031.98> 133.75 12.5<979.659 1037.14>
LayerCount: 2
Fore
SplineSet
78.5 941.5 m 1
 78.5 937.5 78.5 932.5 78.5 928.5 c 0
 78.5 856.5 21.5 799.5 -49.5 799.5 c 0
 -121.5 799.5 -178.5 856.5 -178.5 928.5 c 0
 -178.5 932.5 -178.5 937.5 -178.5 941.5 c 1
 -101.5 941.5 l 1
 -102.5 937.5 -103.5 932.5 -103.5 928.5 c 0
 -103.5 898.5 -79.5 874.5 -49.5 874.5 c 0
 -19.5 874.5 3.5 898.5 3.5 928.5 c 0
 3.5 932.5 2.5 937.5 1.5 941.5 c 1
 78.5 941.5 l 1
EndSplineSet
EndChar

StartChar: uni0304
Encoding: 772 772 132
Width: 0
VWidth: 0
GlyphClass: 4
Flags: HW
HStem: 792 76<-186 86>
VStem: -186 272<792 868>
LayerCount: 2
Fore
SplineSet
86 868 m 1
 86 792 l 1
 -186 792 l 1
 -186 868 l 1
 86 868 l 1
EndSplineSet
EndChar

StartChar: dieresis
Encoding: 168 168 133
Width: 452
VWidth: 0
Flags: HW
HStem: 8 142<0 152 200 352>
VStem: 0 152<8 150> 200 152<8 150>
LayerCount: 2
Fore
SplineSet
0 8 m 1
 0 150 l 1
 152 150 l 1
 152 8 l 1
 0 8 l 1
200 8 m 1
 200 150 l 1
 352 150 l 1
 352 8 l 1
 200 8 l 1
EndSplineSet
EndChar

StartChar: uni0308
Encoding: 776 776 135
Width: 0
VWidth: 0
GlyphClass: 4
Flags: HW
HStem: 508 142<-226 -74 -26 126>
VStem: -226 152<508 650> -26 152<508 650>
LayerCount: 2
Fore
SplineSet
-226 508 m 1
 -226 650 l 1
 -74 650 l 1
 -74 508 l 1
 -226 508 l 1
-26 508 m 1
 -26 650 l 1
 126 650 l 1
 126 508 l 1
 -26 508 l 1
EndSplineSet
EndChar

StartChar: uni0307
Encoding: 775 775 136
Width: 0
VWidth: 0
GlyphClass: 4
Flags: HW
HStem: 508 142<-126 26>
VStem: -126 152<508 650>
LayerCount: 2
Fore
SplineSet
-126 508 m 1
 -126 650 l 1
 26 650 l 1
 26 508 l 1
 -126 508 l 1
EndSplineSet
EndChar

StartChar: hookabovecomb
Encoding: 777 777 137
Width: 0
VWidth: 0
GlyphClass: 4
Flags: HW
HStem: 442 77<-121 -63.343> 624 75<-121 -66.3337>
VStem: -54 75<528.071 612.495>
LayerCount: 2
Fore
SplineSet
-121 442 m 1
 -121 519 l 1
 -117 518 -112 517 -108 517 c 0
 -78 517 -54 540 -54 570 c 0
 -54 600 -78 624 -108 624 c 0
 -112 624 -117 623 -121 622 c 1
 -121 699 l 1
 -117 699 -112 699 -108 699 c 0
 -36 699 21 642 21 570 c 0
 21 499 -36 442 -108 442 c 0
 -112 442 -117 442 -121 442 c 1
EndSplineSet
EndChar

StartChar: uni030A
Encoding: 778 778 138
Width: 0
VWidth: 0
GlyphClass: 4
Flags: HW
HStem: 442 75<-61.8125 -38.1875> 624 75<-61.8125 -38.1875>
VStem: -180 76<527.334 613.111> 4 76<527.933 612.698>
LayerCount: 2
Fore
SplineSet
-50 624 m 0
 -54 624 -58 623 -62 622 c 1
 -62 623 l 1
 -87 618 -104 596 -104 570 c 0
 -104 544 -87 523 -62 518 c 1
 -62 519 l 1
 -58 518 -54 517 -50 517 c 0
 -46 517 -42 518 -38 519 c 1
 -38 518 l 1
 -13 523 4 544 4 570 c 0
 4 596 -13 618 -38 623 c 1
 -38 622 l 1
 -42 623 -46 624 -50 624 c 0
-51 442 m 0
 -52 442 -52 442 -53 442 c 0
 -55 442 -58 442 -60 442 c 0
 -127 447 -180 502 -180 570 c 0
 -180 638 -127 694 -60 699 c 0
 -58 699 -55 699 -53 699 c 0
 -52 699 -52 699 -51 699 c 0
 -50 699 -50 699 -49 699 c 0
 23 699 80 642 80 570 c 0
 80 499 23 442 -49 442 c 0
 -50 442 -50 442 -51 442 c 0
EndSplineSet
EndChar

StartChar: uni030B
Encoding: 779 779 139
Width: 0
VWidth: 0
GlyphClass: 4
Flags: HW
HStem: 524 289
LayerCount: 2
Fore
SplineSet
-230 526 m 1
 -338 633 l 1
 -156 815 l 1
 -48 708 l 1
 -230 526 l 1
56 524 m 1
 -52 631 l 1
 130 813 l 1
 238 706 l 1
 56 524 l 1
EndSplineSet
EndChar

StartChar: uni030C
Encoding: 780 780 140
Width: 0
VWidth: 0
GlyphClass: 4
Flags: HW
HStem: 776 168<-79 -74 -26 -2>
VStem: -150 200
LayerCount: 2
Fore
SplineSet
-150 944 m 1
 -74 944 l 1
 -46 836 l 1
 -26 944 l 1
 50 944 l 1
 -2 776 l 1
 -3 776 l 1
 -78 776 l 1
 -79 776 l 1
 -150 944 l 1
EndSplineSet
EndChar

StartChar: uni030F
Encoding: 783 783 141
Width: 0
VWidth: 0
GlyphClass: 4
Flags: HW
HStem: 524 289
LayerCount: 2
Fore
SplineSet
130 526 m 1
 -52 708 l 1
 56 815 l 1
 238 633 l 1
 130 526 l 1
-156 524 m 1
 -338 706 l 1
 -230 813 l 1
 -48 631 l 1
 -156 524 l 1
EndSplineSet
EndChar

StartChar: dotbelowcomb
Encoding: 803 803 142
Width: 0
VWidth: 0
GlyphClass: 4
Flags: HW
HStem: 8 142<-126 26>
VStem: -126 152<8 150>
LayerCount: 2
Fore
SplineSet
-126 8 m 1
 -126 150 l 1
 26 150 l 1
 26 8 l 1
 -126 8 l 1
EndSplineSet
EndChar

StartChar: uni0328
Encoding: 808 808 143
Width: 0
VWidth: 0
GlyphClass: 4
Flags: HW
HStem: -58 75<-33.6663 21> 124 75<-33.6663 21>
VStem: -121 75<28.0713 112.495>
LayerCount: 2
Fore
SplineSet
21 -58 m 1
 17 -58 12 -58 8 -58 c 0
 -64 -58 -121 -1 -121 70 c 0
 -121 142 -64 199 8 199 c 0
 12 199 17 199 21 199 c 1
 21 122 l 1
 17 123 12 124 8 124 c 0
 -22 124 -46 100 -46 70 c 0
 -46 40 -22 17 8 17 c 0
 12 17 17 18 21 19 c 1
 21 -58 l 1
EndSplineSet
EndChar

StartChar: uni0327
Encoding: 807 807 144
Width: 0
VWidth: 0
GlyphClass: 4
Flags: HW
HStem: -58 77<-121 -63.343> 124 75<-121 -66.3337>
VStem: -54 75<28.0713 112.495>
LayerCount: 2
Fore
SplineSet
-121 -58 m 1
 -121 19 l 1
 -117 18 -112 17 -108 17 c 0
 -78 17 -54 40 -54 70 c 0
 -54 100 -78 124 -108 124 c 0
 -112 124 -117 123 -121 122 c 1
 -121 199 l 1
 -117 199 -112 199 -108 199 c 0
 -36 199 21 142 21 70 c 0
 21 -1 -36 -58 -108 -58 c 0
 -112 -58 -117 -58 -121 -58 c 1
EndSplineSet
EndChar

StartChar: dotlessi
Encoding: 305 305 145
Width: 252
VWidth: 0
Flags: HW
HStem: 8 21G<0 152> 502 20G<0 152>
VStem: 0 152<8 522>
LayerCount: 2
Fore
SplineSet
0 522 m 1
 152 522 l 1
 152 8 l 1
 0 8 l 1
 0 522 l 1
EndSplineSet
EndChar

StartChar: uni0313
Encoding: 787 787 292
Width: 0
VWidth: 400
GlyphClass: 4
Flags: HW
HStem: 276 274<-83.2324 -30.8182>
VStem: -126 152<408 550>
LayerCount: 2
Fore
SplineSet
-126 408 m 1
 -126 550 l 1
 26 550 l 1
 26 408 l 1
 -34 276 l 1
 -92 280 l 1
 -83.232421875 408 l 1
 -126 408 l 1
EndSplineSet
EndChar

StartChar: uni0312
Encoding: 786 786 293
Width: 0
VWidth: 400
GlyphClass: 4
Flags: HW
HStem: 276 274<-69.1818 -16.7676>
VStem: -126 152<276 418>
LayerCount: 2
Fore
SplineSet
26 418 m 1
 26 276 l 1
 -126 276 l 1
 -126 418 l 1
 -66 550 l 1
 -8 546 l 1
 -16.767578125 418 l 1
 26 418 l 1
EndSplineSet
EndChar

StartChar: uni0326
Encoding: 806 806 297
Width: 0
VWidth: 100
GlyphClass: 4
Flags: HW
HStem: -24 274<-83.2324 -30.8182>
VStem: -126 152<108 250>
LayerCount: 2
Fore
SplineSet
-126 108 m 1
 -126 250 l 1
 26 250 l 1
 26 108 l 1
 -34 -24 l 1
 -92 -20 l 1
 -83.232421875 108 l 1
 -126 108 l 1
EndSplineSet
EndChar

StartChar: multiply
Encoding: 215 215 308
Width: 724
VWidth: 200
Flags: HW
HStem: 209 20G<18.4269 179 431.563 624> 703 20G<17.4369 186 430.573 623>
LayerCount: 2
Fore
SplineSet
0 723 m 1
 186 721 l 1
 315.491210938 569.926757812 l 1
 448 722 l 1
 623 721 l 1
 402.584960938 468.317382812 l 1
 624 210 l 1
 449 208 l 1
 312.291015625 364.8046875 l 1
 179 212 l 1
 1 209 l 1
 224.5 465.5 l 1
 0 723 l 1
EndSplineSet
EndChar

StartChar: periodcentered
Encoding: 183 183 309
Width: 252
VWidth: 400
Flags: HW
HStem: 408 142<0 152>
VStem: 0 152<408 550>
LayerCount: 2
Fore
SplineSet
0 408 m 1
 0 550 l 1
 152 550 l 1
 152 408 l 1
 0 408 l 1
EndSplineSet
EndChar

StartChar: registered
Encoding: 174 174 310
Width: 864
VWidth: 0
Flags: HW
LayerCount: 2
Fore
SplineSet
616.760742188 388.5546875 m 0
 616.760742188 520.799804688 512.1953125 628.44140625 382 628.44140625 c 0
 251.8046875 628.44140625 147.239257812 520.799804688 147.239257812 388.5546875 c 0
 147.239257812 255.284179688 251.8046875 147.642578125 382 147.642578125 c 0
 512.1953125 147.642578125 616.760742188 255.284179688 616.760742188 388.5546875 c 0
660.477539062 389.865234375 m 0
 660.477539062 230.942382812 535.819335938 102.638671875 382 102.638671875 c 0
 228.180664062 102.638671875 103.522460938 230.942382812 103.522460938 389.865234375 c 0
 103.522460938 548.057617188 228.180664062 676.361328125 382 676.361328125 c 0
 535.819335938 676.361328125 660.477539062 548.057617188 660.477539062 389.865234375 c 0
345.185546875 255.545898438 m 1
 289.78125 255.545898438 l 1
 289.78125 538.3984375 l 1
 345.185546875 538.3984375 l 2
 348.1015625 538.762695312 351.017578125 538.762695312 353.932617188 538.762695312 c 0
 406.057617188 538.762695312 447.974609375 496.845703125 447.974609375 445.0859375 c 0
 447.974609375 404.137695312 422.103515625 369.48828125 385.73828125 356.512695312 c 1
 458.1796875 253.359375 l 1
 407.150390625 253.359375 l 1
 346.977539062 351.228515625 l 2
 346.37890625 351.275390625 345.783203125 351.334960938 345.185546875 351.409179688 c 1
 345.185546875 255.545898438 l 1
345.185546875 482.629882812 m 2
 345.185546875 407.178710938 l 2
 348.1015625 406.44921875 351.017578125 406.083984375 353.932617188 406.083984375 c 0
 375.802734375 406.083984375 392.935546875 423.216796875 392.935546875 445.0859375 c 0
 392.935546875 466.591796875 375.802734375 483.72265625 353.932617188 483.72265625 c 0
 351.017578125 483.72265625 348.1015625 483.358398438 345.185546875 482.629882812 c 2
EndSplineSet
EndChar

StartChar: copyright
Encoding: 169 169 311
Width: 864
VWidth: 0
Flags: HW
LayerCount: 2
Fore
SplineSet
675.451171875 388.318359375 m 0
 675.451171875 553.625 544.744140625 688.176757812 382 688.176757812 c 0
 219.255859375 688.176757812 88.548828125 553.625 88.548828125 388.318359375 c 0
 88.548828125 221.73046875 219.255859375 87.177734375 382 87.177734375 c 0
 544.744140625 87.177734375 675.451171875 221.73046875 675.451171875 388.318359375 c 0
730.096679688 389.95703125 m 0
 730.096679688 191.302734375 574.274414062 30.923828125 382 30.923828125 c 0
 189.725585938 30.923828125 33.9033203125 191.302734375 33.9033203125 389.95703125 c 0
 33.9033203125 587.697265625 189.725585938 748.076171875 382 748.076171875 c 0
 574.274414062 748.076171875 730.096679688 587.697265625 730.096679688 389.95703125 c 0
443.25 205.623046875 m 1
 437.904296875 205.086914062 432.483398438 204.8125 427 204.8125 c 0
 337.625 204.8125 265.75 276.6875 265.75 365.4375 c 0
 265.75 454.8125 337.625 526.6875 427 526.6875 c 0
 432.483398438 526.6875 437.904296875 526.413085938 443.25 525.876953125 c 1
 443.25 430.353515625 l 1
 438.045898438 431.634765625 432.6015625 432.3125 427 432.3125 c 0
 389.5 432.3125 360.125 402.9375 360.125 365.4375 c 0
 360.125 328.5625 389.5 299.1875 427 299.1875 c 0
 432.6015625 299.1875 438.045898438 299.865234375 443.25 301.145507812 c 1
 443.25 205.623046875 l 1
EndSplineSet
EndChar

StartChar: brokenbar
Encoding: 166 166 312
Width: 252
VWidth: 0
Flags: HW
HStem: 8 21G<0 152> 502 20G<0 152> 640 142<0 152>
VStem: 0 152<8 522 640 782>
LayerCount: 2
Fore
SplineSet
152 843 m 1
 152 469 l 1
 0 469 l 1
 0 843 l 1
 152 843 l 1
152 380 m 1
 152 -20 l 1
 0 -20 l 1
 0 380 l 1
 152 380 l 1
EndSplineSet
EndChar

StartChar: section
Encoding: 167 167 313
Width: 512
VWidth: 0
Flags: HW
LayerCount: 2
Fore
SplineSet
-75 118 m 1
 0 243 l 1
 6 238 12 233 22 228 c 0
 73 198 137 215 167 263 c 0
 199 319 149 367 97 376 c 1
 -29 444 -113 559 -29 700 c 0
 -2.7607421875 743.482421875 35.703125 776.145507812 80.123046875 796.461914062 c 1
 16.1708984375 862.720703125 -8.3544921875 949.369140625 51 1049 c 0
 121 1165 278 1204 403 1137 c 0
 409 1131 417 1128 424 1122 c 1
 349 997 l 1
 343 1002 337 1007 327 1012 c 0
 276 1040 212 1024 182 975 c 0
 149 920 182 839 246 828 c 1
 260.34765625 820.274414062 274.423828125 812.217773438 287.923828125 803.76953125 c 0
 299.82421875 799.388671875 311.545898438 794.139648438 323 788 c 0
 329 782 337 779 344 773 c 1
 339.928710938 766.21484375 l 1
 405.184570312 710.543945312 437.126953125 639.032226562 377 540 c 0
 345.942382812 487.336914062 297.055664062 450.4765625 241.283203125 432.063476562 c 1
 318.58984375 374.361328125 362.611328125 299.06640625 297 191 c 0
 228 74 71 35 -54 103 c 0
 -60 109 -68 112 -75 118 c 1
89.2490234375 584.6796875 m 0
 92.80859375 582.120117188 96.8798828125 579.559570312 102 577 c 0
 153 547 217 564 247 612 c 0
 256.247070312 628.18359375 258.647460938 643.698242188 256.12890625 657.796875 c 0
 253.456054688 659.53125 250.46875 661.265625 247 663 c 0
 196 691 132 675 102 626 c 0
 94.3369140625 613.227539062 90.232421875 599.053710938 89.2490234375 584.6796875 c 0
EndSplineSet
EndChar

StartChar: paragraph
Encoding: 182 182 314
Width: 776
VWidth: 0
Flags: HW
HStem: 275 151<193.471 282> 639 150<193.591 281.625>
VStem: 282 152<13 276 426.026 638.974> 0 151<468.471 596.934>
LayerCount: 2
Fore
SplineSet
282 13 m 1
 282 276 l 1
 274 275 266 275 258 275 c 0
 115 275 0 390 0 533 c 0
 0 675 115 790 258 790 c 0
 266 790 274 790 282 789 c 2
 434 789 l 1
 434 13 l 1
 282 13 l 1
500 784 m 1
 652 784 l 1
 652 8 l 1
 500 8 l 1
 500 784 l 1
EndSplineSet
EndChar

StartChar: Thorn
Encoding: 222 222 315
Width: 512
VWidth: 0
Flags: HW
HStem: -192 21G<0 152> 5 151<152 240.529> 369 150<152.375 240.409>
VStem: 0 152<-192 6 156.026 368.974> 283 151<198.471 326.934>
LayerCount: 2
Fore
SplineSet
152 571 m 1
 152 364 l 1
 160 362 168 361 176 361 c 0
 236 361 283 408 283 468 c 0
 283 527 236 574 176 574 c 0
 168 574 160 573 152 571 c 1
152 13 m 1
 0 13 l 1
 0 913 l 1
 147 913 l 1
 152 724 l 1
 160 725 168 725 176 725 c 0
 319 725 434 610 434 468 c 0
 434 325 319 210 176 210 c 0
 168 210 160 210 152 211 c 1
 152 13 l 1
EndSplineSet
EndChar

StartChar: germandbls
Encoding: 223 223 316
Width: 771
VWidth: 0
Flags: HW
LayerCount: 2
Fore
SplineSet
188.615234375 57 m 1
 255.615234375 169 l 1
 261.615234375 163 268.615234375 160 277.615234375 157 c 0
 330.615234375 133 374.615234375 141 400.615234375 172 c 0
 429.615234375 206 378.615234375 212 324.615234375 221 c 1
 196.615234375 272 125.615234375 355 200.615234375 444 c 0
 261.99609375 518.046875 306.811523438 608.086914062 431.775390625 559.022460938 c 0
 432.515625 559.0078125 433.256835938 559 434 559 c 0
 494 559 541 606 541 666 c 0
 541 730.255859375 165.541992188 742.190429688 123 693 c 1
 123 12 l 1
 -44 12 l 1
 -41 694 l 1
 -25 749.333007812 5.3330078125 794.333007812 50 829 c 0
 189.345703125 937.1484375 692 866.984375 692 666 c 0
 692 293.000976562 490.864257812 547.412109375 375.615234375 410 c 0
 345.615234375 375 342.615234375 296 406.615234375 285 c 1
 525.615234375 235 628.615234375 174 552.615234375 85 c 0
 490.615234375 9 337.615234375 -11 210.615234375 44 c 0
 203.615234375 46 196.615234375 51 188.615234375 57 c 1
EndSplineSet
EndChar

StartChar: thorn
Encoding: 254 254 317
Width: 512
VWidth: 0
Flags: HW
HStem: -192 21G<0 152> 5 151<152 240.529> 369 150<152.375 240.409>
VStem: 0 152<-192 6 156.026 368.974> 283 151<198.471 326.934>
LayerCount: 2
Fore
SplineSet
152 369 m 1
 152 162 l 1
 160 160 168 159 176 159 c 0
 236 159 283 206 283 266 c 0
 283 325 236 372 176 372 c 0
 168 372 160 371 152 369 c 1
152 -189 m 1
 0 -189 l 1
 0 711 l 1
 147 711 l 1
 152 522 l 1
 160 523 168 523 176 523 c 0
 319 523 434 408 434 266 c 0
 434 123 319 8 176 8 c 0
 168 8 160 8 152 9 c 1
 152 -189 l 1
EndSplineSet
EndChar

StartChar: AE
Encoding: 198 198 318
Width: 1024
VWidth: 0
Flags: HW
HStem: 7 152<508 923> 343 152<508 815> 636 152<508 923>
VStem: 356 568<7 159 636 788> 356 152<159 343 495 636>
LayerCount: 2
Fore
SplineSet
815 495 m 1
 816 343 l 1
 508 343 l 1
 508 159 l 1
 923 159 l 1
 924 7 l 1
 357 7 l 1
 356.993164062 8 l 1
 356 8 l 1
 356 237 l 1
 211.038085938 237 l 1
 152 10 l 1
 0 10 l 1
 200 788 l 1
 923 788 l 1
 924 636 l 1
 508 636 l 1
 508 495 l 1
 815 495 l 1
356.827148438 377 m 1
 291.200195312 545.223632812 l 1
 247.448242188 377 l 1
 356.827148438 377 l 1
EndSplineSet
EndChar

StartChar: Eth
Encoding: 208 208 319
Width: 690
VWidth: 0
Flags: HW
HStem: -3.9789 157.014<212 297.489> 621.965 161.035<212 303.477>
VStem: 60 152<-4 -3.9789 153.035 621.965> 437 153<292.064 485.736>
LayerCount: 2
Fore
SplineSet
60 778 m 1
 109.62109375 770.911132812 158.3828125 783 208 783 c 0
 419 783 590 607 590 390 c 0
 590 173.37890625 421.157226562 -1.771484375 212 -3.978515625 c 2
 60 -4 l 1
 60 354 l 1
 0 354 l 1
 0 506 l 1
 60 506 l 1
 60 778 l 1
212 153.03515625 m 1
 337.134765625 155.211914062 437 259.368164062 437 388 c 0
 437 515.642578125 337.134765625 619.788085938 212 621.96484375 c 1
 212 506 l 1
 271 506 l 1
 271 354 l 1
 212 354 l 1
 212 153.03515625 l 1
EndSplineSet
EndChar

StartChar: Oslash
Encoding: 216 216 320
Width: 864
VWidth: 0
Flags: HW
HStem: -4 157<287.027 476.973> 622 161<287.027 476.973>
VStem: 0 153<288.712 488.774> 611 153<288.712 488.774>
LayerCount: 2
Fore
SplineSet
548.806640625 548.438476562 m 1
 324.731445312 160.348632812 l 1
 343.01953125 155.55078125 362.206054688 153 382 153 c 0
 509 153 611 258 611 388 c 0
 611 450.03125 587.415039062 506.51171875 548.806640625 548.438476562 c 1
444.91796875 613.094726562 m 1
 424.9453125 618.89453125 403.842773438 622 382 622 c 0
 255 622 153 517 153 388 c 0
 153 323.299804688 178.265625 264.791992188 219.302734375 222.33984375 c 1
 444.91796875 613.094726562 l 1
764 390 m 0
 764 172 593 -4 382 -4 c 0
 333.677734375 -4 287.452148438 5.2314453125 244.899414062 22.0830078125 c 1
 190 -73 l 1
 84 -12 l 1
 140.001953125 84.9931640625 l 1
 54.53125 157.181640625 0 266.893554688 0 390 c 0
 0 607 171 783 382 783 c 0
 433.051757812 783 481.76171875 772.697265625 526.275390625 754.002929688 c 1
 569 828 l 1
 675 767 l 1
 629.946289062 688.96875 l 1
 711.991210938 616.87890625 764 509.674804688 764 390 c 0
EndSplineSet
EndChar

StartChar: ae
Encoding: 230 230 321
Width: 905
VWidth: 0
Flags: HW
HStem: 13 151<481.073 794.239> 215.32 128.941<468.301 625.264> 377 151<480.682 610.767>
VStem: 288 517<218.188 340.811>
LayerCount: 2
Fore
SplineSet
804 270 m 0
 804 251.328125 805 233 805 218 c 1
 457.985351562 215.3203125 l 1
 476.489257812 184.45703125 506.416015625 164 546 164 c 0
 560.516601562 164 782 167 795 172 c 1
 795 16 l 1
 782 14 559.946289062 13 546 13 c 0
 513.931640625 13 483.271484375 18.783203125 455 29.357421875 c 1
 282 11 l 1
 282 19 l 1
 274 18 266 18 258 18 c 0
 115 18 0 133 0 276 c 0
 0 418 115 525 258 525 c 0
 266 525 274 525 282 524 c 2
 455 524 l 1
 546 528 l 1
 688 528 804 413 804 270 c 0
282 379 m 1
 274 381 266 382 258 382 c 0
 198 382 151 335 151 276 c 0
 151 216 198 169 258 169 c 0
 266 169 274 170 282 172 c 1
 282 379 l 1
452.680664062 306.67578125 m 1
 644.883789062 304.1015625 l 1
 620.395507812 330.966796875 585.046875 385.099609375 545.8046875 385.099609375 c 0
 507.188476562 385.099609375 476.879882812 332.025390625 452.680664062 306.67578125 c 1
EndSplineSet
EndChar

StartChar: eth
Encoding: 240 240 322
Width: 612
VWidth: 0
Flags: HW
HStem: 13 151<192.454 282> 377 151<193.471 282>
VStem: 0 151<206.066 334.529> 282 152<14 14.1035 164.011 376.989 526.896 790>
LayerCount: 2
Fore
SplineSet
85 790 m 1
 237 790 l 1
 241.977539062 785.721679688 246.989257812 781.3984375 252.025390625 777.025390625 c 1
 290 815 l 1
 377 739 l 1
 336.727539062 698.727539062 l 1
 480.248046875 554.008789062 595.58203125 352.99609375 434 14 c 1
 282 14 l 1
 282 14.103515625 l 1
 274.095703125 13.373046875 266.08984375 13 258 13 c 0
 115 13 0 128 0 270 c 0
 0 413 115 528 258 528 c 0
 266.08984375 528 274.095703125 527.626953125 282 526.896484375 c 1
 231.860351562 593.860351562 l 1
 195 557 l 1
 108 633 l 1
 162.069335938 687.069335938 l 1
 85 790 l 1
259.955078125 376.982421875 m 0
 251.641601562 376.842773438 243.393554688 375.848632812 236 374 c 1
 236 374.828125 l 1
 186.8984375 364.9453125 151 322.4375 151 270 c 0
 151 218.436523438 186.8984375 176.0390625 236 166.169921875 c 1
 236 167 l 1
 243.393554688 165.151367188 251.641601562 164.157226562 259.955078125 164.017578125 c 0
 268.23046875 164.163085938 276.280273438 165.234375 284 167.131835938 c 1
 284 166.169921875 l 1
 333.1015625 176.0390625 369 218.436523438 369 270 c 0
 369 322.4375 333.1015625 364.9453125 284 374.828125 c 1
 284 373.864257812 l 1
 276.280273438 375.765625 268.23046875 376.836914062 259.955078125 376.982421875 c 0
EndSplineSet
EndChar

StartChar: divide
Encoding: 247 247 323
Width: 644
VWidth: 0
Flags: HW
HStem: 8 142<0 152> 408 142<0 152>
VStem: 0 152<8 150 408 550>
LayerCount: 2
Fore
SplineSet
200 161 m 1
 200 303 l 1
 352 303 l 1
 352 161 l 1
 200 161 l 1
200 561 m 1
 200 703 l 1
 352 703 l 1
 352 561 l 1
 200 561 l 1
544 506 m 1
 544 354 l 1
 0 354 l 1
 0 506 l 1
 544 506 l 1
EndSplineSet
EndChar

StartChar: oslash
Encoding: 248 248 324
Width: 616
VWidth: 0
Flags: HW
HStem: 13 21G<257.408 258.151 261.478 333.5> 508 20G<257.408 258.151 261.478 333.5>
VStem: 0 151<207.14 333.449> 369 151<205.844 334.753>
LayerCount: 2
Fore
SplineSet
273.872070312 165.151367188 m 1
 277.303710938 165.653320312 280.682617188 166.31640625 284 167.131835938 c 1
 284 166.169921875 l 1
 333.1015625 176.0390625 369 218.436523438 369 270 c 0
 369 285.224609375 365.973632812 299.612304688 360.477539062 312.607421875 c 1
 273.872070312 165.151367188 l 1
256.393554688 376.870117188 m 1
 249.299804688 376.541015625 242.3359375 375.583984375 236 374 c 1
 236 374.828125 l 1
 186.8984375 364.9453125 151 322.4375 151 270 c 0
 151 251.526367188 155.607421875 234.229492188 163.780273438 219.182617188 c 1
 256.393554688 376.870117188 l 1
0 270 m 0
 0 410.959960938 111.197265625 528 258 528 c 0
 258.301757812 528 258.603515625 527.999023438 258.905273438 527.998046875 c 0
 259.92578125 528 260.956054688 528 262 528 c 0
 288.643554688 528 314.315429688 524.0078125 338.452148438 516.5859375 c 1
 408 635 l 1
 514 574 l 1
 443.41796875 453.82421875 l 1
 490.752929688 407.109375 520 342.115234375 520 270 c 0
 520 128 405 13 262 13 c 0
 260.956054688 13 259.92578125 13.001953125 258.90625 13.001953125 c 0
 258.603515625 13.001953125 258.301757812 13 258 13 c 0
 232.426757812 13 211.399414062 16.169921875 189.807617188 22.0205078125 c 1
 134 -73 l 1
 28 -12 l 1
 82.7353515625 81.1943359375 l 1
 31.7939453125 128.135742188 0 195.3359375 0 270 c 0
EndSplineSet
EndChar

StartChar: dcaron
Encoding: 271 271 326
Width: 710
VWidth: 0
Flags: HW
HStem: 13 151<192.454 282> 377 151<193.471 282>
VStem: 0 151<206.066 334.529> 282 152<14 14.1035 164.011 376.989 526.896 790>
LayerCount: 2
Fore
SplineSet
282 166.66015625 m 1
 282 374.336914062 l 1
 274.282226562 376.081054688 266.249023438 377 258 377 c 0
 198 377 151 330 151 270 c 0
 151 211 198 164 258 164 c 0
 266.249023438 164 274.282226562 164.918945312 282 166.66015625 c 1
282 790 m 1
 434 790 l 1
 434 14 l 1
 282 14 l 1
 282 14.103515625 l 1
 274.095703125 13.373046875 266.08984375 13 258 13 c 0
 115 13 0 128 0 270 c 0
 0 413 115 528 258 528 c 0
 266.08984375 528 274.095703125 527.626953125 282 526.896484375 c 1
 282 790 l 1
466 542 m 1
 466 799 l 1
 618 799 l 1
 573 542 l 1
 466 542 l 1
EndSplineSet
EndChar

StartChar: dcroat
Encoding: 273 273 327
Width: 585
VWidth: 0
Flags: HW
HStem: 13 151<192.454 282> 377 151<193.471 282>
VStem: 0 151<206.066 334.529> 282 152<14 14.1035 164.011 376.989 526.896 790>
LayerCount: 2
Fore
SplineSet
282 166.66015625 m 1
 282 374.336914062 l 1
 274.282226562 376.081054688 266.249023438 377 258 377 c 0
 198 377 151 330 151 270 c 0
 151 211 198 164 258 164 c 0
 266.249023438 164 274.282226562 164.918945312 282 166.66015625 c 1
282 790 m 1
 434 790 l 1
 434 749 l 1
 485 749 l 1
 485 597 l 1
 434 597 l 1
 434 14 l 1
 282 14 l 1
 282 14.103515625 l 1
 274.095703125 13.373046875 266.08984375 13 258 13 c 0
 115 13 0 128 0 270 c 0
 0 413 115 528 258 528 c 0
 266.08984375 528 274.095703125 527.626953125 282 526.896484375 c 1
 282 597 l 1
 214 597 l 1
 214 749 l 1
 282 749 l 1
 282 790 l 1
EndSplineSet
EndChar

StartChar: Hbar
Encoding: 294 294 328
Width: 652
VWidth: 0
Flags: HW
HStem: 8 21G<0 152 400 552> 343 152<152 400> 764 20G<0 152 400 552>
VStem: 0 152<8 343 495 784> 400 152<8 343 495 784>
LayerCount: 2
Fore
SplineSet
152 571 m 1
 152 495 l 1
 400 495 l 1
 400 571 l 1
 152 571 l 1
400 784 m 1
 552 784 l 1
 552 723 l 1
 597 723 l 1
 597 571 l 1
 552 571 l 1
 552 8 l 1
 400 8 l 1
 400 343 l 1
 152 343 l 1
 152 8 l 1
 0 8 l 1
 0 571 l 1
 -50 571 l 1
 -50 723 l 1
 0 723 l 1
 0 784 l 1
 152 784 l 1
 152 723 l 1
 400 723 l 1
 400 784 l 1
EndSplineSet
EndChar

StartChar: hbar
Encoding: 295 295 329
Width: 658
VWidth: 0
Flags: HW
HStem: 654 152<11 555>
LayerCount: 2
Fore
SplineSet
288 741 m 1
 288 589 l 1
 230 589 l 1
 230 522 l 1
 256 530 282 534 310 534 c 0
 428 534 524 456 555 347 c 1
 558 16 l 1
 391 16 l 1
 391 346 l 1
 371 369 343 383 310 383 c 0
 278 383 250 370 230 348 c 1
 230 16 l 1
 61 16 l 1
 61 589 l 1
 0 589 l 1
 0 741 l 1
 61 741 l 1
 61 778 l 1
 230 778 l 1
 230 741 l 1
 288 741 l 1
EndSplineSet
EndChar

StartChar: lcaron
Encoding: 318 318 332
Width: 419
VWidth: 0
Flags: HW
HStem: 7 151<183.008 313.885> 751 20G<0 167>
VStem: 3 164<176.215 771>
LayerCount: 2
Fore
SplineSet
319 16 m 1
 296.333007812 10 272.666992188 7 248 7 c 0
 190 7 138.666992188 24.3330078125 94 59 c 0
 49.3330078125 93.6669921875 19 138.666992188 3 194 c 1
 0 771 l 1
 167 771 l 1
 167 195 l 1
 188.333007812 170.333007812 215.333007812 158 248 158 c 0
 274.666992188 158 298.333007812 166.666992188 319 184 c 1
 319 16 l 1
210 514 m 1
 210 771 l 1
 362 771 l 1
 317 514 l 1
 210 514 l 1
EndSplineSet
EndChar

StartChar: Lslash
Encoding: 321 321 333
Width: 718
VWidth: 0
Flags: HW
HStem: 7 152<152 617> 764 20G<0 152>
VStem: 0 152<159 784>
LayerCount: 2
Fore
SplineSet
0 784 m 1
 152 784 l 1
 152 159 l 1
 617 159 l 1
 618 7 l 1
 1 7 l 1
 0.9931640625 8 l 1
 0 8 l 1
 0 784 l 1
EndSplineSet
EndChar

StartChar: Lcaron
Encoding: 317 317 334
Width: 718
VWidth: 0
Flags: HW
HStem: 7 152<152 617> 764 20G<0 152>
VStem: 0 152<159 784>
LayerCount: 2
Fore
SplineSet
0 784 m 1
 152 784 l 1
 152 159 l 1
 617 159 l 1
 618 7 l 1
 1 7 l 1
 0.9931640625 8 l 1
 0 8 l 1
 0 784 l 1
202 530 m 1
 202 787 l 1
 354 787 l 1
 309 530 l 1
 202 530 l 1
EndSplineSet
EndChar

StartChar: lslash
Encoding: 322 322 335
Width: 419
VWidth: 0
Flags: HW
HStem: 7 151<183.008 313.885> 751 20G<0 167>
VStem: 3 164<176.215 771>
LayerCount: 2
Fore
SplineSet
319 16 m 1
 296.333007812 10 272.666992188 7 248 7 c 0
 190 7 138.666992188 24.3330078125 94 59 c 0
 49.3330078125 93.6669921875 19 138.666992188 3 194 c 1
 0 771 l 1
 167 771 l 1
 167 195 l 1
 188.333007812 170.333007812 215.333007812 158 248 158 c 0
 274.666992188 158 298.333007812 166.666992188 319 184 c 1
 319 16 l 1
EndSplineSet
EndChar

StartChar: OE
Encoding: 338 338 336
Width: 1068
VWidth: 0
Flags: HW
HStem: 7 152<552 967> 343 152<552 859> 636 152<552 967>
VStem: 400 568<7 159 636 788> 400 152<159 343 495 636>
LayerCount: 2
Fore
SplineSet
382 622 m 0
 255 622 153 517 153 388 c 0
 153 258 255 153 382 153 c 0
 388.059570312 153 394.0625 153.239257812 400 153.708007812 c 1
 400 621.291992188 l 1
 394.0625 621.760742188 388.059570312 622 382 622 c 0
859 495 m 1
 860 343 l 1
 552 343 l 1
 552 159 l 1
 967 159 l 1
 968 7 l 1
 455 7 l 1
 455 3.169921875 l 1
 431.37109375 -1.5361328125 406.965820312 -4 382 -4 c 0
 171 -4 0 172 0 390 c 0
 0 607 171 783 382 783 c 0
 388.034179688 783 394.03515625 782.856445312 400 782.571289062 c 1
 400 784 l 1
 400 788 l 1
 967 788 l 1
 968 636 l 1
 552 636 l 1
 552 495 l 1
 859 495 l 1
EndSplineSet
EndChar

StartChar: oe
Encoding: 339 339 337
Width: 1000
VWidth: 0
Flags: HW
LayerCount: 2
Fore
SplineSet
258.90625 13.001953125 m 0
 258.603515625 13.001953125 258.301757812 13 258 13 c 0
 256.815429688 13 255.631835938 13.0078125 254.451171875 13.0234375 c 0
 249.662109375 13.0693359375 245.004882812 13.205078125 240.133789062 13.6025390625 c 0
 105.541992188 22.708984375 0 133.96484375 0 270 c 0
 0 406.991210938 105.5390625 518.286132812 240.12890625 527.397460938 c 0
 245.001953125 527.794921875 249.66015625 527.930664062 254.451171875 527.9765625 c 0
 255.631835938 527.9921875 256.815429688 528 258 528 c 0
 258.301757812 528 258.603515625 527.999023438 258.905273438 527.998046875 c 0
 259.92578125 528 260.956054688 528 262 528 c 0
 336.818359375 528 403.971679688 496.51953125 451 446.018554688 c 1
 498.028320312 496.51953125 565.181640625 528 640 528 c 0
 782 528 898 413 898 270 c 0
 898 251.328125 899 233 899 218 c 1
 547.985351562 215.3203125 l 1
 566.489257812 184.45703125 600.416015625 164 640 164 c 0
 654.516601562 164 876 167 889 172 c 1
 889 16 l 1
 876 14 653.946289062 13 640 13 c 0
 565.181640625 13 498.028320312 44.48046875 451 94.837890625 c 1
 403.971679688 44.48046875 336.818359375 13 262 13 c 0
 260.956054688 13 259.92578125 13.001953125 258.90625 13.001953125 c 0
542.680664062 306.67578125 m 1
 738.883789062 304.1015625 l 1
 714.395507812 330.966796875 679.046875 385.099609375 639.8046875 385.099609375 c 0
 601.188476562 385.099609375 566.879882812 332.025390625 542.680664062 306.67578125 c 1
259.955078125 376.982421875 m 0
 251.641601562 376.842773438 243.393554688 375.848632812 236 374 c 1
 236 374.828125 l 1
 186.8984375 364.9453125 151 322.4375 151 270 c 0
 151 218.436523438 186.8984375 176.0390625 236 166.169921875 c 1
 236 167 l 1
 243.393554688 165.151367188 251.641601562 164.157226562 259.955078125 164.017578125 c 0
 268.23046875 164.163085938 276.280273438 165.234375 284 167.131835938 c 1
 284 166.169921875 l 1
 333.1015625 176.0390625 369 218.436523438 369 270 c 0
 369 322.4375 333.1015625 364.9453125 284 374.828125 c 1
 284 373.864257812 l 1
 276.280273438 375.765625 268.23046875 376.836914062 259.955078125 376.982421875 c 0
EndSplineSet
EndChar

StartChar: tcaron
Encoding: 357 357 338
Width: 630
VWidth: 0
Flags: HW
HStem: 7 151<278.285 409.024> 374 152<0 96.274 262 359> 751 20G<95 262>
VStem: 96.274 165.726<178.881 374 526 771>
LayerCount: 2
Fore
SplineSet
414 16 m 1
 391 10 368 7 343 7 c 0
 225 7 129 85 98 194 c 1
 97.064453125 374 l 1
 0 374 l 1
 0 526 l 1
 96.2734375 526 l 1
 95 771 l 1
 262 771 l 1
 262 526 l 1
 359 526 l 1
 359 374 l 1
 262 374 l 1
 262 195 l 1
 282 172 310 158 343 158 c 0
 370 158 395 168 414 184 c 1
 414 16 l 1
391 514 m 1
 391 771 l 1
 543 771 l 1
 498 514 l 1
 391 514 l 1
EndSplineSet
EndChar

StartChar: uni0237
Encoding: 567 567 343
Width: 419
VWidth: 0
Flags: HW
HStem: -194 151<5.4451 135.159> 507 20G<152 319> 640 142<164 316>
VStem: 152 164<-22.1189 527> 164 152<640 782>
LayerCount: 2
Fore
SplineSet
0 -185 m 1
 0 -17 l 1
 19 -33 44 -43 71 -43 c 0
 104 -43 132 -29 152 -6 c 1
 152 527 l 1
 319 527 l 1
 316 -7 l 1
 285 -116 189 -194 71 -194 c 0
 46 -194 23 -191 0 -185 c 1
EndSplineSet
EndChar

StartChar: uni1E9E
Encoding: 7838 7838 359
Width: 771
VWidth: 0
Flags: HW
LayerCount: 2
Fore
SplineSet
188.615234375 57 m 1
 255.615234375 169 l 1
 261.615234375 163 268.615234375 160 277.615234375 157 c 0
 330.615234375 133 374.615234375 141 400.615234375 172 c 0
 429.615234375 206 378.615234375 212 324.615234375 221 c 1
 196.615234375 272 125.615234375 450 200.615234375 539 c 0
 261.99609375 613.046875 306.811523438 703.086914062 431.775390625 654.022460938 c 0
 432.515625 654.0078125 433.256835938 654 434 654 c 0
 494 654 541 606 541 666 c 0
 541 730.255859375 165.541992188 742.190429688 123 693 c 1
 123 12 l 1
 -44 12 l 1
 -41 694 l 1
 -25 749.333007812 5.3330078125 794.333007812 50 829 c 0
 189.345703125 937.1484375 692 866.984375 692 666 c 0
 692 293.000976562 490.864257812 642.412109375 375.615234375 505 c 0
 345.615234375 470 342.615234375 391 406.615234375 380 c 1
 525.615234375 330 628.615234375 174 552.615234375 85 c 0
 490.615234375 9 337.615234375 -11 210.615234375 44 c 0
 203.615234375 46 196.615234375 51 188.615234375 57 c 1
EndSplineSet
EndChar

StartChar: uni0982
Encoding: 2434 2434 365
Width: 445
VWidth: 0
Flags: HW
HStem: 92 75<448.188 471.812> 274 75<448.188 471.812> 493 75<143.188 166.812> 675 75<143.188 166.812>
VStem: 25 76<578.334 664.111> 209 76<578.933 663.698> 330 76<177.334 263.111> 514 76<177.933 262.698>
LayerCount: 2
Fore
SplineSet
108 437 m 5
 341 79 l 5
 235 18 l 5
 2 376 l 5
 108 437 l 5
155 675 m 0
 151 675 147 674 143 673 c 1
 143 674 l 1
 118 669 101 647 101 621 c 0
 101 595 118 574 143 569 c 1
 143 570 l 1
 147 569 151 568 155 568 c 0
 159 568 163 569 167 570 c 1
 167 569 l 1
 192 574 209 595 209 621 c 0
 209 647 192 669 167 674 c 1
 167 673 l 1
 163 674 159 675 155 675 c 0
154 493 m 0
 153 493 153 493 152 493 c 0
 150 493 147 493 145 493 c 0
 78 498 25 553 25 621 c 0
 25 689 78 745 145 750 c 0
 147 750 150 750 152 750 c 0
 153 750 153 750 154 750 c 0
 155 750 155 750 156 750 c 0
 228 750 285 693 285 621 c 0
 285 550 228 493 156 493 c 0
 155 493 155 493 154 493 c 0
EndSplineSet
EndChar

StartChar: uni0983
Encoding: 2435 2435 366
Width: 445
VWidth: 0
Flags: HW
LayerCount: 2
Fore
SplineSet
155 675 m 4
 151 675 147 674 143 673 c 5
 143 674 l 5
 118 669 101 647 101 621 c 4
 101 595 118 574 143 569 c 5
 143 570 l 5
 147 569 151 568 155 568 c 4
 159 568 163 569 167 570 c 5
 167 569 l 5
 192 574 209 595 209 621 c 4
 209 647 192 669 167 674 c 5
 167 673 l 5
 163 674 159 675 155 675 c 4
154 493 m 4
 153 493 153 493 152 493 c 4
 150 493 147 493 145 493 c 4
 78 498 25 553 25 621 c 4
 25 689 78 745 145 750 c 4
 147 750 150 750 152 750 c 4
 153 750 153 750 154 750 c 4
 155 750 155 750 156 750 c 4
 228 750 285 693 285 621 c 4
 285 550 228 493 156 493 c 4
 155 493 155 493 154 493 c 4
155 275 m 0
 151 275 147 274 143 273 c 1
 143 274 l 1
 118 269 101 247 101 221 c 0
 101 195 118 174 143 169 c 1
 143 170 l 1
 147 169 151 168 155 168 c 0
 159 168 163 169 167 170 c 1
 167 169 l 1
 192 174 209 195 209 221 c 0
 209 247 192 269 167 274 c 1
 167 273 l 1
 163 274 159 275 155 275 c 0
154 93 m 0
 153 93 153 93 152 93 c 0
 150 93 147 93 145 93 c 0
 78 98 25 153 25 221 c 0
 25 289 78 345 145 350 c 4
 147 350 150 350 152 350 c 4
 153 350 153 350 154 350 c 4
 155 350 155 350 156 350 c 4
 228 350 285 293 285 221 c 0
 285 150 228 93 156 93 c 0
 155 93 155 93 154 93 c 0
EndSplineSet
EndChar

StartChar: uni098A
Encoding: 2442 2442 367
Width: 612
VWidth: 0
Flags: HW
HStem: 13.002 151.016<188.473 318.671> 376 151.998<254 386> 681 132<-55 386 493.755 561>
LayerCount: 2
Fore
SplineSet
561 813 m 1
 561 681 l 1
 386 681 l 1
 386 493.791992188 l 1
 464.611328125 449.66015625 517.310546875 366.931640625 515 270 c 0
 511.541015625 124.885742188 397.287109375 12.7998046875 253.90625 13.001953125 c 0
 84.0390625 13.240234375 0.1650390625 141.7890625 1.0009765625 271 c 1
 146.00390625 271 l 1
 146.000976562 270.666992188 146 270.333984375 146 270 c 0
 146 209.8828125 191.772460938 165.08203125 254.955078125 164.017578125 c 0
 317.911132812 165.126953125 364 209.63671875 364 270 c 0
 364 326.657226562 324.735351562 369.046875 268.932617188 376 c 1
 254 376 l 1
 254 527.622070312 l 2
 253.96875 527.870117188 253.9375 527.998046875 253.905273438 527.998046875 c 1
 253.936523438 527.998046875 253.96875 527.998046875 254 527.998046875 c 1
 254 681 l 1
 -55 681 l 1
 -55 813 l 1
 244.169921875 813 l 1
 238.783203125 839.090820312 228.6640625 866.108398438 210 885 c 0
 178.591796875 915.81640625 177.884765625 916.5234375 146.771484375 947.635742188 c 0
 100.102539062 994.3046875 41.4130859375 975.212890625 -5.2568359375 1021.88183594 c 0
 -40.611328125 1057.23730469 -46.2685546875 1142.09082031 -46.2685546875 1142.09082031 c 1
 42.1201171875 1230.47851562 l 1
 42.1201171875 1230.47851562 49.8984375 1143.50488281 85.9599609375 1107.44238281 c 0
 131.21484375 1062.1875 188.491210938 1084.10742188 233.74609375 1038.85253906 c 0
 267.686523438 1004.91210938 270.515625 1002.08300781 304.456054688 968.142578125 c 0
 354.484375 918.114257812 335.005859375 820.403320312 337.690429688 820.356445312 c 1
 330.333984375 813 l 1
 561 813 l 1
EndSplineSet
EndChar

StartChar: uni0990
Encoding: 2448 2448 368
Width: 956
VWidth: 0
Flags: HW
HStem: 620 151<260.445 390.159>
VStem: -47.5 151<192.508 322.889>
LayerCount: 2
Fore
SplineSet
255 762 m 1
 278 768 301 771 326 771 c 0
 444 771 540 693 571 584 c 1
 571.704101562 448.546875 l 1
 601.97265625 437.771484375 649.5234375 423.37109375 686 424 c 0
 708 424 720 442 725 463 c 0
 750.106445312 572.842773438 688.099609375 693.875976562 612.560546875 769.412109375 c 0
 565.891601562 816.081054688 507.202148438 796.989257812 460.532226562 843.658203125 c 0
 425.177734375 879.013671875 419.520507812 963.8671875 419.520507812 963.8671875 c 1
 507.909179688 1052.25488281 l 1
 507.909179688 1052.25488281 515.6875 965.28125 551.749023438 929.21875 c 0
 597.00390625 883.963867188 654.280273438 905.883789062 699.53515625 860.62890625 c 0
 733.475585938 826.688476562 736.3046875 823.859375 770.245117188 789.918945312 c 0
 820.1328125 740.03125 933.61328125 417.951171875 797 352 c 0
 752 331 723 322 674 322 c 0
 642.086914062 322 600.744140625 332.477539062 572.262695312 341.048828125 c 1
 574 7 l 5
 426.245117188 5.912109375 287.399414062 13.732421875 139.5 12.5 c 5
 84.1669921875 28.5 39.1669921875 58.8330078125 4.5 103.5 c 0
 -30.1669921875 148.166992188 -47.5 199.5 -47.5 257.5 c 0
 -47.5 282.166992188 -44.5 305.833007812 -38.5 328.5 c 1
 129.5 328.5 l 1
 112.166992188 307.833007812 103.5 284.166992188 103.5 257.5 c 0
 103.5 224.833007812 115.833007812 197.833007812 140.5 176.5 c 1
 407 176.5 l 1
 407 583 l 1
 387 606 359 620 326 620 c 0
 299 620 274 610 255 594 c 1
 255 762 l 1
EndSplineSet
EndChar

StartChar: uni0994
Encoding: 2452 2452 369
Width: 616
VWidth: 0
Flags: HW
HStem: 13.002 151.016<188.473 318.671> 376 151.998<254 386> 681 132<-55 386 493.755 561>
LayerCount: 2
Fore
SplineSet
237 692 m 0
 230.208007812 691.634765625 181.076171875 687.51953125 175 686 c 1
 177.624023438 686.109375 154.358398438 770.163085938 157 770 c 0
 168.190429688 769.309570312 229.141601562 810.811523438 281 818 c 0
 424.5234375 837.895507812 522.978515625 727.309570312 520 575 c 0
 519.127929688 530.397460938 508.272460938 488.447265625 488.524414062 451.892578125 c 1
 517.556640625 441.0625 571.578125 423.302734375 612 424 c 0
 634 424 646 442 651 463 c 0
 676.106445312 572.842773438 614.099609375 693.875976562 538.560546875 769.412109375 c 0
 491.891601562 816.081054688 433.202148438 796.989257812 386.532226562 843.658203125 c 0
 351.177734375 879.013671875 345.520507812 963.8671875 345.520507812 963.8671875 c 1
 433.909179688 1052.25488281 l 1
 433.909179688 1052.25488281 441.6875 965.28125 477.749023438 929.21875 c 0
 523.00390625 883.963867188 580.280273438 905.883789062 625.53515625 860.62890625 c 0
 659.475585938 826.688476562 662.3046875 823.859375 696.245117188 789.918945312 c 0
 746.1328125 740.03125 859.61328125 417.951171875 723 352 c 0
 678 331 649 322 600 322 c 0
 572.655273438 322 538.38671875 329.692382812 511.21875 337.287109375 c 1
 516.947265625 315.852539062 520 293.297851562 520 270 c 0
 520 128 405 13 262 13 c 0
 260.956054688 13 259.92578125 13.001953125 258.90625 13.001953125 c 0
 258.603515625 13.001953125 258.301757812 13 258 13 c 0
 256.815429688 13 255.631835938 13.0078125 254.451171875 13.0234375 c 0
 249.662109375 13.0693359375 245.004882812 13.205078125 240.133789062 13.6025390625 c 0
 105.541992188 22.708984375 0 133.96484375 0 270 c 0
 0 325.204101562 17.138671875 376.235351562 46.41015625 418.088867188 c 1
 42.798828125 417.602539062 58 422 58 422 c 1
 236.961914062 372.549804688 151 414.8828125 151 270 c 0
 151 209.87890625 196.760742188 165.08203125 259.955078125 164.017578125 c 0
 322.901367188 165.126953125 369 209.640625 369 270 c 0
 369 322.4375 333.1015625 364.9453125 284 374.828125 c 1
 284 373.864257812 l 1
 259.955078125 469.017578125 l 1
 268.23046875 469.163085938 276.280273438 470.234375 284 472.131835938 c 1
 284 471.169921875 l 1
 333.1015625 481.0390625 369 523.436523438 369 575 c 0
 369 653.3203125 315.104492188 696.1953125 237 692 c 0
EndSplineSet
EndChar

StartChar: uni099E
Encoding: 2462 2462 370
Width: 821
VWidth: 0
Flags: HW
HStem: 620 151<260.445 390.159>
VStem: -47.5 151<192.508 322.889>
LayerCount: 2
Fore
SplineSet
-38.5 328.5 m 1
 129.5 328.5 l 1
 112.166992188 307.833007812 103.5 284.166992188 103.5 257.5 c 0
 103.5 224.833007812 115.833007812 197.833007812 140.5 176.5 c 1
 407 176.5 l 1
 407 583 l 1
 387 606 359 620 326 620 c 0
 299 620 274 610 255 594 c 1
 255 762 l 1
 278 768 301 771 326 771 c 0
 437.87890625 771 529.981445312 700.881835938 565.657226562 600.705078125 c 1
 578 606.860351562 594.509765625 614.671875 609.5 616.75 c 0
 681.26171875 626.698242188 730.489257812 571.404296875 729 495.25 c 0
 728.443359375 466.7890625 719.756835938 440.486328125 704.07421875 419.196289062 c 1
 719.756835938 397.833984375 729 371.416992188 729 342.75 c 0
 729 271.75 671.5 214.25 600 214.25 c 0
 599.478515625 214.25 598.962890625 214.250976562 598.453125 214.250976562 c 0
 598.301757812 214.250976562 598.151367188 214.25 598 214.25 c 0
 597.407226562 214.25 596.81640625 214.25390625 596.225585938 214.26171875 c 0
 593.831054688 214.28515625 591.502929688 214.352539062 589.067382812 214.55078125 c 0
 583.578125 214.921875 578.185546875 215.633789062 572.91015625 216.6640625 c 1
 574 7 l 1
 407 7 l 1
 407 10.3017578125 l 1
 139.5 12.5 l 1
 84.1669921875 28.5 39.1669921875 58.8330078125 4.5 103.5 c 0
 -30.1669921875 148.166992188 -47.5 199.5 -47.5 257.5 c 0
 -47.5 282.166992188 -44.5 305.833007812 -38.5 328.5 c 1
572.497070312 296.150390625 m 1
 580.201171875 292.196289062 589.168945312 289.923828125 598.977539062 289.758789062 c 0
 630.450195312 290.313476562 653.5 312.5703125 653.5 342.75 c 0
 653.5 368.96875 635.55078125 390.22265625 611 395.1640625 c 1
 611 394.682617188 l 1
 598.977539062 442.258789062 l 1
 603.115234375 442.33203125 607.140625 442.8671875 611 443.81640625 c 1
 611 443.334960938 l 1
 635.55078125 448.26953125 653.5 469.46875 653.5 495.25 c 0
 653.5 534.41015625 626.551757812 555.84765625 587.5 553.75 c 0
 585.744140625 553.655273438 578.334960938 553.060546875 571.1640625 552.40234375 c 1
 572.497070312 296.150390625 l 1
EndSplineSet
EndChar

StartChar: uni099D
Encoding: 2461 2461 371
Width: 944
VWidth: 0
Flags: HW
HStem: 681 132<-50 474 620 673> 681 106<474 620>
VStem: 474 146<11 83.5 235.5 483.5 635.5 787> 474 57.5<83.5 235.5 483.5 483.5>
LayerCount: 2
Fore
SplineSet
620 681 m 1
 620 294.02734375 l 1
 623 297 l 1
 699 221 l 1
 699 681 l 1
 620 681 l 1
894 813 m 1
 894 681 l 1
 851 681 l 1
 851 10 l 1
 699.018554688 10 l 1
 697 8 l 1
 620 85 l 1
 620 11 l 1
 475.5 11 l 1
 475.5 10.5 l 1
 20.5 283.5 l 1
 20.5 435.5 l 1
 474 612.995117188 l 1
 474 681 l 1
 -50 681 l 1
 -50 813 l 1
 894 813 l 1
474 163.450195312 m 1
 474 464.072265625 l 1
 164.5 359.5 l 1
 474 163.450195312 l 1
EndSplineSet
EndChar

StartChar: uni099C
Encoding: 2460 2460 372
Width: 616
VWidth: 0
Flags: HW
HStem: 13.0016 151.016<193.473 323.671> 376 151.998<259 391> 681 132<-50 259 391 566> 681 80<259 391>
VStem: 259 132<527.998 761>
LayerCount: 2
Fore
SplineSet
566 813 m 1
 566 681 l 1
 391 681 l 1
 391 493.791992188 l 1
 469.610351562 449.66015625 522.310546875 366.931640625 520 270 c 0
 516.541015625 124.885742188 402.287109375 12.7998046875 258.90625 13.001953125 c 0
 89.0390625 13.240234375 5.1650390625 141.7890625 6.0009765625 271 c 1
 151.00390625 271 l 1
 151.000976562 270.666992188 151 270.333984375 151 270 c 0
 151 209.8828125 196.772460938 165.08203125 259.955078125 164.017578125 c 0
 322.911132812 165.126953125 369 209.63671875 369 270 c 0
 369 326.657226562 329.734375 369.046875 273.932617188 376 c 1
 259 376 l 1
 259 527.624023438 l 2
 258.96875 527.87109375 258.9375 527.998046875 258.905273438 527.998046875 c 1
 258.9375 527.998046875 258.96875 527.998046875 259 527.998046875 c 1
 259 681 l 1
 -50 681 l 1
 -50 813 l 1
 566 813 l 1
EndSplineSet
EndChar

StartChar: uni09A3
Encoding: 2467 2467 373
Width: 613
VWidth: 0
Flags: HW
LayerCount: 2
Fore
SplineSet
361.5 860 m 1
 513.5 860 l 1
 513.5 813 l 1
 561.5 813 l 1
 561.5 681 l 1
 513.5 681 l 1
 513.5 532.630859375 l 2
 514.491210938 523.39453125 515 514.008789062 515 504.5 c 0
 515 495.7265625 514.560546875 487.053710938 513.704101562 478.5 c 1
 513.5 478.5 l 1
 513.5 8 l 1
 361.5 8 l 1
 361.5 478.5 l 1
 360.864257812 478.5 l 1
 361.087890625 479.407226562 361.299804688 480.318359375 361.5 481.235351562 c 2
 361.5 528.0703125 l 1
 351.03515625 576.364257812 308.876953125 611.5 257 611.5 c 0
 198 611.5 151 564.5 151 504.5 c 0
 151 495.536132812 152.084960938 486.826171875 154.131835938 478.5 c 1
 1.2958984375 478.5 l 1
 0.4384765625 487.053710938 0 495.7265625 0 504.5 c 0
 0 647.5 115 762.5 257 762.5 c 0
 294.245117188 762.5 329.590820312 754.698242188 361.5 740.633789062 c 1
 361.5 860 l 1
EndSplineSet
EndChar

StartChar: uni0964
Encoding: 2404 2404 374
Width: 252
VWidth: 0
Flags: HW
HStem: 8 21G<0 152> 502 20G<0 152> 640 142<0 152>
VStem: 0 152<8 522 640 782>
LayerCount: 2
Fore
SplineSet
152 380 m 1
 152 -20 l 1
 0 -20 l 1
 0 380 l 1
 152 380 l 1
EndSplineSet
EndChar

StartChar: uni0981
Encoding: 2433 2433 376
Width: 0
Flags: HW
LayerCount: 2
Fore
SplineSet
-111 668 m 1
 -111 782 l 1
 11 782 l 1
 11 668 l 1
 -111 668 l 1
143 629 m 1
 143 623 143 616 143 610 c 0
 143 502 57 416 -49 416 c 0
 -157 416 -243 502 -243 610 c 0
 -243 616 -243 623 -243 629 c 1
 -127 629 l 1
 -129 623 -130 616 -130 610 c 0
 -130 565 -94 529 -49 529 c 0
 -4 529 30 565 30 610 c 0
 30 616 29 623 27 629 c 1
 143 629 l 1
EndSplineSet
EndChar

StartChar: uni09AD
Encoding: 2477 2477 377
Width: 726
VWidth: 75
Flags: HW
HStem: 14.7002 133.6<255.264 418.805> 523.479 120.821<345.987 417.023> 681 132<-50 676>
VStem: 42.4004 111.399<250.829 338.876> 520.2 133.399<250.829 424.049>
LayerCount: 2
Fore
SplineSet
676 813 m 1
 676 681 l 1
 -50 681 l 1
 -50 813 l 1
 676 813 l 1
345.098632812 627 m 1
 345.987304688 644.29296875 l 2
 346.657226562 644.297851562 347.328125 644.299804688 348 644.299804688 c 0
 383.107421875 644.299804688 416.830078125 638.208984375 448.2265625 627 c 1
 459 627 l 1
 459 622.916992188 l 1
 572.907226562 577.208984375 653.599609375 463.228515625 653.599609375 329.900390625 c 0
 653.599609375 155.5 516.799804688 14.7001953125 348 14.7001953125 c 0
 179.200195312 14.7001953125 42.400390625 155.5 42.400390625 329.900390625 c 0
 42.400390625 330.77734375 153.86328125 340.658203125 153.870117188 341.533203125 c 1
 153.823242188 339.794921875 153.799804688 338.049804688 153.799804688 336.299804688 c 0
 153.799804688 232.299804688 235.400390625 148.299804688 337 148.299804688 c 0
 438.599609375 148.299804688 520.200195312 232.299804688 520.200195312 336.299804688 c 0
 520.200195312 406.395507812 482.5546875 467.6328125 426.567382812 499.708007812 c 1
 392.103515625 447.833007812 333.486328125 414 267 414 c 0
 159 414 73 500 73 608 c 0
 73 614 73 621 73 627 c 1
 189 627 l 1
 187 621 186 614 186 608 c 0
 186 563 222 527 267 527 c 0
 304.05859375 527 333.65625 551.4140625 342.94921875 585.1640625 c 1
 344.754882812 620.306640625 l 2
 344.296875 622.604492188 343.711914062 624.865234375 343 627 c 1
 345.098632812 627 l 1
EndSplineSet
EndChar

StartChar: uni09A7
Encoding: 2471 2471 378
Width: 752
Flags: HW
LayerCount: 2
Fore
SplineSet
652.5 813 m 1
 652.5 681 l 1
 599.5 681 l 1
 599.5 11 l 1
 453.5 11 l 1
 453.5 12.798828125 l 1
 0 283.5 l 1
 0 435.5 l 1
 138.990234375 489.899414062 l 1
 109.646484375 523.573242188 92 567.484375 92 615.5 c 0
 92 723.5 178 809.5 286 809.5 c 0
 292 809.5 299 809.5 305 809.5 c 1
 305 693.5 l 1
 299 695.5 292 696.5 286 696.5 c 0
 241 696.5 205 660.5 205 615.5 c 0
 205 577.858398438 230.189453125 547.913085938 264.765625 539.126953125 c 1
 453.5 612.995117188 l 1
 453.5 787 l 1
 454.5 787 l 1
 454.5 813 l 1
 652.5 813 l 1
453.5 164.814453125 m 1
 453.5 464.072265625 l 1
 144 359.5 l 1
 453.5 164.814453125 l 1
EndSplineSet
EndChar

StartChar: uni09A8
Encoding: 2472 2472 379
Width: 661
VWidth: 0
Flags: HW
LayerCount: 2
Fore
SplineSet
611 813 m 1
 611 681 l 1
 566 681 l 1
 566 132.997070312 l 2
 569.60546875 115.749023438 571.5 97.8544921875 571.5 79.5 c 0
 571.5 70.7265625 571.060546875 62.0537109375 570.204101562 53.5 c 1
 566 53.5 l 1
 566 8 l 1
 414 8 l 1
 414 116.954101562 l 1
 399.125 157.953125 360.260742188 186.5 313.5 186.5 c 0
 254.5 186.5 207.5 139.5 207.5 79.5 c 0
 207.5 70.5361328125 208.584960938 61.826171875 210.631835938 53.5 c 1
 57.7958984375 53.5 l 1
 56.9384765625 62.0537109375 56.5 70.7265625 56.5 79.5 c 0
 56.5 222.5 171.5 337.5 313.5 337.5 c 0
 349.1953125 337.5 383.146484375 330.333984375 414 317.356445312 c 1
 414 681 l 1
 -50 681 l 1
 -50 813 l 1
 414 813 l 1
 566 813 l 1
 611 813 l 1
EndSplineSet
EndChar

StartChar: uni09B6
Encoding: 2486 2486 380
Width: 642
Flags: HW
LayerCount: 2
Fore
SplineSet
-50 715.5 m 1
 -44 715.5 -37 715.5 -31 715.5 c 0
 68.685546875 715.5 149.627929688 642.232421875 161.5 547.596679688 c 1
 173.372070312 642.232421875 254.314453125 715.5 354 715.5 c 0
 360 715.5 367 715.5 373 715.5 c 1
 373 710.87109375 l 1
 392.5 694.265625 l 1
 392.5 857 l 1
 544.5 857 l 1
 544.5 813 l 1
 592.5 813 l 1
 592.5 681 l 1
 544.5 681 l 1
 544.5 8 l 1
 392.5 8 l 1
 392.5 584.649414062 l 1
 373 604.294921875 l 1
 373 599.5 l 1
 367 601.5 360 602.5 354 602.5 c 0
 309 602.5 273 568.5 273 523.5 c 0
 273 478.5 309 442.5 354 442.5 c 0
 360 442.5 367 443.5 373 445.5 c 1
 373 329.5 l 1
 367 329.5 360 329.5 354 329.5 c 0
 254.314453125 329.5 173.372070312 402.767578125 161.5 498.9765625 c 1
 149.627929688 402.767578125 68.685546875 329.5 -31 329.5 c 0
 -37 329.5 -44 329.5 -50 329.5 c 1
 -50 445.5 l 1
 -44 443.5 -37 442.5 -31 442.5 c 0
 14 442.5 50 478.5 50 523.5 c 0
 50 568.5 14 602.5 -31 602.5 c 0
 -37 602.5 -44 601.5 -50 599.5 c 1
 -50 715.5 l 1
EndSplineSet
EndChar

StartChar: uni0988
Encoding: 2440 2440 381
Width: 1077
VWidth: 0
Flags: HW
HStem: 9 21G<357 543> 681 132<-50 257.581 493.755 639>
LayerCount: 2
Fore
SplineSet
186.141601562 482.20703125 m 1
 186.141601562 482.20703125 78.7998046875 588.45703125 78.0263671875 587.68359375 c 1
 180.65625 690.313476562 342.620117188 692.33203125 445.080078125 589.872070312 c 0
 476.888671875 558.063476562 498.51953125 520.3671875 510.09375 480.42578125 c 1
 588.814453125 544.576171875 l 1
 598.905273438 560.615234375 610.97265625 575.818359375 625.026367188 589.872070312 c 0
 652.493164062 617.338867188 684.235351562 637.296875 717.96484375 649.822265625 c 1
 728 658 l 1
 726.53515625 652.831054688 l 1
 816.62890625 682.658203125 919.28125 660.482421875 992.080078125 587.68359375 c 1
 991.306640625 588.45703125 883.96484375 482.20703125 883.96484375 482.20703125 c 1
 838.588867188 525.487304688 774.943359375 526.244140625 731.799804688 483.099609375 c 0
 689.116210938 440.416015625 690.233398438 376.353515625 733.96484375 331.051757812 c 0
 779.39453125 287.127929688 843.439453125 286.440429688 885.948242188 328.950195312 c 0
 886.184570312 329.186523438 886.419921875 329.422851562 886.653320312 329.66015625 c 1
 989.185546875 227.127929688 l 1
 898.411132812 135.170898438 747.618164062 102.995117188 627.922851562 223.525390625 c 0
 591.263671875 260.440429688 567.456054688 304.904296875 556.677734375 351.443359375 c 1
 484 275 l 1
 482.737304688 275.57421875 l 1
 471.665039062 257.095703125 458.141601562 239.594726562 442.18359375 223.525390625 c 0
 322.48828125 102.995117188 171.6953125 135.170898438 80.9208984375 227.127929688 c 1
 183.453125 329.66015625 l 1
 183.686523438 329.422851562 183.921875 329.186523438 184.158203125 328.950195312 c 0
 226.666992188 286.440429688 290.711914062 287.127929688 336.141601562 331.051757812 c 0
 338.659179688 333.66015625 341.036132812 336.331054688 343.271484375 339.055664062 c 1
 339 341 l 1
 352.678710938 352.146484375 l 1
 379.252929688 394.749023438 374.708007812 446.698242188 338.306640625 483.099609375 c 0
 295.163085938 526.244140625 231.517578125 525.487304688 186.141601562 482.20703125 c 1
1027 813 m 1
 1027 681 l 1
 -50 681 l 1
 -50 813 l 1
 488.489257812 813 l 1
 482.990234375 838.393554688 472.922851562 864.420898438 454.7890625 882.776367188 c 0
 423.380859375 913.592773438 422.673828125 914.299804688 391.560546875 945.412109375 c 0
 344.891601562 992.081054688 286.202148438 972.989257812 239.532226562 1019.65820312 c 0
 204.177734375 1055.01367188 198.520507812 1139.8671875 198.520507812 1139.8671875 c 1
 286.909179688 1228.25488281 l 1
 286.909179688 1228.25488281 294.6875 1141.28125 330.749023438 1105.21875 c 0
 376.00390625 1059.96386719 433.280273438 1081.88378906 478.53515625 1036.62890625 c 0
 512.475585938 1002.68847656 515.3046875 999.859375 549.245117188 965.918945312 c 0
 599.2734375 915.890625 579.794921875 818.1796875 582.479492188 818.1328125 c 1
 577.346679688 813 l 1
 1027 813 l 1
EndSplineSet
EndChar

StartChar: uni0996
Encoding: 2454 2454 382
Width: 752
Flags: HW
LayerCount: 2
Fore
SplineSet
674.5 813 m 1
 674.5 681 l 1
 599.5 681 l 1
 599.5 11 l 1
 453.5 11 l 1
 453.5 787 l 1
 476.5 787 l 1
 476.5 813 l 1
 674.5 813 l 1
269.5 724 m 1
 401.5 724 l 1
 285.5 454 l 1
 284.689453125 455.12109375 l 1
 144 283.5 l 1
 453 169.5 l 1
 453 12.5 l 1
 0 189.5 l 1
 0 341.5 l 1
 246.440429688 571.51171875 l 1
 256.703125 639.375976562 l 1
 230.443359375 563.631835938 159.208007812 510 75.5 510 c 0
 -32.5 510 -118.5 596 -118.5 704 c 0
 -118.5 710 -118.5 717 -118.5 723 c 1
 -2.5 723 l 1
 -4.5 717 -5.5 710 -5.5 704 c 0
 -5.5 659 30.5 623 75.5 623 c 0
 120.5 623 154.5 659 154.5 704 c 0
 154.5 710 153.5 717 151.5 723 c 1
 267.5 723 l 1
 267.5 710.774414062 l 1
 269.5 724 l 1
EndSplineSet
EndChar

StartChar: uni098B
Encoding: 2443 2443 383
Width: 1344
Flags: HW
LayerCount: 2
Fore
SplineSet
872 787 m 1
 1018 787 l 1
 1018 295.5 l 1
 1092.5 221 l 1
 1092.5 786 l 1
 1094.5 786 l 1
 1094.5 805 l 1
 1294.5 805 l 1
 1294.5 673 l 1
 1244.5 673 l 1
 1244.5 10 l 1
 1092.51855469 10 l 1
 1090.5 8 l 1
 1018 80.5 l 1
 1018 11 l 1
 872 11 l 1
 871 11 l 1
 871 11.3935546875 l 1
 418.5 189.5 l 1
 418.5 341.5 l 1
 664.940429688 571.51171875 l 1
 675.203125 639.375976562 l 1
 648.943359375 563.631835938 577.708007812 510 494 510 c 0
 432.708984375 510 378.502929688 537.698242188 343.081054688 581.395507812 c 1
 307.87109375 537.698242188 254.15625 510 194 510 c 0
 86 510 0 596 0 704 c 0
 0 710 0 717 0 723 c 1
 116 723 l 1
 114 717 113 710 113 704 c 0
 113 659 149 623 194 623 c 0
 239 623 273 659 273 704 c 0
 273 710 272 717 270 723 c 1
 300 723 l 1
 386 723 l 1
 416 723 l 1
 414 717 413 710 413 704 c 0
 413 659 449 623 494 623 c 0
 539 623 573 659 573 704 c 0
 573 710 572 717 570 723 c 1
 686 723 l 1
 686 710.774414062 l 1
 688 724 l 1
 872 724 l 1
 872 787 l 1
871 169.684570312 m 1
 871 719.262695312 l 1
 704 454 l 1
 703.189453125 455.12109375 l 1
 562.5 283.5 l 1
 871 169.684570312 l 1
EndSplineSet
EndChar

StartChar: uni09B2
Encoding: 2482 2482 384
Width: 943
VWidth: 0
Flags: HW
LayerCount: 2
Fore
SplineSet
893 813 m 1
 893 681 l 1
 845 681 l 1
 845 56.6669921875 l 2
 845.2265625 55.609375 845.309570312 54.5537109375 845.204101562 53.5 c 2
 845 53.5 l 1
 845 8 l 1
 693 8 l 1
 693 53.5 l 1
 692.364257812 53.5 l 1
 692.587890625 54.4072265625 692.799804688 55.318359375 693 56.2353515625 c 2
 693 103.0703125 l 1
 682.53515625 151.364257812 640.376953125 186.5 588.5 186.5 c 0
 537.051757812 186.5 494.728515625 150.76171875 484.736328125 101.829101562 c 0
 485.572265625 93.3369140625 486 84.720703125 486 76 c 0
 486 69.0615234375 485.725585938 62.1865234375 485.186523438 55.3837890625 c 0
 485.329101562 54.75390625 485.477539062 54.1259765625 485.631835938 53.5 c 1
 485.030273438 53.5 l 2
 484.9296875 52.3310546875 484.8203125 51.1640625 484.704101562 50 c 2
 331.864257812 50 l 1
 332.184570312 51.2998046875 332.48046875 52.6083984375 332.75390625 53.9267578125 c 0
 331.923828125 62.341796875 331.5 70.8720703125 331.5 79.5 c 0
 331.5 86.625 331.755859375 93.6796875 332.258789062 100.654296875 c 0
 321.40234375 148.389648438 279.487304688 183 228 183 c 0
 169 183 122 136 122 76 c 0
 122 67.0361328125 123.084960938 58.326171875 125.131835938 50 c 1
 -27.7041015625 50 l 1
 -28.5615234375 58.5537109375 -29 67.2265625 -29 76 c 0
 -29 219 86 334 228 334 c 0
 296.041015625 334 357.7421875 307.96484375 403.733398438 265.265625 c 1
 447.030273438 310.038085938 507.108398438 337.5 576.5 337.5 c 0
 618.48046875 337.5 658.046875 327.588867188 693 309.96875 c 1
 693 681 l 1
 -50 681 l 1
 -50 813 l 1
 693 813 l 1
 845 813 l 1
 893 813 l 1
EndSplineSet
EndChar

StartChar: uni09AF
Encoding: 2479 2479 385
Width: 841
VWidth: 0
Flags: HW
HStem: 20 152<185.1 530.7> 620 152<-15.7 328.3>
LayerCount: 2
Fore
SplineSet
26.755859375 190.198242188 m 1
 58.228515625 337.01953125 l 1
 329.267578125 497.461914062 l 1
 68.0986328125 681 l 1
 -50 681 l 1
 -50 813 l 1
 594 813 l 1
 746 813 l 1
 791 813 l 1
 791 681 l 1
 746 681 l 1
 746 8 l 1
 594 8 l 1
 594 10.1826171875 l 1
 26.755859375 190.198242188 l 1
594 166.658203125 m 1
 594 681 l 1
 307.166015625 681 l 1
 490.244140625 578.801757812 l 1
 458.771484375 431.98046875 l 1
 252.186523438 272.055664062 l 1
 594 166.658203125 l 1
EndSplineSet
EndChar

StartChar: uni09AB
Encoding: 2475 2475 386
Width: 1167
VWidth: 0
Flags: HW
HStem: 20 152<185.1 530.7> 620 152<-15.7 328.3>
LayerCount: 2
Fore
SplineSet
26.755859375 190.198242188 m 1
 58.228515625 337.01953125 l 1
 329.267578125 497.461914062 l 1
 68.0986328125 681 l 1
 -50 681 l 1
 -50 813 l 1
 1117 813 l 1
 1117 681 l 1
 307.166015625 681 l 1
 490.244140625 578.801757812 l 1
 458.771484375 431.98046875 l 1
 252.186523438 272.055664062 l 1
 594 166.658203125 l 1
 594 333 l 1
 594.51171875 333 l 1
 595.842773438 474.837890625 710.328125 588.5 851.5 588.5 c 0
 994.5 588.5 1109.5 473.5 1109.5 330.5 c 0
 1109.5 321.7265625 1109.06054688 313.053710938 1108.20410156 304.5 c 1
 955.364257812 304.5 l 1
 957.415039062 312.826171875 958.5 321.536132812 958.5 330.5 c 0
 958.5 390.5 911.5 437.5 851.5 437.5 c 0
 793.322265625 437.5 746.811523438 391.80078125 745.52734375 333 c 1
 746 333 l 1
 746 320.0078125 l 2
 746.506835938 314.716796875 747.393554688 309.538085938 748.631835938 304.5 c 1
 746 304.5 l 1
 746 8 l 1
 594 8 l 1
 594 10.1826171875 l 1
 26.755859375 190.198242188 l 1
EndSplineSet
EndChar

StartChar: uni0997
Encoding: 2455 2455 387
Width: 690
VWidth: 0
Flags: HW
LayerCount: 2
Fore
SplineSet
18.615234375 393 m 1
 85.615234375 505 l 1
 91.615234375 499 98.615234375 496 107.615234375 493 c 0
 160.615234375 469 204.615234375 477 230.615234375 508 c 0
 259.615234375 542 208.615234375 548 154.615234375 557 c 1
 26.615234375 608 -44.384765625 691 30.615234375 780 c 0
 93.615234375 856 246.615234375 873 373.615234375 819 c 0
 377.018554688 817.541992188 406.892578125 803.083984375 437.5 787.921875 c 1
 437.5 860 l 1
 589.5 860 l 1
 589.5 813 l 1
 637.5 813 l 1
 637.5 681 l 1
 589.5 681 l 1
 589.5 8 l 1
 437.5 8 l 1
 437.5 623.240234375 l 1
 420.359375 632.84765625 315.095703125 687.172851562 306.615234375 690 c 0
 253.615234375 712 231.615234375 705 205.615234375 674 c 0
 175.615234375 639 172.615234375 632 236.615234375 621 c 1
 355.615234375 571 458.615234375 510 382.615234375 421 c 0
 320.615234375 345 167.615234375 325 40.615234375 380 c 0
 33.615234375 382 26.615234375 387 18.615234375 393 c 1
EndSplineSet
EndChar

StartChar: uni098C
Encoding: 2444 2444 388
Width: 779
VWidth: 0
Flags: HW
HStem: 626 157<1.091 167.973> -4 161<1.091 167.973>
VStem: 302 153<292.8 487.701>
LayerCount: 2
Fore
SplineSet
48.1552734375 113.778320312 m 1
 47.2978515625 122.33203125 46.859375 131.004882812 46.859375 139.778320312 c 0
 46.859375 282.778320312 161.859375 397.779296875 303.859375 397.779296875 c 0
 398.783203125 397.779296875 481.369140625 347.10546875 526.170898438 271.20703125 c 1
 544.932617188 347.665039062 523.635742188 432.482421875 463.10546875 493.012695312 c 0
 371.181640625 584.936523438 224.810546875 587.05859375 135.0078125 497.255859375 c 0
 116.9375 479.185546875 102.58984375 458.826171875 91.9462890625 437.079101562 c 1
 -22.556640625 551.583007812 l 1
 -9.1767578125 571.619140625 6.337890625 590.618164062 23.9921875 608.271484375 c 0
 173.19140625 757.470703125 418.557617188 753.935546875 572.70703125 599.786132812 c 0
 726.1484375 446.34375 729.684570312 200.977539062 580.485351562 51.7783203125 c 0
 562.831054688 34.125 543.83203125 18.6103515625 523.797851562 5.228515625 c 1
 415.248046875 113.778320312 l 1
 407.724609375 113.778320312 l 1
 408.227539062 115.819335938 408.671875 117.883789062 409.056640625 119.969726562 c 2
 406.470703125 122.555664062 l 1
 407.567382812 123.092773438 408.66015625 123.639648438 409.75 124.1953125 c 0
 410.481445312 129.283203125 410.860351562 134.486328125 410.859375 139.778320312 c 0
 410.860351562 199.778320312 363.859375 246.779296875 303.859375 246.778320312 c 0
 244.859375 246.779296875 197.859375 199.778320312 197.860351562 139.778320312 c 0
 197.859375 130.814453125 198.9453125 122.104492188 200.991210938 113.778320312 c 1
 48.1552734375 113.778320312 l 1
EndSplineSet
EndChar

StartChar: uni09EF
Encoding: 2543 2543 389
Width: 779
VWidth: 0
Flags: HW
HStem: 626 157<1.091 167.973> -4 161<1.091 167.973>
VStem: 302 153<292.8 487.701>
LayerCount: 2
Fore
SplineSet
48.1552734375 113.778320312 m 1
 47.2978515625 122.33203125 46.859375 131.004882812 46.859375 139.778320312 c 0
 46.859375 282.778320312 161.859375 397.779296875 303.859375 397.779296875 c 0
 398.783203125 397.779296875 481.369140625 347.10546875 526.170898438 271.20703125 c 1
 544.932617188 347.665039062 523.635742188 432.482421875 463.10546875 493.012695312 c 0
 371.181640625 584.936523438 224.810546875 587.05859375 135.0078125 497.255859375 c 0
 116.9375 479.185546875 102.58984375 458.826171875 91.9462890625 437.079101562 c 1
 -22.556640625 551.583007812 l 1
 -9.1767578125 571.619140625 6.337890625 590.618164062 23.9921875 608.271484375 c 0
 173.19140625 757.470703125 418.557617188 753.935546875 572.70703125 599.786132812 c 0
 726.1484375 446.34375 729.684570312 200.977539062 580.485351562 51.7783203125 c 0
 562.831054688 34.125 543.83203125 18.6103515625 523.797851562 5.228515625 c 1
 415.248046875 113.778320312 l 1
 407.724609375 113.778320312 l 1
 408.227539062 115.819335938 408.671875 117.883789062 409.056640625 119.969726562 c 2
 406.470703125 122.555664062 l 1
 407.567382812 123.092773438 408.66015625 123.639648438 409.75 124.1953125 c 0
 410.481445312 129.283203125 410.860351562 134.486328125 410.859375 139.778320312 c 0
 410.860351562 199.778320312 363.859375 246.779296875 303.859375 246.778320312 c 0
 244.859375 246.779296875 197.859375 199.778320312 197.860351562 139.778320312 c 0
 197.859375 130.814453125 198.9453125 122.104492188 200.991210938 113.778320312 c 1
 48.1552734375 113.778320312 l 1
EndSplineSet
EndChar

StartChar: uni09EC
Encoding: 2540 2540 390
Width: 616
VWidth: 0
Flags: HW
HStem: 13.0016 151.016<193.473 323.671> 376 151.998<259 391> 681 132<-50 259 391 566> 681 80<259 391>
VStem: 259 132<527.998 761>
LayerCount: 2
Fore
SplineSet
259 761 m 1
 391 761 l 1
 391 493.791992188 l 1
 469.610351562 449.66015625 522.310546875 366.931640625 520 270 c 0
 516.541015625 124.885742188 402.287109375 12.7998046875 258.90625 13.001953125 c 0
 89.0390625 13.240234375 5.1650390625 141.7890625 6.0009765625 271 c 1
 151.00390625 271 l 1
 151.000976562 270.666992188 151 270.333984375 151 270 c 0
 151 209.8828125 196.772460938 165.08203125 259.955078125 164.017578125 c 0
 322.911132812 165.126953125 369 209.63671875 369 270 c 0
 369 326.657226562 329.734375 369.046875 273.932617188 376 c 1
 259 376 l 1
 259 527.624023438 l 2
 258.96875 527.87109375 258.9375 527.998046875 258.905273438 527.998046875 c 1
 258.9375 527.998046875 258.96875 527.998046875 259 527.998046875 c 1
 259 761 l 1
EndSplineSet
EndChar

StartChar: uni09ED
Encoding: 2541 2541 391
Width: 534
VWidth: 0
Flags: HW
HStem: 275 151<193.471 282> 639 150<193.591 281.625>
VStem: 282 152<13 276 426.026 638.974> 0 151<468.471 596.934>
LayerCount: 2
Fore
SplineSet
282 636 m 1
 274 638 266 639 258 639 c 0
 198 639 151 592 151 533 c 0
 151 473 198 426 258 426 c 0
 266 426 274 427 282 429 c 1
 282 636 l 1
282 13 m 1
 282 276 l 1
 274 275 266 275 258 275 c 0
 115 275 0 390 0 533 c 0
 0 675 115 790 258 790 c 0
 266 790 353 797 395 762 c 0
 433 730 434 641 434 641 c 1
 434 13 l 1
 282 13 l 1
EndSplineSet
EndChar

StartChar: uni09EE
Encoding: 2542 2542 392
Width: 692
VWidth: 0
Flags: HW
HStem: 377.571 151<152 240.529> 14.5714 150<152.375 240.409>
VStem: 0 152<527.571 790.571 164.597 377.545> 283 151<206.637 335.1>
LayerCount: 2
Fore
SplineSet
152 790.571289062 m 1
 152 527.571289062 l 1
 160 528.571289062 168 528.571289062 176 528.571289062 c 0
 185.734375 528.571289062 195.338867188 528.038085938 204.787109375 527 c 2
 589 527 l 1
 589 375 l 1
 412.165039062 375 l 1
 426.209960938 343.109375 434 307.7890625 434 270.571289062 c 0
 434 128.571289062 319 13.5712890625 176 13.5712890625 c 0
 168 13.5712890625 81 6.5712890625 39 41.5712890625 c 0
 1 73.5712890625 0 162.571289062 0 162.571289062 c 1
 0 790.571289062 l 1
 152 790.571289062 l 1
152 167.571289062 m 1
 160 165.571289062 168 164.571289062 176 164.571289062 c 0
 236 164.571289062 283 211.571289062 283 270.571289062 c 0
 283 322.331054688 248.0234375 364.416992188 199.896484375 375 c 1
 153.78125 375 l 2
 153.1875 374.862304688 152.59375 374.719726562 152 374.571289062 c 2
 152 167.571289062 l 1
EndSplineSet
EndChar

StartChar: uni09EB
Encoding: 2539 2539 393
Width: 779
VWidth: 0
Flags: HW
HStem: 626 157<499.596 666.478> -4 161<499.596 666.478>
VStem: 212.569 153<292.8 487.701>
LayerCount: 2
Fore
SplineSet
305.770507812 394.469726562 m 2
 305.11328125 395.197265625 l 1
 303.998046875 392.770507812 303.796875 391.798828125 305.770507812 394.469726562 c 2
686.516601562 489.231445312 m 1
 610.09765625 356.872070312 l 1
 603.911132812 362.805664062 596.911132812 368.102539062 589.147460938 372.583007812 c 0
 537.185546875 402.583984375 472.982421875 385.381835938 443.482421875 334.28515625 c 0
 413.481445312 282.32421875 430.685546875 218.119140625 482.647460938 188.12109375 c 0
 487.229492188 185.474609375 491.924804688 183.200195312 496.697265625 181.290039062 c 0
 497.723632812 181.956054688 498.743164062 182.627929688 499.756835938 183.309570312 c 1
 500.702148438 179.77734375 l 2
 502.702148438 179.067382812 504.712890625 178.418945312 506.731445312 177.834960938 c 1
 502.96875 171.319335938 l 1
 542.702148438 23.037109375 l 1
 521.09375 12.37890625 498.16015625 3.6826171875 474.044921875 -2.78125 c 0
 270.234375 -57.3896484375 59.5087890625 68.3544921875 3.3447265625 277.9609375 c 0
 -53.0771484375 488.53125 66.5439453125 702.79296875 270.353515625 757.403320312 c 0
 294.46875 763.866210938 318.680664062 767.802734375 342.721679688 769.372070312 c 1
 384.633789062 612.95703125 l 1
 368.18359375 614.084960938 351.4296875 613.403320312 334.618164062 610.763671875 c 1
 440.943359375 488.297851562 l 1
 505.856445312 506.979492188 601.125976562 540.02734375 664.646484375 503.353515625 c 0
 672.24609375 498.966796875 679.537109375 494.25 686.516601562 489.231445312 c 1
304.965820312 395.359375 m 1
 189.19140625 523.487304688 l 1
 147.331054688 467.865234375 130.83984375 393.290039062 150.615234375 319.491210938 c 0
 172.76953125 236.805664062 235.575195312 175.953125 311.170898438 153.971679688 c 1
 270.352539062 226.275390625 265.6875 316.424804688 304.965820312 395.359375 c 1
EndSplineSet
EndChar

StartChar: uni09B7
Encoding: 2487 2487 394
Width: 841
VWidth: 0
Flags: HW
HStem: 20 152<185.1 530.7> 620 152<-15.7 328.3>
LayerCount: 2
Fore
SplineSet
594 681 m 1
 307.166015625 681 l 1
 594 538.982421875 l 1
 594 681 l 1
594 166.658203125 m 1
 594 391.504882812 l 1
 461.956054688 446.836914062 l 1
 252.186523438 272.055664062 l 1
 594 166.658203125 l 1
26.755859375 190.198242188 m 1
 58.228515625 337.01953125 l 1
 329.267578125 497.461914062 l 1
 68.0986328125 681 l 1
 -50 681 l 1
 -50 813 l 1
 791 813 l 1
 791 681 l 1
 746 681 l 1
 746 8 l 1
 594 8 l 1
 594 10.1826171875 l 1
 26.755859375 190.198242188 l 1
EndSplineSet
EndChar

StartChar: uni09A5
Encoding: 2469 2469 395
Width: 723
VWidth: 0
Flags: HW
HStem: 13 151<193.471 284> 377 151<193.471 284>
VStem: 0 151<206.066 334.529>
LayerCount: 2
Fore
SplineSet
124.400390625 776.462890625 m 1
 131.243164062 777.149414062 136.181640625 777.52734375 143.200195312 777.5 c 0
 257.951171875 777.052734375 410.767578125 708.090820312 417.599609375 588.900390625 c 0
 426.655273438 430.920898438 231.840820312 357.525390625 130 293 c 1
 474 176.745117188 l 1
 474 681 l 1
 474 787 l 1
 474 813 l 1
 673 813 l 1
 673 681 l 1
 620 681 l 1
 620 11 l 1
 474 11 l 1
 474 26.0556640625 l 1
 38 207 l 1
 38 359 l 1
 38 359 179 456 261 528 c 0
 282 546 298.799804688 588.900390625 298.799804688 588.900390625 c 1
 298.799804688 636.099609375 193.200195312 656.700195312 145.200195312 656.700195312 c 0
 138.029296875 656.700195312 131.060546875 655.83203125 124.400390625 654.194335938 c 1
 124.400390625 776.462890625 l 1
EndSplineSet
EndChar

StartChar: uni0980
Encoding: 2432 2432 396
Width: 534
VWidth: 0
Flags: HW
HStem: 275 151<193.471 282> 639 150<193.591 281.625>
VStem: 282 152<13 276 426.026 638.974> 0 151<468.471 596.934>
LayerCount: 2
Fore
SplineSet
210 353 m 1
 210 275 l 1
 67 275 0 390 0 533 c 0
 0 675 115 790 258 790 c 0
 266 790 353 797 395 762 c 0
 433 730 434 641 434 641 c 1
 434 13 l 1
 282 13 l 1
 282 276 l 1
 276.247070312 275.28125 288.752929688 398.056640625 283 398 c 1
 282 429 l 1
 282 636 l 1
 274 638 266 639 258 639 c 0
 198 639 151 592 151 533 c 0
 151 473 150 426 210 426 c 0
 211.09375 426 208.90625 352.962890625 210 353 c 1
EndSplineSet
EndChar

StartChar: uni09BC
Encoding: 2492 2492 397
Width: 0
VWidth: 0
GlyphClass: 4
Flags: HW
HStem: 8 142<-126 26>
VStem: -126 152<8 150>
LayerCount: 2
Fore
SplineSet
-510 -128 m 1
 -510 14 l 1
 -358 14 l 1
 -358 -128 l 1
 -510 -128 l 1
EndSplineSet
EndChar

StartChar: uni09BD
Encoding: 2493 2493 398
Width: 689
VWidth: 0
Flags: HW
LayerCount: 2
Fore
SplineSet
199 492.999023438 m 1
 199 477 l 1
 189.196289062 485.032226562 l 2
 188.168945312 484.111328125 187.151367188 483.169921875 186.141601562 482.20703125 c 2
 186.141601562 482.20703125 172.28125 495.926757812 154.485351562 513.469726562 c 2
 -50 681 l 1
 -50 813 l 1
 157.661132812 642.868164062 l 1
 252.690429688 685.614257812 366.420898438 668.53125 445.080078125 589.872070312 c 0
 546.706054688 488.24609375 544.452148438 326.5078125 442.18359375 223.525390625 c 0
 416.661132812 197.825195312 389.724609375 179.067382812 362.2578125 166.3515625 c 1
 543 9 l 1
 384 9 l 1
 175.735351562 163.26953125 l 1
 140.404296875 177.595703125 107.993164062 199.703125 80.9208984375 227.127929688 c 1
 183.453125 329.66015625 l 1
 183.686523438 329.422851562 183.921875 329.186523438 184.158203125 328.950195312 c 0
 226.666992188 286.440429688 290.711914062 287.127929688 336.141601562 331.051757812 c 0
 379.873046875 376.353515625 380.990234375 440.416015625 338.306640625 483.099609375 c 0
 299.102539062 522.3046875 242.970703125 525.259765625 199 492.999023438 c 1
EndSplineSet
EndChar

StartChar: uni099A
Encoding: 2458 2458 399
Width: 530
VWidth: 0
Flags: HW
HStem: 377.571 151<152 240.529> 14.5714 150<152.375 240.409>
VStem: 0 152<527.571 790.571 164.597 377.545> 283 151<206.637 335.1>
LayerCount: 2
Fore
SplineSet
152 167.571289062 m 1
 160 165.571289062 168 164.571289062 176 164.571289062 c 0
 236 164.571289062 283 211.571289062 283 270.571289062 c 0
 283 330.571289062 236 377.571289062 176 377.571289062 c 0
 168 377.571289062 160 376.571289062 152 374.571289062 c 1
 152 167.571289062 l 1
480 813 m 1
 480 681 l 1
 152 681 l 1
 152 527.571289062 l 1
 160 528.571289062 168 528.571289062 176 528.571289062 c 0
 319 528.571289062 434 413.571289062 434 270.571289062 c 0
 434 128.571289062 319 13.5712890625 176 13.5712890625 c 0
 168 13.5712890625 81 6.5712890625 39 41.5712890625 c 0
 1 73.5712890625 0 162.571289062 0 162.571289062 c 1
 0 681 l 1
 -50 681 l 1
 -50 813 l 1
 480 813 l 1
EndSplineSet
EndChar

StartChar: uni09CD
Encoding: 2509 2509 400
Width: 0
VWidth: 0
Flags: HW
LayerCount: 2
Fore
SplineSet
-154 9 m 1
 -10 -176 l 5
 -116 -237 l 5
 -260 -52 l 1
 -154 9 l 1
EndSplineSet
EndChar

StartChar: uni09B8
Encoding: 2488 2488 401
Width: 512
VWidth: 0
Flags: HW
LayerCount: 2
Fore
SplineSet
5 105 m 1
 80 230 l 1
 86 225 92 220 102 215 c 0
 153 185 217 202 247 250 c 0
 279 306 229 354 177 363 c 1
 52.7919921875 430.033203125 -30.6025390625 542.73828125 47.517578125 681 c 1
 -50 681 l 1
 -50 813 l 1
 726 813 l 1
 726 681 l 1
 705 681 l 1
 705 10 l 1
 553.018554688 10 l 1
 551 8 l 1
 378.500976562 180.499023438 l 1
 378.006835938 179.66796875 377.506835938 178.834960938 377 178 c 0
 308 61 151 22 26 90 c 0
 20 96 12 99 5 105 c 1
395.565429688 335.6171875 m 1
 396 338 l 1
 553 204.877929688 l 1
 553 681 l 1
 305.704101562 681 l 1
 299.729492188 676.977539062 294.71875 674.640625 292 676 c 0
 288.315429688 678.022460938 284.744140625 679.681640625 281.276367188 681 c 2
 241.71875 681 l 1
 218.456054688 670.96484375 200.250976562 643.418945312 182 613 c 0
 149 558 182 477 246 466 c 1
 310.7421875 431.138671875 369.97265625 389.541992188 395.565429688 335.6171875 c 1
EndSplineSet
EndChar

StartChar: uni09AE
Encoding: 2478 2478 402
Width: 778
VWidth: 0
Flags: HW
LayerCount: 2
Fore
SplineSet
257.43359375 456.358398438 m 1025
720 813 m 1
 720 681 l 1
 699 681 l 1
 699 10 l 1
 547.018554688 10 l 1
 545 8 l 1
 429.301757812 123.698242188 l 1
 382.826171875 56.79296875 305.244140625 13 217 13 c 0
 215.956054688 13 214.92578125 13.001953125 213.90625 13.001953125 c 0
 213.603515625 13.001953125 213.301757812 13 213 13 c 0
 211.815429688 13 210.631835938 13.0078125 209.451171875 13.0234375 c 0
 204.662109375 13.0693359375 200.004882812 13.205078125 195.133789062 13.6025390625 c 0
 60.5419921875 22.708984375 -45 133.96484375 -45 270 c 0
 -45 349.491210938 -9.4638671875 420.331054688 46.6640625 467.573242188 c 1
 5.15234375 527.244140625 -4.953125 599.8515625 41.4736328125 681 c 1
 -56 681 l 1
 -56 813 l 1
 720 813 l 1
214.955078125 376.982421875 m 0
 206.641601562 376.842773438 198.393554688 375.848632812 191 374 c 1
 191 374.828125 l 1
 141.8984375 364.9453125 106 322.4375 106 270 c 0
 106 218.436523438 141.8984375 176.0390625 191 166.169921875 c 1
 191 167 l 1
 198.393554688 165.151367188 206.641601562 164.157226562 214.955078125 164.017578125 c 0
 223.23046875 164.163085938 231.280273438 165.234375 239 167.131835938 c 1
 239 166.169921875 l 1
 288.1015625 176.0390625 324 218.436523438 324 270 c 0
 324 322.4375 288.1015625 364.9453125 239 374.828125 c 1
 239 373.864257812 l 1
 231.280273438 375.765625 223.23046875 376.836914062 214.955078125 376.982421875 c 0
547 204.877929688 m 1
 547 681 l 1
 299.704101562 681 l 1
 293.729492188 676.977539062 288.71875 674.640625 286 676 c 0
 282.315429688 678.022460938 278.744140625 679.681640625 275.276367188 681 c 2
 235.71875 681 l 1
 212.456054688 670.96484375 194.250976562 643.418945312 176 613 c 0
 159.8125 586.020507812 159.505859375 552.78515625 170.94921875 524.624023438 c 1
 178.890625 525.9140625 186.956054688 526.84375 195.12890625 527.397460938 c 0
 200.001953125 527.794921875 204.66015625 527.930664062 209.451171875 527.9765625 c 0
 210.631835938 527.9921875 211.815429688 528 213 528 c 0
 213.301757812 528 213.603515625 527.999023438 213.905273438 527.998046875 c 0
 214.92578125 528 215.956054688 528 217 528 c 0
 360 528 475 413 475 270 c 0
 475 268.6484375 474.989257812 267.299804688 474.96875 265.954101562 c 2
 547 204.877929688 l 1
EndSplineSet
EndChar

StartChar: uni0998
Encoding: 2456 2456 403
Width: 770
VWidth: 0
Flags: HW
LayerCount: 2
Fore
SplineSet
29.7421875 681.545898438 m 1
 -56 681 l 1
 -56 813 l 1
 720 813 l 1
 720 681 l 1
 699 681 l 1
 699 10 l 1
 309 29.3212890625 l 0
 137.732421875 29.3212890625 0 131.786132812 0 258.307617188 c 0
 0 321.702148438 28.4677734375 378.918945312 74.689453125 420.4140625 c 1
 28.4677734375 461.795898438 0 518.791015625 0 581.741210938 c 0
 0 617.5546875 10.669921875 651.396484375 29.7421875 681.545898438 c 1
547 681 m 1
 303 677.078125 l 1
 217.766601562 677.078125 151 635.200195312 151 581.741210938 c 0
 151 532.912109375 191.549804688 493.30859375 245.40234375 487.918945312 c 0
 249.576171875 488.095703125 253.775390625 488.186523438 258 488.186523438 c 0
 262.170898438 488.186523438 266.318359375 488.096679688 270.442382812 487.921875 c 0
 275.056640625 488.391601562 279.58203125 489.1171875 284 490.0859375 c 1
 284 487.030273438 l 1
 284 353.909179688 l 1
 284 350.850585938 l 1
 279.58203125 351.8203125 275.056640625 352.547851562 270.44140625 353.017578125 c 0
 266.318359375 352.841796875 262.170898438 352.75390625 258 352.75390625 c 0
 253.776367188 352.75390625 249.577148438 352.84375 245.404296875 353.020507812 c 0
 191.55078125 347.627929688 151 307.96484375 151 258.307617188 c 0
 151 205.740234375 220.40234375 163.861328125 309 163.861328125 c 5
 550 170 l 5
 547 681 l 1
EndSplineSet
EndChar

StartChar: uni0999
Encoding: 2457 2457 404
Width: 616
VWidth: 0
Flags: HW
HStem: 13.0016 151.016<193.473 323.671> 376 151.998<259 391> 681 132<-50 259 391 566> 681 80<259 391>
VStem: 259 132<527.998 761>
LayerCount: 2
Fore
SplineSet
-40 710 m 1
 80 806 l 1
 261.640625 700.890625 l 1
 267.836914062 762.955078125 318.28515625 812.319335938 381 817 c 0
 383 817 386 817 388 817 c 0
 389 817 389 817 390 817 c 0
 391 817 391 817 392 817 c 0
 464 817 521 760 521 688 c 0
 521 639.665039062 444.583007812 577.791992188 405 556 c 1
 353 458 l 1
 431.610351562 413.868164062 522.310546875 366.931640625 520 270 c 0
 516.541015625 124.885742188 402.287109375 12.7998046875 258.90625 13.001953125 c 0
 89.0390625 13.240234375 5.1650390625 141.7890625 6.0009765625 271 c 1
 151.00390625 271 l 1
 151.000976562 270.666992188 151 270.333984375 151 270 c 0
 151 209.8828125 196.772460938 165.08203125 259.955078125 164.017578125 c 0
 322.911132812 165.126953125 369 209.63671875 369 270 c 0
 369 326.657226562 329.734375 369.046875 273.932617188 376 c 1
 259 376 l 1
 268 527.624023438 l 2
 267.96875 527.87109375 267.9375 527.998046875 267.905273438 527.998046875 c 1
 267.9375 527.998046875 267.96875 527.998046875 268 527.998046875 c 2
 277 554 l 1
 271.180664062 576.630859375 l 1
 261.329101562 582.219726562 252.288085938 589.047851562 244.279296875 596.907226562 c 1
 -40 710 l 1
391 742 m 0
 387 742 383 741 379 740 c 1
 379 741 l 1
 354 736 337 714 337 688 c 0
 337 670.083984375 345.072265625 654.54296875 358.270507812 644.973632812 c 2
 367.364257812 639.711914062 l 2
 371 638.075195312 374.891601562 636.821289062 379 636 c 1
 379 637 l 1
 383 636 387 635 391 635 c 0
 395 635 399 636 403 637 c 1
 403 636 l 1
 428 641 445 662 445 688 c 0
 445 714 428 736 403 741 c 1
 403 740 l 1
 399 741 395 742 391 742 c 0
EndSplineSet
EndChar

StartChar: uni09AA
Encoding: 2474 2474 405
Width: 619
VWidth: 0
Flags: HW
HStem: -29.1672 157<517.596 684.478> 596.833 161<517.596 684.478>
VStem: 230.569 153<266.132 461.033>
LayerCount: 2
Fore
SplineSet
174.63671875 585.595703125 m 1
 192.1640625 637.83984375 234.065429688 675.619140625 284.059570312 689.534179688 c 1
 240.935546875 713.227539062 186.286132812 714.090820312 139.953125 687.340820312 c 0
 98.5986328125 663.46484375 72.9296875 623.219726562 66.84765625 580.13671875 c 1
 174.63671875 585.595703125 l 1
301.774414062 375.487304688 m 1
 296.47265625 376.354492188 291.165039062 377.4921875 285.869140625 378.911132812 c 0
 241.588867188 390.776367188 214.08984375 447.485351562 193.658203125 484.428710938 c 1
 92.5458984375 477.296875 l 1
 98.8095703125 468.700195312 105.913085938 460.994140625 113.681640625 454.22265625 c 1
 26.0322265625 403.618164062 l 1
 16.1005859375 414.936523438 7.140625 427.376953125 -0.6611328125 440.891601562 c 0
 -66.5986328125 555.09765625 -24.7734375 702.654296875 93.22265625 770.779296875 c 0
 184.034179688 823.209960938 293.524414062 812.651367188 369 752.37890625 c 1
 369 855 l 1
 521 855 l 1
 521 811 l 1
 569 811 l 1
 569 679 l 1
 521 679 l 1
 521 6 l 1
 369 6 l 1
 369 496.981445312 l 1
 367 495 l 1
 368.055664062 601.0859375 l 1
 361.157226562 597.103515625 l 1
 359.939453125 592.561523438 l 1
 358.790039062 593.1953125 357.614257812 593.796875 356.416992188 594.368164062 c 2
 354.438476562 593.224609375 l 1
 354.291992188 593.973632812 354.137695312 594.720703125 353.977539062 595.46875 c 0
 351.025390625 596.733398438 347.9453125 597.8046875 344.750976562 598.659179688 c 0
 308.528320312 608.366210938 272.55078125 587.594726562 262.844726562 551.37109375 c 0
 253.30078125 515.751953125 274.073242188 479.77734375 310.294921875 470.071289062 c 0
 315.706054688 468.620117188 321.140625 467.868164062 326.497070312 467.755859375 c 1
 301.774414062 375.487304688 l 1
175.38671875 585.633789062 m 2
 175.694335938 587.6875 175.354492188 587.16796875 174.775390625 585.603515625 c 1
 175.38671875 585.633789062 l 2
EndSplineSet
EndChar

StartChar: uni09E7
Encoding: 2535 2535 406
Width: 555
VWidth: 0
Flags: HW
HStem: 626 157<1.091 167.973> -4 161<1.091 167.973>
VStem: 302 153<292.8 487.701>
LayerCount: 2
Fore
SplineSet
73 157 m 0
 200 157 302 262 302 391 c 0
 302 521 200 626 73 626 c 0
 47.4453125 626 22.9033203125 621.749023438 0 613.897460938 c 1
 0 775.830078125 l 1
 23.62890625 780.536132812 48.0341796875 783 73 783 c 0
 284 783 455 607 455 389 c 0
 455 172 284 -4 73 -4 c 0
 48.0341796875 -4 23.62890625 -1.5361328125 0 3.16796875 c 1
 0 169.09375 l 1
 22.9033203125 161.250976562 47.4453125 157 73 157 c 0
EndSplineSet
EndChar

StartChar: uni09E8
Encoding: 2536 2536 407
Width: 783
VWidth: 0
Flags: HW
HStem: 20 152<251 683> 620 152<0 430>
LayerCount: 2
Fore
SplineSet
-79.83984375 236.225585938 m 1
 -3.83984375 367.861328125 l 1
 377.34375 456.08984375 l 1
 4.5859375 672.456054688 l 1
 80.5869140625 804.092773438 l 1
 611.826171875 496.2265625 l 1
 535.826171875 364.58984375 l 1
 153.77734375 276.861328125 l 1
 498.455078125 77.861328125 l 1
 422.455078125 -53.775390625 l 1
 -79.83984375 236.225585938 l 1
EndSplineSet
EndChar

StartChar: uni09A6
Encoding: 2470 2470 408
Width: 725
VWidth: 0
Flags: HW
HStem: 20 152<251 683> 620 152<0 430>
LayerCount: 2
Fore
SplineSet
612.5 592.5 m 1
 612.5 12.5 l 1
 460.5 12.5 l 1
 460.5 410.5 l 1
 193.5 123.5 l 1
 41.5 123.5 l 1
 40.591796875 681 l 1
 -50 681 l 1
 -50 813 l 1
 676 813 l 1
 676 681 l 1
 192.630859375 681 l 1
 193.5 306.5 l 1
 460.5 592.5 l 1
 612.5 592.5 l 1
EndSplineSet
EndChar

StartChar: uni09E9
Encoding: 2537 2537 409
Width: 726
VWidth: 75
Flags: HW
HStem: 14.7002 133.6<255.264 418.805> 523.479 120.821<345.987 417.023> 681 132<-50 676>
VStem: 42.4004 111.399<250.829 338.876> 520.2 133.399<250.829 424.049>
LayerCount: 2
Fore
SplineSet
339.780273438 523.478515625 m 1
 339.780273438 523.478515625 345.987304688 644.29296875 345.987304688 644.29296875 c 2
 346.657226562 644.297851562 347.328125 644.299804688 348 644.299804688 c 0
 516.799804688 644.299804688 653.599609375 503.5 653.599609375 329.900390625 c 0
 653.599609375 155.5 516.799804688 14.7001953125 348 14.7001953125 c 0
 179.200195312 14.7001953125 42.400390625 155.5 42.400390625 329.900390625 c 0
 42.400390625 330.77734375 153.86328125 340.658203125 153.870117188 341.533203125 c 1
 153.823242188 339.794921875 153.799804688 338.049804688 153.799804688 336.299804688 c 0
 153.799804688 232.299804688 235.400390625 148.299804688 337 148.299804688 c 0
 438.599609375 148.299804688 520.200195312 232.299804688 520.200195312 336.299804688 c 0
 520.200195312 438.556640625 440.084960938 521.962890625 339.780273438 523.478515625 c 1
EndSplineSet
EndChar

StartChar: uni099B
Encoding: 2459 2459 410
Width: 726
VWidth: 75
Flags: HW
LayerCount: 2
Fore
SplineSet
676 813 m 1
 676 681 l 1
 165 681 l 1
 165 581.400390625 l 1
 171.400390625 582.200195312 177.799804688 582.200195312 184.200195312 582.200195312 c 0
 253.5859375 582.200195312 314.731445312 548.356445312 352.107421875 496.198242188 c 1
 363.2421875 497.475585938 374.616210938 498.13671875 386.1796875 498.13671875 c 0
 521.220703125 498.13671875 630.66015625 408.0234375 630.66015625 296.920898438 c 0
 630.66015625 213.858398438 570.052734375 148.09375 483.390625 119.879882812 c 1
 659.459960938 121.560546875 l 1
 659.459960938 43.736328125 l 1
 337.540039062 40.6640625 l 1
 339.459960938 191.500976562 l 1
 354.118164062 187.48046875 369.825195312 185.3046875 386.1796875 185.3046875 c 0
 467.459960938 185.3046875 532.740234375 229.3359375 532.740234375 295.896484375 c 0
 532.740234375 361.78125 467.783203125 415.4375 386.783203125 415.703125 c 1
 389.288085938 402.80078125 390.599609375 389.459960938 390.599609375 375.799804688 c 0
 390.599609375 262.200195312 298.599609375 170.200195312 184.200195312 170.200195312 c 0
 177.799804688 170.200195312 171.400390625 170.200195312 165 171 c 2
 43.400390625 171 l 1
 43.400390625 681 l 1
 -50 681 l 1
 -50 813 l 1
 676 813 l 1
165 293.400390625 m 1
 171.400390625 291.799804688 177.799804688 291 184.200195312 291 c 0
 232.200195312 291 269.799804688 328.599609375 269.799804688 375.799804688 c 0
 269.799804688 423.799804688 232.200195312 461.400390625 184.200195312 461.400390625 c 0
 177.799804688 461.400390625 171.400390625 460.599609375 165 459 c 1
 165 293.400390625 l 1
EndSplineSet
EndChar

StartChar: uni09A0
Encoding: 2464 2464 411
Width: 726
VWidth: 75
Flags: HW
LayerCount: 2
Fore
SplineSet
324 546 m 1030
676 813 m 1
 676 681 l 1
 564.923828125 681 l 1
 675.252929688 586.844726562 727.63671875 431.422851562 686.516601562 277.9609375 c 0
 630.352539062 68.3544921875 419.626953125 -57.3896484375 215.81640625 -2.78125 c 0
 191.701171875 3.6826171875 168.767578125 12.37890625 147.159179688 23.037109375 c 1
 186.892578125 171.319335938 l 1
 183.129882812 177.834960938 l 1
 185.1484375 178.418945312 187.159179688 179.067382812 189.159179688 179.77734375 c 2
 190.104492188 183.309570312 l 1
 191.118164062 182.627929688 192.137695312 181.956054688 193.1640625 181.290039062 c 0
 197.936523438 183.200195312 202.630859375 185.475585938 207.213867188 188.12109375 c 0
 259.17578125 218.119140625 228.616210938 613.452148438 198.615234375 665.413085938 c 0
 195.375976562 671.0234375 191.71875 676.224609375 187.706054688 681 c 1
 -50 681 l 1
 -50 813 l 1
 201.8359375 813 l 1
 186.87109375 827.96484375 l 2
 141.616210938 873.219726562 163.536132812 930.49609375 118.28125 975.750976562 c 0
 82.21875 1011.8125 -4.7548828125 1019.59082031 -4.7548828125 1019.59082031 c 1
 83.6328125 1107.97949219 l 1
 83.6328125 1107.97949219 168.486328125 1102.32226562 203.841796875 1066.96777344 c 0
 250.510742188 1020.29785156 231.418945312 961.608398438 278.087890625 914.939453125 c 0
 309.200195312 883.826171875 309.907226562 883.119140625 340.723632812 851.7109375 c 0
 367.475585938 825.282226562 410.520507812 815.987304688 444.153320312 813 c 2
 676 813 l 1
336 626 m 1
 375.278320312 547.065429688 419.508789062 226.275390625 378.690429688 153.971679688 c 1
 454.286132812 175.953125 517.08984375 236.806640625 539.24609375 319.491210938 c 0
 559.021484375 393.290039062 443.860351562 606.377929688 402 662 c 1
 336 626 l 1
EndSplineSet
EndChar

StartChar: uni09EA
Encoding: 2538 2538 412
Width: 616
VWidth: 0
Flags: HW
HStem: 376.983 92.0348<236.347 283.638>
VStem: 0 151<207.14 334.826 510.772 638.449> 369 151<205.844 334.826 510.772 639.753>
LayerCount: 2
Fore
SplineSet
259.037109375 13.201171875 m 0
 258.771484375 13.201171875 258.505859375 13.2001953125 258.240234375 13.2001953125 c 0
 257.197265625 13.2001953125 256.15625 13.2060546875 255.116210938 13.220703125 c 0
 250.90234375 13.2607421875 246.8046875 13.380859375 242.518554688 13.7294921875 c 0
 124.077148438 21.744140625 31.2001953125 119.6484375 31.2001953125 239.359375 c 0
 31.2001953125 289.814453125 89.974609375 379.916992188 112.056640625 409.995117188 c 1
 89.974609375 439.971679688 76.9599609375 476.998046875 76.9599609375 517.078125 c 0
 76.9599609375 613.520507812 151.259765625 691.87109375 246.010742188 698.286132812 c 0
 249.44140625 698.565429688 252.720703125 698.661132812 256.092773438 698.694335938 c 0
 256.924804688 698.706054688 257.7578125 698.709960938 258.591796875 698.709960938 c 0
 258.8046875 698.709960938 259.017578125 698.709960938 259.228515625 698.708984375 c 0
 259.947265625 698.709960938 260.672851562 698.709960938 261.408203125 698.709960938 c 0
 362.080078125 698.709960938 443.040039062 617.75 443.040039062 517.078125 c 0
 443.040039062 476.998046875 430.025390625 439.971679688 407.943359375 409.995117188 c 1
 430.025390625 379.916992188 488.799804688 289.814453125 488.799804688 239.359375 c 0
 488.799804688 114.400390625 387.599609375 13.2001953125 261.759765625 13.2001953125 c 0
 260.840820312 13.2001953125 259.934570312 13.201171875 259.037109375 13.201171875 c 0
259.967773438 592.393554688 m 0
 254.115234375 592.295898438 248.309570312 591.596679688 243.103515625 590.293945312 c 1
 243.103515625 590.877929688 l 1
 208.536132812 583.920898438 183.263671875 553.994140625 183.263671875 517.078125 c 0
 183.263671875 480.778320312 208.536132812 450.930664062 243.103515625 443.982421875 c 1
 243.103515625 444.56640625 l 1
 248.309570312 443.264648438 254.115234375 442.565429688 259.967773438 442.467773438 c 0
 265.793945312 442.569335938 271.461914062 443.323242188 276.896484375 444.659179688 c 1
 276.896484375 443.982421875 l 1
 311.463867188 450.930664062 336.736328125 480.778320312 336.736328125 517.078125 c 0
 336.736328125 553.994140625 311.463867188 583.920898438 276.896484375 590.877929688 c 1
 276.896484375 590.198242188 l 1
 271.461914062 591.538085938 265.793945312 592.291992188 259.967773438 592.393554688 c 0
259.959960938 333.504882812 m 0
 252.64453125 333.381835938 245.38671875 332.505859375 238.879882812 330.879882812 c 1
 238.879882812 331.609375 l 1
 195.669921875 322.912109375 164.080078125 285.504882812 164.080078125 239.359375 c 0
 164.080078125 193.984375 195.669921875 156.673828125 238.879882812 147.990234375 c 1
 238.879882812 148.720703125 l 1
 245.38671875 147.09375 252.64453125 146.21875 259.959960938 146.094726562 c 0
 267.243164062 146.223632812 274.327148438 147.166015625 281.120117188 148.8359375 c 1
 281.120117188 147.990234375 l 1
 324.330078125 156.673828125 355.919921875 193.984375 355.919921875 239.359375 c 0
 355.919921875 285.504882812 324.330078125 322.912109375 281.120117188 331.609375 c 1
 281.120117188 330.760742188 l 1
 274.327148438 332.434570312 267.243164062 333.375976562 259.959960938 333.504882812 c 0
EndSplineSet
EndChar

StartChar: uni09E6
Encoding: 2534 2534 413
Width: 864
VWidth: 0
Flags: HW
HStem: 35.35 141.3<306.32 458.56> 598.75 144.9<306.32 458.56>
VStem: 76.5 122<292.263 485.349> 565.5 122<289.999 487.603>
LayerCount: 2
Fore
SplineSet
565.5 388.150390625 m 0
 565.5 504.25 484.5 598.75 382.5 598.75 c 0
 280.5 598.75 198.5 504.25 198.5 388.150390625 c 0
 198.5 271.150390625 280.5 176.650390625 382.5 176.650390625 c 0
 484.5 176.650390625 565.5 271.150390625 565.5 388.150390625 c 0
687.5 389.950195312 m 0
 687.5 193.75 551.5 35.349609375 382.5 35.349609375 c 0
 213.5 35.349609375 76.5 193.75 76.5 389.950195312 c 0
 76.5 585.25 213.5 743.650390625 382.5 743.650390625 c 0
 551.5 743.650390625 687.5 585.25 687.5 389.950195312 c 0
EndSplineSet
EndChar

StartChar: uni25CC
Encoding: 9676 9676 414
Width: 864
VWidth: 0
Flags: HW
HStem: -4 157<287.027 476.973> 622 161<287.027 476.973>
VStem: 0 153<288.712 488.774> 611 153<288.712 488.774>
LayerCount: 2
Fore
SplineSet
20 254 m 0
 20 303 59 342 108 342 c 0
 157 342 196 303 196 254 c 0
 196 205 157 166 108 166 c 0
 59 166 20 205 20 254 c 0
193 100 m 0
 193 149 232 188 281 188 c 0
 330 188 369 149 369 100 c 0
 369 51 330 12 281 12 c 0
 232 12 193 51 193 100 c 0
559 235 m 0
 559 284 598 323 647 323 c 0
 696 323 735 284 735 235 c 0
 735 186 696 147 647 147 c 0
 598 147 559 186 559 235 c 0
414 98 m 0
 414 147 453 186 502 186 c 0
 551 186 590 147 590 98 c 0
 590 49 551 10 502 10 c 0
 453 10 414 49 414 98 c 0
587 444 m 0
 587 493 626 532 675 532 c 0
 724 532 763 493 763 444 c 0
 763 395 724 356 675 356 c 0
 626 356 587 395 587 444 c 0
-2 472 m 0
 -2 521 37 560 86 560 c 0
 135 560 174 521 174 472 c 0
 174 423 135 384 86 384 c 0
 37 384 -2 423 -2 472 c 0
115 644 m 0
 115 693 154 732 203 732 c 0
 252 732 291 693 291 644 c 0
 291 595 252 556 203 556 c 0
 154 556 115 595 115 644 c 0
502 618 m 0
 502 667 541 706 590 706 c 0
 639 706 678 667 678 618 c 0
 678 569 639 530 590 530 c 0
 541 530 502 569 502 618 c 0
309 702 m 0
 309 751 348 790 397 790 c 0
 446 790 485 751 485 702 c 0
 485 653 446 614 397 614 c 0
 348 614 309 653 309 702 c 0
EndSplineSet
EndChar

StartChar: Euro
Encoding: 8364 8364 415
Width: 555
VWidth: 0
Flags: HW
HStem: -4 157<287.027 453.909> 622 161<287.027 453.909>
VStem: 0 153<291.299 486.2>
LayerCount: 2
Fore
SplineSet
-35 368 m 2
 373 368 l 2
 381 368 388 361 388 353 c 2
 388 297 l 2
 388 289 381 282 373 282 c 2
 -35 282 l 2
 -43 282 -50 289 -50 297 c 2
 -50 353 l 2
 -50 361 -43 368 -35 368 c 2
-35 543 m 6
 373 543 l 6
 381 543 388 536 388 528 c 6
 388 472 l 6
 388 464 381 457 373 457 c 6
 -35 457 l 6
 -43 457 -50 464 -50 472 c 6
 -50 528 l 6
 -50 536 -43 543 -35 543 c 6
382 622 m 0
 255 622 153 517 153 388 c 0
 153 258 255 153 382 153 c 0
 407.5546875 153 432.096679688 157.250976562 455 165.102539062 c 1
 455 3.169921875 l 1
 431.37109375 -1.5361328125 406.965820312 -4 382 -4 c 0
 171 -4 0 172 0 390 c 0
 0 607 171 783 382 783 c 0
 406.965820312 783 431.37109375 780.536132812 455 775.83203125 c 1
 455 609.90625 l 1
 432.096679688 617.749023438 407.5546875 622 382 622 c 0
EndSplineSet
EndChar

StartChar: uni20B9
Encoding: 8377 8377 416
Width: 826
VWidth: 75
Flags: HW
LayerCount: 2
Fore
SplineSet
726 813 m 1
 726 681 l 1
 387.1171875 681 l 1
 489.01953125 653.420898438 565.443359375 565.403320312 575.80078125 458 c 1
 711 458 l 2
 719 458 726 451 726 443 c 2
 726 395 l 2
 726 387 719 380 711 380 c 2
 571.603515625 380 l 1
 555.0234375 299.890625 501.556640625 233.643554688 429.596679688 199.649414062 c 1
 666.348632812 -27.0107421875 l 1
 573.010742188 -120.348632812 l 1
 197.651367188 239.010742188 l 1
 290.989257812 332.348632812 l 1
 294.788085938 328.711914062 l 1
 302.5703125 326.935546875 310.67578125 326 319 326 c 0
 359.588867188 326 394.228515625 347.508789062 412.393554688 380 c 1
 147 380 l 2
 139 380 132 387 132 395 c 2
 132 443 l 2
 132 451 139 458 147 458 c 2
 423.091796875 458 l 1
 411.978515625 504.739257812 370.227539062 539 319 539 c 0
 310.036132812 539 301.326171875 537.915039062 293 535.868164062 c 1
 293 681 l 1
 0 681 l 1
 0 813 l 1
 726 813 l 1
EndSplineSet
EndChar

StartChar: uni09F0
Encoding: 2544 2544 417
Width: 723
VWidth: 0
Flags: HW
HStem: 681 132<-50 474 620 673> 681 106<474 620>
VStem: 474 146<11 83.5 235.5 483.5 635.5 787> 474 57.5<83.5 235.5 483.5 483.5>
LayerCount: 2
Fore
SplineSet
673 813 m 1
 673 681 l 1
 620 681 l 1
 620 11 l 1
 476 11 l 1
 476 10 l 1
 474.334960938 11 l 1
 474 11 l 1
 474 11.201171875 l 1
 20.5 283.5 l 1
 20.5 435.5 l 1
 474 612.995117188 l 1
 474 681 l 1
 -50 681 l 1
 -50 813 l 1
 673 813 l 1
474 165.254882812 m 1
 474 248.194335938 l 1
 292.198242188 402.645507812 l 1
 164.5 359.5 l 1
 474 165.254882812 l 1
474 358.447265625 m 1
 474 464.072265625 l 1
 387.383789062 434.806640625 l 1
 474 358.447265625 l 1
EndSplineSet
EndChar

StartChar: uni09F1
Encoding: 2545 2545 418
Width: 723
VWidth: 0
Flags: HW
HStem: 681 132<-50 474 620 673> 681 106<474 620>
VStem: 474 146<11 83.5 235.5 483.5 635.5 787> 474 57.5<83.5 235.5 483.5 483.5>
LayerCount: 2
Fore
SplineSet
673 813 m 1
 673 681 l 1
 620 681 l 1
 620 11 l 1
 474 11 l 1
 330.336914062 109.336914062 170.356445312 191.356445312 20.5 283.5 c 1
 20.5 435.5 l 1
 474 612.995117188 l 1
 474 681 l 1
 -50 681 l 1
 -50 813 l 1
 673 813 l 1
-6 206 m 1
 426 -34 l 1
 364 -127 l 1
 -50 100 l 1
 -6 206 l 1
474 169.11328125 m 1
 474 464.072265625 l 1
 164.5 359.5 l 1
 474 169.11328125 l 1
EndSplineSet
EndChar

StartChar: uni09BF
Encoding: 2495 2495 419
Width: 275
VWidth: 0
Flags: HW
LayerCount: 2
Fore
SplineSet
222 813 m 1
 222 681 l 1
 177 681 l 1
 177 8 l 1
 25 8 l 1
 25 681 l 1
 -50 681 l 1
 -50 813 l 1
 25 813 l 1
 26.9267578125 813 l 1
 26.3125 820.25390625 26 827.590820312 26 835 c 0
 26 978 141 1093 283 1093 c 0
 426 1093 541 978 541 835 c 0
 541 826.2265625 540.560546875 817.553710938 539.704101562 809 c 1
 386.864257812 809 l 1
 388.915039062 817.326171875 390 826.036132812 390 835 c 0
 390 895 343 942 283 942 c 0
 224 942 177 895 177 835 c 0
 177 827.4609375 177.767578125 820.102539062 179.228515625 813 c 1
 222 813 l 1
EndSplineSet
EndChar

StartChar: uni09C0
Encoding: 2496 2496 420
Width: 246
VWidth: 0
Flags: HW
LayerCount: 2
Fore
SplineSet
196 813 m 1
 196 681 l 1
 151 681 l 1
 151 8 l 1
 -1 8 l 1
 -1 681 l 1
 -51 681 l 1
 -51 813 l 1
 -1 813 l 1
 -0.4873046875 813 l 1
 1.1435546875 821.529296875 2 834.033203125 2 842 c 0
 2 902 -45 949 -105 949 c 0
 -164 949 -211 902 -211 842 c 0
 -211 833.036132812 -209.915039062 824.326171875 -207.868164062 816 c 1
 -360.704101562 816 l 1
 -361.561523438 824.553710938 -362 833.2265625 -362 842 c 0
 -362 985 -247 1100 -105 1100 c 0
 38 1100 153 985 153 842 c 0
 153 834.182617188 152.651367188 821.682617188 151.969726562 813 c 1
 196 813 l 1
EndSplineSet
EndChar

StartChar: uni09C1
Encoding: 2497 2497 421
Width: 0
VWidth: 0
Flags: HW
LayerCount: 2
Fore
SplineSet
-205.935546875 -107.4140625 m 0
 -212.5859375 -107.525390625 -219.185546875 -108.321289062 -225.099609375 -109.799804688 c 1
 -225.099609375 -109.137695312 l 1
 -264.380859375 -117.043945312 -293.099609375 -151.049804688 -293.099609375 -193 c 0
 -293.099609375 -234.250976562 -264.380859375 -268.168945312 -225.099609375 -276.064453125 c 1
 -225.099609375 -275.400390625 l 1
 -219.185546875 -276.87890625 -212.5859375 -277.673828125 -205.935546875 -277.786132812 c 0
 -199.314453125 -277.669921875 -192.875 -276.8125 -186.69921875 -275.294921875 c 1
 -186.69921875 -276.064453125 l 1
 -147.41796875 -268.168945312 -118.69921875 -234.250976562 -118.69921875 -193 c 0
 -118.69921875 -151.049804688 -147.41796875 -117.043945312 -186.69921875 -109.137695312 c 1
 -186.69921875 -109.908203125 l 1
 -192.875 -108.387695312 -199.314453125 -107.530273438 -205.935546875 -107.4140625 c 0
-206.775390625 -398.598632812 m 0
 -207.017578125 -398.598632812 -207.2578125 -398.599609375 -207.5 -398.599609375 c 0
 -208.447265625 -398.599609375 -209.39453125 -398.59375 -210.33984375 -398.581054688 c 0
 -214.169921875 -398.543945312 -217.896484375 -398.436523438 -221.79296875 -398.118164062 c 0
 -329.466796875 -390.833007812 -413.900390625 -301.828125 -413.900390625 -193 c 0
 -413.900390625 -83.4072265625 -329.46875 5.62890625 -221.796875 12.91796875 c 0
 -217.8984375 13.236328125 -214.171875 13.3447265625 -210.33984375 13.380859375 c 0
 -209.39453125 13.3935546875 -208.447265625 13.400390625 -207.5 13.400390625 c 0
 -207.2578125 13.400390625 -207.017578125 13.3994140625 -206.775390625 13.3984375 c 0
 -205.958984375 13.400390625 -205.134765625 13.400390625 -204.30078125 13.400390625 c 0
 -117.879882812 13.400390625 -44.2421875 -39.1005859375 -13.3916015625 -114.098632812 c 1
 313.900390625 14 l 1
 313.900390625 -107.599609375 l 1
 20.30078125 -206.799804688 l 1
 313.900390625 -306 l 1
 313.900390625 -427.599609375 l 1
 -24.939453125 -294.981445312 l 1
 -60.4130859375 -356.899414062 -127.280273438 -398.599609375 -204.30078125 -398.599609375 c 0
 -205.134765625 -398.599609375 -205.958984375 -398.598632812 -206.775390625 -398.598632812 c 0
EndSplineSet
EndChar

StartChar: uni09C2
Encoding: 2498 2498 422
Width: 0
VWidth: 0
Flags: HW
HStem: 13 151<389.817 480.346> 377 151<389.817 480.346>
VStem: 196.346 151<206.066 334.529>
LayerCount: 2
Fore
SplineSet
-27.322265625 25.6162109375 m 1
 353.4609375 -167.920898438 l 1
 292.163085938 -273.748046875 l 1
 51.2607421875 -151.307617188 l 1
 11.8583984375 -285.822265625 -126.907226562 -364.293945312 -262.094726562 -328.071289062 c 0
 -400.22265625 -291.059570312 -481.540039062 -150.213867188 -444.528320312 -12.0869140625 c 0
 -442.2578125 -3.6123046875 -439.588867188 4.6513671875 -436.547851562 12.69140625 c 1
 -288.915039062 -26.8662109375 l 1
 -293.051757812 -34.3779296875 -296.353515625 -42.509765625 -298.673828125 -51.1689453125 c 0
 -314.203125 -109.124023438 -280.96875 -166.6875 -223.013671875 -182.215820312 c 0
 -166.0234375 -197.486328125 -108.4609375 -164.252929688 -92.931640625 -106.296875 c 0
 -90.611328125 -97.638671875 -89.4052734375 -88.9443359375 -89.2275390625 -80.3720703125 c 1
 -87.2783203125 -80.89453125 l 1
 -88.62109375 -80.2119140625 l 1
 -27.322265625 25.6162109375 l 1
EndSplineSet
EndChar

StartChar: uni09C3
Encoding: 2499 2499 423
Width: 0
VWidth: 0
Flags: HW
LayerCount: 2
Fore
SplineSet
154.400390625 14 m 257
 154.400390625 -107.599609375 l 257
 -139.19921875 -206.799804688 l 257
 154.400390625 -306 l 257
 154.400390625 -427.599609375 l 257
 -254.400390625 -267.599609375 l 257
 -254.400390625 -146 l 257
 154.400390625 14 l 257
EndSplineSet
EndChar

StartChar: uni09C4
Encoding: 2500 2500 424
Width: 0
VWidth: 0
Flags: HW
LayerCount: 2
Fore
SplineSet
154.400390625 14 m 1
 154.400390625 -107.599609375 l 1
 107.932617188 -123.299804688 l 1
 154.400390625 -139 l 1
 154.400390625 -260.599609375 l 1
 -55.400390625 -178.486328125 l 1
 -139.19921875 -206.799804688 l 1
 154.400390625 -306 l 1
 154.400390625 -427.599609375 l 1
 -254.400390625 -267.599609375 l 1
 -254.400390625 -146 l 1
 -196.401367188 -123.299804688 l 1
 -254.400390625 -100.599609375 l 1
 -254.400390625 21 l 1
 154.400390625 181 l 1
 154.400390625 59.400390625 l 1
 -139.19921875 -39.7998046875 l 1
 -55.400390625 -68.11328125 l 1
 154.400390625 14 l 1
EndSplineSet
EndChar

StartChar: uni09C7
Encoding: 2503 2503 425
Width: 624
VWidth: 75
Flags: HW
LayerCount: 2
Fore
SplineSet
571 813 m 5
 571 681 l 5
 404.5 681 l 5
 338.799804688 671 l 4
 224.5 671 132.700195312 482.5 132.700195312 366.400390625 c 4
 132.700195312 249.400390625 224.5 154.900390625 338.799804688 154.900390625 c 4
 361.798828125 154.900390625 383.88671875 158.725585938 404.5 165.791992188 c 5
 404.5 20.052734375 l 5
 383.234375 15.8173828125 361.26953125 13.599609375 338.799804688 13.599609375 c 4
 148.900390625 13.599609375 -5 172 -5 368.200195312 c 4
 -5 471.798828125 38.3056640625 591.463867188 107.317382812 681 c 5
 -50 681 l 5
 -50 813 l 5
 571 813 l 5
EndSplineSet
EndChar

StartChar: uni09C8
Encoding: 2504 2504 426
Width: 624
VWidth: 75
Flags: HW
LayerCount: 2
Fore
SplineSet
571 813 m 1
 571 681 l 1
 404.5 681 l 1
 338.799804688 671 l 1
 224.5 671 132.700195312 482.5 132.700195312 366.400390625 c 0
 132.700195312 249.400390625 224.5 154.900390625 338.799804688 154.900390625 c 0
 361.798828125 154.900390625 383.88671875 158.725585938 404.5 165.791992188 c 1
 404.5 20.052734375 l 1
 383.234375 15.8173828125 361.26953125 13.599609375 338.799804688 13.599609375 c 0
 148.900390625 13.599609375 -5 172 -5 368.200195312 c 0
 -5 471.798828125 38.3056640625 591.463867188 107.317382812 681 c 1
 -50 681 l 1
 -50 813 l 1
 283.489257812 813 l 1
 277.990234375 838.393554688 267.922851562 864.420898438 249.7890625 882.776367188 c 0
 218.380859375 913.592773438 217.673828125 914.299804688 186.560546875 945.412109375 c 0
 139.891601562 992.081054688 81.2021484375 972.989257812 34.5322265625 1019.65820312 c 0
 -0.822265625 1055.01367188 -6.4794921875 1139.8671875 -6.4794921875 1139.8671875 c 1
 81.9091796875 1228.25488281 l 1
 81.9091796875 1228.25488281 89.6875 1141.28125 125.749023438 1105.21875 c 0
 171.00390625 1059.96386719 228.280273438 1081.88378906 273.53515625 1036.62890625 c 0
 307.475585938 1002.68847656 310.3046875 999.859375 344.245117188 965.918945312 c 0
 394.2734375 915.890625 374.794921875 818.1796875 377.479492188 818.1328125 c 1
 372.346679688 813 l 1
 571 813 l 1
EndSplineSet
EndChar

StartChar: uni09D7
Encoding: 2519 2519 427
Width: 254
VWidth: 0
Flags: HW
LayerCount: 2
Fore
SplineSet
205 813 m 1
 205 681 l 1
 160 681 l 1
 160 8 l 1
 8 8 l 1
 8 681 l 1
 -50 681 l 1
 -50 813 l 1
 8 813 l 1
 18.1728515625 813 l 1
 12.3720703125 827.458007812 4.4833984375 840.951171875 -6.2109375 851.776367188 c 0
 -37.619140625 882.592773438 -38.326171875 883.299804688 -69.439453125 914.412109375 c 0
 -116.108398438 961.081054688 -174.797851562 941.989257812 -221.467773438 988.658203125 c 0
 -256.822265625 1024.01367188 -262.479492188 1108.8671875 -262.479492188 1108.8671875 c 1
 -174.090820312 1197.25488281 l 1
 -174.090820312 1197.25488281 -166.3125 1110.28125 -130.250976562 1074.21875 c 0
 -84.99609375 1028.96386719 -27.7197265625 1050.88378906 17.53515625 1005.62890625 c 0
 51.4755859375 971.688476562 54.3046875 968.859375 88.2451171875 934.918945312 c 0
 122.061523438 901.102539062 124.120117188 845.5 122.732421875 813 c 1
 160 813 l 1
 205 813 l 1
EndSplineSet
EndChar

StartChar: uni09E1
Encoding: 2529 2529 433
Width: 779
VWidth: 0
Flags: HW
HStem: 626 157<1.091 167.973> -4 161<1.091 167.973>
VStem: 302 153<292.8 487.701>
LayerCount: 2
Fore
SplineSet
258.26171875 -136.48828125 m 5
 257.918945312 -133.067382812 257.744140625 -129.59765625 257.744140625 -126.088867188 c 4
 257.744140625 -68.888671875 303.744140625 -22.888671875 360.543945312 -22.888671875 c 4
 398.513671875 -22.888671875 431.547851562 -43.1572265625 449.467773438 -73.517578125 c 5
 456.973632812 -42.9345703125 448.454101562 -9.0068359375 424.2421875 15.205078125 c 4
 387.47265625 51.974609375 328.923828125 52.8232421875 293.002929688 16.90234375 c 4
 285.775390625 9.673828125 280.036132812 1.5302734375 275.778320312 -7.16796875 c 5
 229.977539062 38.6328125 l 5
 235.329101562 46.6474609375 241.53515625 54.2470703125 248.596679688 61.30859375 c 4
 308.276367188 120.98828125 406.422851562 119.57421875 468.083007812 57.9140625 c 4
 529.458984375 -3.462890625 530.874023438 -101.609375 471.194335938 -161.2890625 c 4
 464.1328125 -168.349609375 456.533203125 -174.555664062 448.51953125 -179.908203125 c 5
 405.099609375 -136.48828125 l 5
 402.08984375 -136.48828125 l 5
 402.291015625 -135.671875 402.46875 -134.846679688 402.623046875 -134.01171875 c 6
 401.587890625 -132.977539062 l 5
 402.02734375 -132.762695312 402.463867188 -132.543945312 402.900390625 -132.322265625 c 4
 403.192382812 -130.286132812 403.34375 -128.205078125 403.34375 -126.088867188 c 4
 403.34375 -102.088867188 384.543945312 -83.2880859375 360.543945312 -83.2890625 c 4
 336.943359375 -83.2880859375 318.143554688 -102.088867188 318.14453125 -126.088867188 c 4
 318.143554688 -129.673828125 318.578125 -133.158203125 319.396484375 -136.48828125 c 5
 258.26171875 -136.48828125 l 5
48.1552734375 113.778320312 m 1
 47.2978515625 122.33203125 46.859375 131.004882812 46.859375 139.778320312 c 0
 46.859375 282.778320312 161.859375 397.779296875 303.859375 397.779296875 c 0
 398.783203125 397.779296875 481.369140625 347.10546875 526.170898438 271.20703125 c 1
 544.932617188 347.665039062 523.635742188 432.482421875 463.10546875 493.012695312 c 0
 371.181640625 584.936523438 224.810546875 587.05859375 135.0078125 497.255859375 c 0
 116.9375 479.185546875 102.58984375 458.826171875 91.9462890625 437.079101562 c 1
 -22.556640625 551.583007812 l 1
 -9.1767578125 571.619140625 6.337890625 590.618164062 23.9921875 608.271484375 c 0
 173.19140625 757.470703125 418.557617188 753.935546875 572.70703125 599.786132812 c 0
 726.1484375 446.34375 729.684570312 200.977539062 580.485351562 51.7783203125 c 0
 562.831054688 34.125 543.83203125 18.6103515625 523.797851562 5.228515625 c 1
 415.248046875 113.778320312 l 1
 407.724609375 113.778320312 l 1
 408.227539062 115.819335938 408.671875 117.883789062 409.056640625 119.969726562 c 2
 406.470703125 122.555664062 l 1
 407.567382812 123.092773438 408.66015625 123.639648438 409.75 124.1953125 c 0
 410.481445312 129.283203125 410.860351562 134.486328125 410.859375 139.778320312 c 0
 410.860351562 199.778320312 363.859375 246.779296875 303.859375 246.778320312 c 0
 244.859375 246.779296875 197.859375 199.778320312 197.860351562 139.778320312 c 0
 197.859375 130.814453125 198.9453125 122.104492188 200.991210938 113.778320312 c 1
 48.1552734375 113.778320312 l 1
EndSplineSet
EndChar

StartChar: uni09E0
Encoding: 2528 2528 434
Width: 1344
Flags: HW
LayerCount: 2
Fore
SplineSet
872 787 m 1
 1018 787 l 1
 1018 295.5 l 1
 1092.5 221 l 1
 1094.5 805 l 1
 1294.5 805 l 1
 1294.5 673 l 1
 1244.5 673 l 1
 1244.5 10 l 1
 1242 10 l 1
 1242 -79 l 1
 948.400390625 -178.200195312 l 1
 1242 -277.400390625 l 1
 1242 -399 l 1
 833.19921875 -239 l 1
 833.19921875 -117.400390625 l 1
 1158.70800781 10 l 1
 1092.51855469 10 l 1
 1090.5 8 l 1
 1018 80.5 l 1
 1018 11 l 1
 871 11 l 1
 871 12.6953125 l 1
 418.5 189.5 l 1
 418.5 341.5 l 1
 664.940429688 571.51171875 l 1
 675.203125 639.375976562 l 1
 648.943359375 563.631835938 577.708007812 510 494 510 c 0
 432.708984375 510 378.502929688 537.698242188 343.081054688 581.395507812 c 1
 307.87109375 537.698242188 254.15625 510 194 510 c 0
 86 510 0 596 0 704 c 0
 0 710 0 717 0 723 c 1
 116 723 l 1
 114 717 113 710 113 704 c 0
 113 659 149 623 194 623 c 0
 239 623 273 659 273 704 c 0
 273 710 272 717 270 723 c 1
 300 723 l 1
 386 723 l 1
 416 723 l 1
 414 717 413 710 413 704 c 0
 413 659 449 623 494 623 c 0
 539 623 573 659 573 704 c 0
 573 710 572 780 570 786 c 1
 872 787 l 1
871 169.684570312 m 1
 871 719.262695312 l 1
 704 454 l 1
 703.189453125 455.12109375 l 1
 562.5 283.5 l 1
 871 169.684570312 l 1
EndSplineSet
EndChar

StartChar: uni09E2
Encoding: 2530 2530 435
Width: 0
VWidth: 0
Flags: HW
LayerCount: 2
Fore
SplineSet
-164.251953125 -136.48828125 m 5
 -164.594726562 -133.067382812 -164.76953125 -129.59765625 -164.76953125 -126.088867188 c 4
 -164.76953125 -68.888671875 -118.76953125 -22.888671875 -61.9697265625 -22.888671875 c 4
 -24 -22.888671875 9.0341796875 -43.1572265625 26.9541015625 -73.517578125 c 5
 34.4599609375 -42.9345703125 25.9404296875 -9.0068359375 1.728515625 15.205078125 c 4
 -35.041015625 51.974609375 -93.58984375 52.8232421875 -129.510742188 16.90234375 c 4
 -136.73828125 9.673828125 -142.477539062 1.5302734375 -146.735351562 -7.16796875 c 5
 -192.536132812 38.6328125 l 5
 -187.184570312 46.6474609375 -180.978515625 54.2470703125 -173.916992188 61.30859375 c 4
 -114.237304688 120.98828125 -16.0908203125 119.57421875 45.5693359375 57.9140625 c 4
 106.9453125 -3.462890625 108.360351562 -101.609375 48.6806640625 -161.2890625 c 4
 41.619140625 -168.349609375 34.01953125 -174.555664062 26.005859375 -179.908203125 c 5
 -17.4140625 -136.48828125 l 5
 -20.423828125 -136.48828125 l 5
 -20.22265625 -135.671875 -20.044921875 -134.846679688 -19.890625 -134.01171875 c 6
 -20.92578125 -132.977539062 l 5
 -20.486328125 -132.762695312 -20.0498046875 -132.543945312 -19.61328125 -132.322265625 c 4
 -19.3212890625 -130.286132812 -19.169921875 -128.205078125 -19.169921875 -126.088867188 c 4
 -19.169921875 -102.088867188 -37.9697265625 -83.2880859375 -61.9697265625 -83.2890625 c 4
 -85.5703125 -83.2880859375 -104.370117188 -102.088867188 -104.369140625 -126.088867188 c 4
 -104.370117188 -129.673828125 -103.935546875 -133.158203125 -103.1171875 -136.48828125 c 5
 -164.251953125 -136.48828125 l 5
EndSplineSet
EndChar

StartChar: uni09E3
Encoding: 2531 2531 436
Width: 0
VWidth: 0
Flags: HW
LayerCount: 2
Fore
SplineSet
-8.2578125 -284.580078125 m 5
 -8.6005859375 -281.159179688 -8.775390625 -277.689453125 -8.775390625 -274.180664062 c 4
 -8.775390625 -216.98046875 37.224609375 -170.98046875 94.0244140625 -170.98046875 c 4
 131.994140625 -170.98046875 165.028320312 -191.249023438 182.948242188 -221.609375 c 5
 190.454101562 -191.026367188 181.934570312 -157.098632812 157.72265625 -132.88671875 c 4
 120.953125 -96.1171875 62.404296875 -95.2685546875 26.4833984375 -131.189453125 c 4
 19.255859375 -138.41796875 13.5166015625 -146.561523438 9.2587890625 -155.259765625 c 5
 -36.5419921875 -109.458984375 l 5
 -31.1904296875 -101.444335938 -24.984375 -93.8447265625 -17.9228515625 -86.783203125 c 4
 41.7568359375 -27.103515625 139.903320312 -28.517578125 201.563476562 -90.177734375 c 4
 262.939453125 -151.5546875 264.354492188 -249.701171875 204.674804688 -309.380859375 c 4
 197.61328125 -316.44140625 190.013671875 -322.647460938 182 -328 c 5
 138.580078125 -284.580078125 l 5
 135.5703125 -284.580078125 l 5
 135.771484375 -283.763671875 135.94921875 -282.938476562 136.103515625 -282.103515625 c 6
 135.068359375 -281.069335938 l 5
 135.5078125 -280.854492188 135.944335938 -280.635742188 136.380859375 -280.4140625 c 4
 136.672851562 -278.377929688 136.82421875 -276.296875 136.82421875 -274.180664062 c 4
 136.82421875 -250.180664062 118.024414062 -231.379882812 94.0244140625 -231.380859375 c 4
 70.423828125 -231.379882812 51.6240234375 -250.180664062 51.625 -274.180664062 c 4
 51.6240234375 -277.765625 52.05859375 -281.25 52.876953125 -284.580078125 c 5
 -8.2578125 -284.580078125 l 5
-193.2578125 -148.580078125 m 1
 -193.600585938 -145.159179688 -193.775390625 -141.689453125 -193.775390625 -138.180664062 c 0
 -193.775390625 -80.98046875 -147.775390625 -34.98046875 -90.9755859375 -34.98046875 c 0
 -53.005859375 -34.98046875 -19.9716796875 -55.2490234375 -2.0517578125 -85.609375 c 1
 5.4541015625 -55.0263671875 -3.0654296875 -21.0986328125 -27.27734375 3.11328125 c 0
 -64.046875 39.8828125 -122.595703125 40.7314453125 -158.516601562 4.810546875 c 0
 -165.744140625 -2.41796875 -171.483398438 -10.5615234375 -175.741210938 -19.259765625 c 1
 -221.541992188 26.541015625 l 1
 -216.190429688 34.5556640625 -209.984375 42.1552734375 -202.922851562 49.216796875 c 0
 -143.243164062 108.896484375 -45.0966796875 107.482421875 16.5634765625 45.822265625 c 0
 77.939453125 -15.5546875 79.3544921875 -113.701171875 19.6748046875 -173.380859375 c 0
 12.61328125 -180.44140625 5.013671875 -186.647460938 -3 -192 c 1
 -46.419921875 -148.580078125 l 1
 -49.4296875 -148.580078125 l 1
 -49.228515625 -147.763671875 -49.05078125 -146.938476562 -48.896484375 -146.103515625 c 2
 -49.931640625 -145.069335938 l 1
 -49.4921875 -144.854492188 -49.0556640625 -144.635742188 -48.619140625 -144.4140625 c 0
 -48.3271484375 -142.377929688 -48.17578125 -140.296875 -48.17578125 -138.180664062 c 0
 -48.17578125 -114.180664062 -66.9755859375 -95.3798828125 -90.9755859375 -95.380859375 c 0
 -114.576171875 -95.3798828125 -133.375976562 -114.180664062 -133.375 -138.180664062 c 0
 -133.375976562 -141.765625 -132.94140625 -145.25 -132.123046875 -148.580078125 c 1
 -193.2578125 -148.580078125 l 1
EndSplineSet
EndChar

StartChar: uni09F2
Encoding: 2546 2546 437
Width: 445
VWidth: 0
Flags: HW
LayerCount: 2
Fore
SplineSet
108 437 m 5
 341 79 l 5
 235 18 l 5
 2 376 l 5
 108 437 l 5
EndSplineSet
EndChar

StartChar: uni09F3
Encoding: 2547 2547 438
Width: 806
VWidth: 0
Flags: HW
HStem: 681 132<-50 0 167 589> 681 90<0 167>
VStem: 3 164<182.77 771> 402 164<182.95 383>
LayerCount: 2
Fore
SplineSet
166 782 m 25
 166 782 197 879 180 938 c 24
 172 966 137 951 112 966 c 24
 88 980 56 1012 56 1012 c 25
 70 1104 l 25
 70 1104 155 1105 202 1084 c 24
 265 1056 320 1044 344 980 c 24
 374 900 322 762 322 762 c 25
 166 782 l 25
724 194 m 1
 655.931640625 -45.4130859375 230.236328125 -49.4453125 161 194 c 1
 158.467773438 681 l 1
 -18 681 l 5
 -18 813 l 5
 589 813 l 1
 589 681 l 1
 325 681 l 1
 325 195 l 1
 363.237304688 151.02734375 522.430664062 149.916992188 560 195 c 1
 560 383 l 1
 727 383 l 1
 724 194 l 1
EndSplineSet
EndChar

StartChar: uni09F4
Encoding: 2548 2548 439
Width: 445
VWidth: 0
Flags: HW
LayerCount: 2
Fore
SplineSet
240 477 m 1
 346 416 l 1
 113 58 l 1
 7 119 l 1
 240 477 l 1
EndSplineSet
EndChar

StartChar: uni09F5
Encoding: 2549 2549 440
Width: 1011
VWidth: 0
Flags: HW
HStem: 626 157<1.091 167.973> -4 161<1.091 167.973>
VStem: 302 153<292.8 487.701>
LayerCount: 2
Fore
SplineSet
86.0341796875 647.158203125 m 1
 94.587890625 648.015625 103.260742188 648.454101562 112.034179688 648.454101562 c 0
 255.034179688 648.454101562 370.03515625 533.454101562 370.03515625 391.454101562 c 0
 370.03515625 296.530273438 319.361328125 213.944335938 243.462890625 169.142578125 c 1
 319.920898438 150.380859375 404.73828125 171.677734375 465.268554688 232.208007812 c 0
 768 520 l 1
 946 444 l 1
 632.203125 130.736328125 l 0
 478.760742188 -22.705078125 173.229492188 -34.375 24.0341796875 114.828125 c 0
 6.380859375 132.482421875 -9.1337890625 151.481445312 -22.515625 171.515625 c 1
 86.0341796875 280.065429688 l 1
 86.0341796875 287.588867188 l 1
 88.0751953125 287.0859375 90.1396484375 286.641601562 92.2255859375 286.256835938 c 2
 94.8115234375 288.842773438 l 1
 95.3486328125 287.74609375 95.8955078125 286.653320312 96.451171875 285.563476562 c 0
 101.5390625 284.83203125 106.7421875 284.454101562 112.034179688 284.454101562 c 0
 172.034179688 284.453125 219.03515625 331.454101562 219.034179688 391.454101562 c 0
 219.03515625 450.454101562 172.034179688 497.454101562 112.034179688 497.453125 c 0
 103.0703125 497.454101562 94.3603515625 496.368164062 86.0341796875 494.322265625 c 1
 86.0341796875 647.158203125 l 1
EndSplineSet
EndChar

StartChar: uni09FA
Encoding: 2554 2554 442
Width: 400
Flags: HW
LayerCount: 2
Fore
SplineSet
89 521 m 5
 89 635 l 5
 211 635 l 5
 211 521 l 5
 89 521 l 5
343 482 m 5
 343 476 343 469 343 463 c 4
 343 355 257 269 151 269 c 4
 43 269 -43 355 -43 463 c 4
 -43 469 -43 476 -43 482 c 5
 73 482 l 5
 71 476 70 469 70 463 c 4
 70 418 106 382 151 382 c 4
 196 382 230 418 230 463 c 4
 230 469 229 476 227 482 c 5
 343 482 l 5
EndSplineSet
EndChar

StartChar: uni09FC
Encoding: 2556 2556 443
Width: 400
Flags: HW
LayerCount: 2
Fore
SplineSet
176 226 m 5
 341 79 l 1
 235 18 l 1
 70 165 l 5
 176 226 l 5
89 521 m 1
 89 635 l 1
 211 635 l 1
 211 521 l 1
 89 521 l 1
343 482 m 1
 343 476 343 469 343 463 c 0
 343 355 257 269 151 269 c 0
 43 269 -43 355 -43 463 c 0
 -43 469 -43 476 -43 482 c 1
 73 482 l 1
 71 476 70 469 70 463 c 0
 70 418 106 382 151 382 c 0
 196 382 230 418 230 463 c 0
 230 469 229 476 227 482 c 1
 343 482 l 1
EndSplineSet
EndChar

StartChar: uni09F7
Encoding: 2551 2551 444
Width: 779
VWidth: 0
Flags: HW
HStem: 626 157<1.091 167.973> -4 161<1.091 167.973>
VStem: 302 153<292.8 487.701>
LayerCount: 2
Fore
SplineSet
324 622 m 6
 456 622 l 6
 464 622 471 615 471 607 c 6
 471 15 l 6
 471 7 464 0 456 0 c 6
 324 0 l 6
 316 0 309 7 309 15 c 6
 309 607 l 6
 309 615 316 622 324 622 c 6
EndSplineSet
EndChar

